G75*
%MOIN*%
%OFA0B0*%
%FSLAX25Y25*%
%IPPOS*%
%LPD*%
%AMOC8*
5,1,8,0,0,1.08239X$1,22.5*
%
%ADD10C,0.00787*%
%ADD11C,0.07400*%
%ADD12C,0.07887*%
%ADD13C,0.13989*%
%ADD14C,0.13162*%
%ADD15C,0.06000*%
%ADD16OC8,0.07400*%
%ADD17C,0.06400*%
%ADD18OC8,0.06000*%
%ADD19C,0.15800*%
%ADD20C,0.03778*%
%ADD21C,0.06706*%
D10*
X0043063Y0041803D02*
X0047000Y0037866D01*
X0377709Y0037866D01*
X0381646Y0041803D01*
X0381646Y0351843D01*
X0371803Y0361685D01*
X0044047Y0361685D01*
X0043063Y0360701D01*
X0043063Y0041803D01*
D11*
X0114126Y0161016D03*
X0154126Y0161016D03*
X0137000Y0197000D03*
X0177000Y0197000D03*
X0172000Y0232000D03*
X0132000Y0232000D03*
X0137000Y0287000D03*
X0137000Y0317000D03*
X0137000Y0347000D03*
X0097000Y0347000D03*
X0097000Y0317000D03*
X0097000Y0287000D03*
D12*
X0212000Y0273181D03*
X0212000Y0313181D03*
X0212000Y0173181D03*
X0212000Y0133181D03*
D13*
X0272000Y0118181D03*
X0302000Y0118181D03*
X0302000Y0258181D03*
X0272000Y0258181D03*
D14*
X0202000Y0293181D03*
X0262000Y0328181D03*
X0262000Y0188181D03*
X0202000Y0153181D03*
D15*
X0119600Y0212000D02*
X0114400Y0212000D01*
X0114400Y0222000D02*
X0119600Y0222000D01*
X0089600Y0222000D02*
X0084400Y0222000D01*
X0084400Y0212000D02*
X0089600Y0212000D01*
X0089600Y0327000D02*
X0084400Y0327000D01*
X0084400Y0337000D02*
X0089600Y0337000D01*
X0059600Y0337000D02*
X0054400Y0337000D01*
X0054400Y0327000D02*
X0059600Y0327000D01*
D16*
X0102000Y0332000D03*
X0132000Y0332000D03*
X0132000Y0302000D03*
X0102000Y0302000D03*
X0137000Y0212000D03*
X0167000Y0212000D03*
X0162000Y0182000D03*
X0132000Y0182000D03*
D17*
X0067000Y0228063D03*
X0067000Y0235937D03*
X0067000Y0253063D03*
X0067000Y0260937D03*
D18*
X0077000Y0299500D03*
X0072000Y0307000D03*
X0082000Y0307000D03*
X0107000Y0187000D03*
X0112000Y0179500D03*
X0117000Y0187000D03*
D19*
X0352000Y0187787D03*
X0352000Y0225189D03*
X0352000Y0262591D03*
X0352000Y0299598D03*
X0352000Y0337000D03*
X0352000Y0150386D03*
X0352000Y0107472D03*
X0352000Y0070071D03*
D20*
X0174953Y0137276D03*
X0167000Y0137000D03*
X0166094Y0129402D03*
X0052489Y0252000D03*
D21*
X0091291Y0269165D03*
X0101134Y0268181D03*
X0102118Y0258339D03*
X0092276Y0258339D03*
X0093260Y0247512D03*
X0103102Y0247512D03*
X0112945Y0247512D03*
X0123772Y0247512D03*
X0134598Y0247512D03*
X0134598Y0258339D03*
X0134598Y0267197D03*
X0123772Y0268181D03*
X0111961Y0268181D03*
X0111961Y0258339D03*
X0124756Y0258339D03*
X0146409Y0257354D03*
X0147394Y0247512D03*
X0169047Y0264244D03*
X0177906Y0272118D03*
X0186764Y0267197D03*
X0179874Y0261291D03*
X0174953Y0251449D03*
X0185780Y0249480D03*
X0192669Y0257354D03*
X0196606Y0247512D03*
X0206449Y0245543D03*
X0201528Y0237669D03*
X0191685Y0238654D03*
X0197591Y0227827D03*
X0208417Y0227827D03*
X0213339Y0235701D03*
X0220228Y0231764D03*
X0218260Y0223890D03*
X0208417Y0217984D03*
X0219244Y0215031D03*
X0230071Y0213063D03*
X0231055Y0222906D03*
X0241882Y0221921D03*
X0241882Y0213063D03*
X0252709Y0213063D03*
X0251724Y0220937D03*
X0262551Y0222906D03*
X0271409Y0222906D03*
X0275346Y0225858D03*
X0282236Y0223890D03*
X0291094Y0223890D03*
X0289126Y0232748D03*
X0280268Y0232748D03*
X0270425Y0232748D03*
X0260583Y0232748D03*
X0249756Y0231764D03*
X0240898Y0231764D03*
X0231055Y0232748D03*
X0246803Y0248496D03*
X0237945Y0253417D03*
X0246803Y0259323D03*
X0237945Y0264244D03*
X0228102Y0263260D03*
X0228102Y0252433D03*
X0245819Y0272118D03*
X0246803Y0285898D03*
X0245819Y0298693D03*
X0246803Y0311488D03*
X0265504Y0296724D03*
X0270425Y0288850D03*
X0273378Y0279992D03*
X0263535Y0279992D03*
X0269441Y0271134D03*
X0279283Y0270150D03*
X0281252Y0287866D03*
X0286173Y0296724D03*
X0290110Y0305583D03*
X0281252Y0306567D03*
X0271409Y0306567D03*
X0276331Y0296724D03*
X0297984Y0312472D03*
X0289126Y0315425D03*
X0294047Y0324283D03*
X0285189Y0325268D03*
X0291094Y0333142D03*
X0299953Y0331173D03*
X0297000Y0340031D03*
X0305858Y0339047D03*
X0314717Y0336094D03*
X0317669Y0343969D03*
X0327512Y0345937D03*
X0325543Y0336094D03*
X0329480Y0327236D03*
X0319638Y0327236D03*
X0309795Y0328220D03*
X0303890Y0320346D03*
X0278299Y0316409D03*
X0279283Y0350858D03*
X0267472Y0350858D03*
X0256646Y0350858D03*
X0245819Y0350858D03*
X0202512Y0333142D03*
X0191685Y0334126D03*
X0192669Y0324283D03*
X0179874Y0322315D03*
X0176921Y0333142D03*
X0166094Y0333142D03*
X0166094Y0322315D03*
X0177906Y0299677D03*
X0187748Y0301646D03*
X0188732Y0290819D03*
X0178890Y0288850D03*
X0168063Y0289835D03*
X0169047Y0279008D03*
X0185780Y0279008D03*
X0146409Y0268181D03*
X0234992Y0194362D03*
X0241882Y0180583D03*
X0243850Y0167787D03*
X0242866Y0158929D03*
X0240898Y0149087D03*
X0241882Y0137276D03*
X0231055Y0137276D03*
X0229087Y0126449D03*
X0241882Y0125465D03*
X0245819Y0115622D03*
X0234992Y0113654D03*
X0223181Y0111685D03*
X0218260Y0100858D03*
X0206449Y0097906D03*
X0206449Y0109717D03*
X0198575Y0118575D03*
X0174953Y0108732D03*
X0165110Y0107748D03*
X0158220Y0119559D03*
X0158220Y0131370D03*
X0160189Y0143181D03*
X0171016Y0149087D03*
X0181843Y0146134D03*
X0191685Y0144165D03*
X0189717Y0154008D03*
X0179874Y0159913D03*
X0170031Y0120543D03*
X0172984Y0097906D03*
X0162157Y0095937D03*
X0172000Y0087079D03*
X0180858Y0076252D03*
X0190701Y0078220D03*
X0192669Y0068378D03*
X0202512Y0077236D03*
X0206449Y0065425D03*
X0220228Y0064441D03*
X0230071Y0064441D03*
X0239913Y0069362D03*
X0246803Y0075268D03*
X0255661Y0067394D03*
X0245819Y0062472D03*
X0259598Y0076252D03*
X0270425Y0071331D03*
X0267472Y0062472D03*
X0279283Y0066409D03*
X0281252Y0077236D03*
X0293063Y0071331D03*
X0291094Y0062472D03*
X0302906Y0061488D03*
X0309795Y0070346D03*
X0314717Y0061488D03*
X0321606Y0067394D03*
X0332433Y0061488D03*
X0342276Y0060504D03*
X0333417Y0072315D03*
X0327512Y0079205D03*
X0317669Y0078220D03*
X0300937Y0077236D03*
X0323575Y0097906D03*
X0323575Y0108732D03*
X0323575Y0118575D03*
X0323575Y0129402D03*
X0323575Y0140228D03*
X0313732Y0140228D03*
X0303890Y0140228D03*
X0307827Y0153024D03*
X0318654Y0154008D03*
X0293063Y0161882D03*
X0289126Y0169756D03*
X0281252Y0163850D03*
X0279283Y0172709D03*
X0288142Y0179598D03*
X0297984Y0181567D03*
X0297984Y0172709D03*
X0308811Y0175661D03*
X0308811Y0185504D03*
X0302906Y0193378D03*
X0313732Y0195346D03*
X0319638Y0188457D03*
X0321606Y0179598D03*
X0331449Y0178614D03*
X0329480Y0187472D03*
X0338339Y0187472D03*
X0341291Y0178614D03*
X0339323Y0196331D03*
X0329480Y0196331D03*
X0331449Y0215031D03*
X0335386Y0222906D03*
X0337354Y0230780D03*
X0327512Y0227827D03*
X0321606Y0219953D03*
X0312748Y0222906D03*
X0313732Y0213063D03*
X0304874Y0214047D03*
X0295031Y0214047D03*
X0286173Y0214047D03*
X0274362Y0214047D03*
X0263535Y0214047D03*
X0298969Y0232748D03*
X0301921Y0223890D03*
X0308811Y0232748D03*
X0317669Y0231764D03*
X0343260Y0214047D03*
X0286173Y0154008D03*
X0280268Y0144165D03*
X0269441Y0145150D03*
X0275346Y0154008D03*
X0263535Y0154992D03*
X0270425Y0163850D03*
X0263535Y0135307D03*
X0279283Y0134323D03*
X0248772Y0098890D03*
X0235976Y0099874D03*
X0230071Y0076252D03*
X0217276Y0078220D03*
X0184795Y0092000D03*
X0149362Y0073299D03*
X0138535Y0074283D03*
X0128693Y0075268D03*
X0118850Y0075268D03*
X0109008Y0075268D03*
X0098181Y0075268D03*
X0087354Y0075268D03*
X0078496Y0075268D03*
X0068654Y0075268D03*
X0058811Y0075268D03*
X0058811Y0085110D03*
X0068654Y0085110D03*
X0078496Y0085110D03*
X0086370Y0085110D03*
X0096213Y0086094D03*
X0106055Y0094953D03*
X0107039Y0086094D03*
X0116882Y0086094D03*
X0125740Y0086094D03*
X0125740Y0094953D03*
X0115898Y0094953D03*
X0113929Y0106764D03*
X0104087Y0106764D03*
X0094244Y0106764D03*
X0084402Y0106764D03*
X0074559Y0106764D03*
X0063732Y0106764D03*
X0054874Y0106764D03*
X0054874Y0095937D03*
X0064717Y0095937D03*
X0075543Y0095937D03*
X0084402Y0095937D03*
X0096213Y0095937D03*
X0093260Y0117591D03*
X0083417Y0117591D03*
X0074559Y0117591D03*
X0063732Y0118575D03*
X0063732Y0131370D03*
X0074559Y0131370D03*
X0083417Y0131370D03*
X0093260Y0131370D03*
X0103102Y0131370D03*
X0111961Y0131370D03*
X0121803Y0131370D03*
X0132630Y0131370D03*
X0135583Y0116606D03*
X0134598Y0105780D03*
X0123772Y0106764D03*
X0123772Y0116606D03*
X0113929Y0117591D03*
X0104087Y0117591D03*
X0135583Y0094953D03*
X0135583Y0086094D03*
X0140504Y0062472D03*
X0150346Y0062472D03*
X0149362Y0052630D03*
X0159205Y0052630D03*
X0138535Y0052630D03*
X0128693Y0052630D03*
X0119835Y0052630D03*
X0109992Y0052630D03*
X0109992Y0061488D03*
X0099165Y0061488D03*
X0090307Y0062472D03*
X0090307Y0052630D03*
X0080465Y0052630D03*
X0080465Y0062472D03*
X0070622Y0061488D03*
X0070622Y0052630D03*
X0059795Y0052630D03*
X0060780Y0061488D03*
X0100150Y0052630D03*
X0120819Y0062472D03*
X0130661Y0062472D03*
X0341291Y0079205D03*
X0341291Y0119559D03*
X0351134Y0127433D03*
X0360976Y0128417D03*
X0360976Y0137276D03*
X0351134Y0137276D03*
X0341291Y0137276D03*
X0341291Y0128417D03*
X0361961Y0118575D03*
X0341291Y0326252D03*
X0337354Y0336094D03*
X0339323Y0345937D03*
X0305858Y0347906D03*
M02*
