G75*
%MOIN*%
%OFA0B0*%
%FSLAX25Y25*%
%IPPOS*%
%LPD*%
%AMOC8*
5,1,8,0,0,1.08239X$1,22.5*
%
%ADD10C,0.00787*%
%ADD11C,0.06600*%
%ADD12C,0.07087*%
%ADD13C,0.13189*%
%ADD14C,0.12362*%
%ADD15C,0.05200*%
%ADD16OC8,0.06600*%
%ADD17C,0.05600*%
%ADD18OC8,0.05200*%
%ADD19C,0.15000*%
%ADD20C,0.30000*%
%ADD21C,0.02978*%
%ADD22C,0.02000*%
%ADD23C,0.05906*%
D10*
X0043063Y0041803D02*
X0047000Y0037866D01*
X0377709Y0037866D01*
X0381646Y0041803D01*
X0381646Y0351843D01*
X0371803Y0361685D01*
X0044047Y0361685D01*
X0043063Y0360701D01*
X0043063Y0041803D01*
D11*
X0114126Y0161016D03*
X0154126Y0161016D03*
X0137000Y0197000D03*
X0177000Y0197000D03*
X0172000Y0232000D03*
X0132000Y0232000D03*
X0137000Y0287000D03*
X0137000Y0317000D03*
X0137000Y0347000D03*
X0097000Y0347000D03*
X0097000Y0317000D03*
X0097000Y0287000D03*
D12*
X0212000Y0273181D03*
X0212000Y0313181D03*
X0212000Y0173181D03*
X0212000Y0133181D03*
D13*
X0272000Y0118181D03*
X0302000Y0118181D03*
X0302000Y0258181D03*
X0272000Y0258181D03*
D14*
X0202000Y0293181D03*
X0262000Y0328181D03*
X0262000Y0188181D03*
X0202000Y0153181D03*
D15*
X0119600Y0212000D02*
X0114400Y0212000D01*
X0114400Y0222000D02*
X0119600Y0222000D01*
X0089600Y0222000D02*
X0084400Y0222000D01*
X0084400Y0212000D02*
X0089600Y0212000D01*
X0089600Y0327000D02*
X0084400Y0327000D01*
X0084400Y0337000D02*
X0089600Y0337000D01*
X0059600Y0337000D02*
X0054400Y0337000D01*
X0054400Y0327000D02*
X0059600Y0327000D01*
D16*
X0102000Y0332000D03*
X0132000Y0332000D03*
X0132000Y0302000D03*
X0102000Y0302000D03*
X0137000Y0212000D03*
X0167000Y0212000D03*
X0162000Y0182000D03*
X0132000Y0182000D03*
D17*
X0067000Y0228063D03*
X0067000Y0235937D03*
X0067000Y0253063D03*
X0067000Y0260937D03*
D18*
X0077000Y0299500D03*
X0072000Y0307000D03*
X0082000Y0307000D03*
X0107000Y0187000D03*
X0112000Y0179500D03*
X0117000Y0187000D03*
D19*
X0352000Y0187787D03*
X0352000Y0225189D03*
X0352000Y0262591D03*
X0352000Y0299598D03*
X0352000Y0337000D03*
X0352000Y0150386D03*
X0352000Y0107472D03*
X0352000Y0070071D03*
D20*
X0207000Y0072000D01*
X0187000Y0077000D01*
X0167000Y0097000D01*
X0167000Y0137000D01*
X0182000Y0152000D01*
X0202000Y0153181D01*
X0272000Y0152000D02*
X0272000Y0118181D01*
X0272000Y0152000D02*
X0307787Y0187787D01*
X0352000Y0187787D01*
X0352000Y0222000D02*
X0217000Y0222000D01*
X0177000Y0262000D01*
X0177000Y0287000D01*
X0183181Y0293181D01*
X0202000Y0293181D01*
X0272000Y0292000D02*
X0272000Y0258181D01*
X0272000Y0292000D02*
X0307000Y0337000D01*
X0352000Y0337000D01*
X0352000Y0299598D02*
X0352000Y0262591D01*
X0352000Y0225189D02*
X0352000Y0222000D01*
X0352000Y0147000D02*
X0352000Y0107472D01*
D21*
X0174953Y0137276D03*
X0167000Y0137000D03*
X0166094Y0129402D03*
X0052489Y0252000D03*
D22*
X0061426Y0260937D01*
X0067000Y0260937D01*
X0077400Y0260781D02*
X0082005Y0260781D01*
X0081723Y0259728D02*
X0081723Y0256949D01*
X0082442Y0254265D01*
X0083708Y0252073D01*
X0083426Y0251585D01*
X0082707Y0248901D01*
X0082707Y0246123D01*
X0083426Y0243439D01*
X0084816Y0241032D01*
X0086780Y0239068D01*
X0089187Y0237678D01*
X0091871Y0236959D01*
X0094649Y0236959D01*
X0097333Y0237678D01*
X0098181Y0238168D01*
X0099029Y0237678D01*
X0101713Y0236959D01*
X0104492Y0236959D01*
X0107176Y0237678D01*
X0108024Y0238168D01*
X0108872Y0237678D01*
X0111556Y0236959D01*
X0114334Y0236959D01*
X0117018Y0237678D01*
X0118358Y0238452D01*
X0119698Y0237678D01*
X0122291Y0236984D01*
X0121843Y0236207D01*
X0121100Y0233435D01*
X0121100Y0230565D01*
X0121843Y0227793D01*
X0123278Y0225307D01*
X0125307Y0223278D01*
X0127793Y0221843D01*
X0130565Y0221100D01*
X0130685Y0221100D01*
X0127794Y0218208D01*
X0127762Y0218263D01*
X0125863Y0220162D01*
X0124125Y0221165D01*
X0124200Y0221638D01*
X0124200Y0222000D01*
X0124200Y0222362D01*
X0124087Y0223077D01*
X0123863Y0223766D01*
X0123534Y0224411D01*
X0123109Y0224997D01*
X0122597Y0225509D01*
X0122011Y0225934D01*
X0121366Y0226263D01*
X0120677Y0226487D01*
X0119962Y0226600D01*
X0117000Y0226600D01*
X0117000Y0222200D01*
X0117000Y0222200D01*
X0117000Y0226600D01*
X0114038Y0226600D01*
X0113323Y0226487D01*
X0112634Y0226263D01*
X0111989Y0225934D01*
X0111403Y0225509D01*
X0110891Y0224997D01*
X0110466Y0224411D01*
X0110137Y0223766D01*
X0109913Y0223077D01*
X0109800Y0222362D01*
X0109800Y0222000D01*
X0112311Y0222000D01*
X0112311Y0222000D01*
X0109800Y0222000D01*
X0109800Y0221638D01*
X0109875Y0221165D01*
X0108137Y0220162D01*
X0106238Y0218263D01*
X0104895Y0215937D01*
X0104200Y0213343D01*
X0104200Y0210657D01*
X0104895Y0208063D01*
X0106238Y0205737D01*
X0106375Y0205600D01*
X0105562Y0205600D01*
X0099800Y0211362D01*
X0099800Y0213343D01*
X0099105Y0215937D01*
X0098491Y0217000D01*
X0099105Y0218063D01*
X0099800Y0220657D01*
X0099800Y0223343D01*
X0099105Y0225937D01*
X0097762Y0228263D01*
X0095863Y0230162D01*
X0093537Y0231505D01*
X0090943Y0232200D01*
X0083057Y0232200D01*
X0080463Y0231505D01*
X0078137Y0230162D01*
X0076238Y0228263D01*
X0074895Y0225937D01*
X0074200Y0223343D01*
X0074200Y0220657D01*
X0074895Y0218063D01*
X0075509Y0217000D01*
X0074895Y0215937D01*
X0074200Y0213343D01*
X0074200Y0210657D01*
X0074895Y0208063D01*
X0076238Y0205737D01*
X0078137Y0203838D01*
X0080463Y0202495D01*
X0083057Y0201800D01*
X0085038Y0201800D01*
X0094709Y0192128D01*
X0097128Y0189709D01*
X0100289Y0188400D01*
X0102400Y0188400D01*
X0102400Y0187000D01*
X0105075Y0187000D01*
X0102400Y0187000D01*
X0102400Y0185095D01*
X0102785Y0184710D01*
X0101800Y0183725D01*
X0101800Y0175275D01*
X0107385Y0169690D01*
X0105404Y0167709D01*
X0103969Y0165223D01*
X0103226Y0162451D01*
X0103226Y0159581D01*
X0103969Y0156809D01*
X0105404Y0154323D01*
X0107433Y0152294D01*
X0109919Y0150859D01*
X0112691Y0150116D01*
X0115561Y0150116D01*
X0118333Y0150859D01*
X0120819Y0152294D01*
X0122848Y0154323D01*
X0124283Y0156809D01*
X0125026Y0159581D01*
X0125026Y0162451D01*
X0124283Y0165223D01*
X0122848Y0167709D01*
X0120819Y0169738D01*
X0118333Y0171173D01*
X0118148Y0171223D01*
X0122200Y0175275D01*
X0122200Y0176385D01*
X0127485Y0171100D01*
X0136515Y0171100D01*
X0142900Y0177485D01*
X0142900Y0186515D01*
X0142073Y0187342D01*
X0143693Y0188278D01*
X0145722Y0190307D01*
X0147157Y0192793D01*
X0147900Y0195565D01*
X0147900Y0198435D01*
X0147157Y0201207D01*
X0145722Y0203693D01*
X0144915Y0204500D01*
X0147900Y0207485D01*
X0147900Y0213400D01*
X0156100Y0213400D01*
X0156100Y0207485D01*
X0162485Y0201100D01*
X0166814Y0201100D01*
X0166100Y0198435D01*
X0166100Y0195565D01*
X0166843Y0192793D01*
X0167144Y0192271D01*
X0166515Y0192900D01*
X0157485Y0192900D01*
X0151100Y0186515D01*
X0151100Y0177485D01*
X0157075Y0171510D01*
X0155561Y0171916D01*
X0152691Y0171916D01*
X0149919Y0171173D01*
X0147433Y0169738D01*
X0145404Y0167709D01*
X0143969Y0165223D01*
X0143226Y0162451D01*
X0143226Y0159581D01*
X0143969Y0156809D01*
X0145404Y0154323D01*
X0147433Y0152294D01*
X0149271Y0151232D01*
X0148916Y0150877D01*
X0145940Y0145723D01*
X0144400Y0139975D01*
X0144400Y0094025D01*
X0145940Y0088277D01*
X0148916Y0083123D01*
X0153123Y0078916D01*
X0153123Y0078916D01*
X0169052Y0062987D01*
X0169151Y0062821D01*
X0171154Y0060885D01*
X0173123Y0058916D01*
X0173291Y0058819D01*
X0173429Y0058685D01*
X0175865Y0057333D01*
X0178277Y0055940D01*
X0178463Y0055890D01*
X0178632Y0055796D01*
X0181334Y0055121D01*
X0184025Y0054400D01*
X0184218Y0054400D01*
X0201188Y0050157D01*
X0203724Y0049442D01*
X0204070Y0049437D01*
X0204405Y0049353D01*
X0207040Y0049397D01*
X0354674Y0047433D01*
X0360442Y0048897D01*
X0365635Y0051803D01*
X0369898Y0055955D01*
X0372942Y0061068D01*
X0373652Y0063584D01*
X0373652Y0045860D01*
X0051057Y0045860D01*
X0051057Y0242911D01*
X0054297Y0242911D01*
X0057637Y0244295D01*
X0059349Y0246006D01*
X0060614Y0244741D01*
X0061032Y0244500D01*
X0060614Y0244259D01*
X0058678Y0242323D01*
X0057309Y0239951D01*
X0056600Y0237306D01*
X0056600Y0234568D01*
X0057309Y0231923D01*
X0058678Y0229551D01*
X0060614Y0227615D01*
X0062441Y0226560D01*
X0062552Y0226220D01*
X0062895Y0225547D01*
X0063339Y0224936D01*
X0063873Y0224402D01*
X0064484Y0223958D01*
X0065157Y0223615D01*
X0065876Y0223381D01*
X0066622Y0223263D01*
X0067000Y0223263D01*
X0067378Y0223263D01*
X0068124Y0223381D01*
X0068843Y0223615D01*
X0069516Y0223958D01*
X0070127Y0224402D01*
X0070661Y0224936D01*
X0071105Y0225547D01*
X0071448Y0226220D01*
X0071559Y0226560D01*
X0073386Y0227615D01*
X0075322Y0229551D01*
X0076691Y0231923D01*
X0077400Y0234568D01*
X0077400Y0237306D01*
X0076691Y0239951D01*
X0075322Y0242323D01*
X0073386Y0244259D01*
X0072968Y0244500D01*
X0073386Y0244741D01*
X0075322Y0246677D01*
X0076691Y0249049D01*
X0077400Y0251694D01*
X0077400Y0254432D01*
X0076712Y0257000D01*
X0077400Y0259568D01*
X0077400Y0262306D01*
X0076691Y0264951D01*
X0075322Y0267323D01*
X0073386Y0269259D01*
X0071014Y0270628D01*
X0068369Y0271337D01*
X0065631Y0271337D01*
X0062986Y0270628D01*
X0061096Y0269537D01*
X0059715Y0269537D01*
X0056554Y0268228D01*
X0054135Y0265809D01*
X0051057Y0262730D01*
X0051057Y0317336D01*
X0053057Y0316800D01*
X0060943Y0316800D01*
X0063537Y0317495D01*
X0065863Y0318838D01*
X0067762Y0320737D01*
X0069105Y0323063D01*
X0069800Y0325657D01*
X0069800Y0328343D01*
X0069105Y0330937D01*
X0068491Y0332000D01*
X0069105Y0333063D01*
X0069800Y0335657D01*
X0069800Y0338343D01*
X0069105Y0340937D01*
X0067762Y0343263D01*
X0065863Y0345162D01*
X0063537Y0346505D01*
X0060943Y0347200D01*
X0053057Y0347200D01*
X0051057Y0346664D01*
X0051057Y0353691D01*
X0128277Y0353691D01*
X0126843Y0351207D01*
X0126100Y0348435D01*
X0126100Y0345565D01*
X0126843Y0342793D01*
X0127039Y0342454D01*
X0121100Y0336515D01*
X0121100Y0327485D01*
X0127039Y0321546D01*
X0126843Y0321207D01*
X0126100Y0318435D01*
X0126100Y0315565D01*
X0126843Y0312793D01*
X0127039Y0312454D01*
X0121100Y0306515D01*
X0121100Y0297485D01*
X0127039Y0291546D01*
X0126843Y0291207D01*
X0126100Y0288435D01*
X0126100Y0285565D01*
X0126843Y0282793D01*
X0128278Y0280307D01*
X0130307Y0278278D01*
X0131852Y0277386D01*
X0130525Y0277030D01*
X0130037Y0276749D01*
X0127845Y0278015D01*
X0125161Y0278734D01*
X0122382Y0278734D01*
X0119698Y0278015D01*
X0117866Y0276957D01*
X0116034Y0278015D01*
X0113350Y0278734D01*
X0110571Y0278734D01*
X0107887Y0278015D01*
X0106547Y0277241D01*
X0105207Y0278015D01*
X0103805Y0278390D01*
X0105722Y0280307D01*
X0107157Y0282793D01*
X0107900Y0285565D01*
X0107900Y0288435D01*
X0107157Y0291207D01*
X0106961Y0291546D01*
X0112900Y0297485D01*
X0112900Y0306515D01*
X0106961Y0312454D01*
X0107157Y0312793D01*
X0107900Y0315565D01*
X0107900Y0318435D01*
X0107157Y0321207D01*
X0106961Y0321546D01*
X0112900Y0327485D01*
X0112900Y0336515D01*
X0106515Y0342900D01*
X0100374Y0342900D01*
X0100453Y0342957D01*
X0101043Y0343547D01*
X0101533Y0344222D01*
X0101912Y0344966D01*
X0102169Y0345759D01*
X0102300Y0346583D01*
X0102300Y0346900D01*
X0097100Y0346900D01*
X0097100Y0347100D01*
X0096900Y0347100D01*
X0096900Y0352300D01*
X0096583Y0352300D01*
X0095759Y0352169D01*
X0094966Y0351912D01*
X0094222Y0351533D01*
X0093547Y0351043D01*
X0092957Y0350453D01*
X0092467Y0349778D01*
X0092088Y0349034D01*
X0091830Y0348241D01*
X0091700Y0347417D01*
X0091700Y0347100D01*
X0096900Y0347100D01*
X0096900Y0346900D01*
X0091700Y0346900D01*
X0091700Y0346583D01*
X0091830Y0345759D01*
X0092088Y0344966D01*
X0092467Y0344222D01*
X0092957Y0343547D01*
X0093547Y0342957D01*
X0094222Y0342467D01*
X0094966Y0342088D01*
X0095759Y0341830D01*
X0096326Y0341741D01*
X0093690Y0339105D01*
X0093534Y0339411D01*
X0093109Y0339997D01*
X0092597Y0340509D01*
X0092011Y0340934D01*
X0091366Y0341263D01*
X0090677Y0341487D01*
X0089962Y0341600D01*
X0087000Y0341600D01*
X0087000Y0337200D01*
X0087000Y0337200D01*
X0087000Y0341600D01*
X0084038Y0341600D01*
X0083323Y0341487D01*
X0082634Y0341263D01*
X0081989Y0340934D01*
X0081403Y0340509D01*
X0080891Y0339997D01*
X0080466Y0339411D01*
X0080137Y0338766D01*
X0079913Y0338077D01*
X0079800Y0337362D01*
X0079800Y0337000D01*
X0082311Y0337000D01*
X0082311Y0337000D01*
X0079800Y0337000D01*
X0079800Y0336638D01*
X0079875Y0336165D01*
X0078137Y0335162D01*
X0076238Y0333263D01*
X0074895Y0330937D01*
X0074200Y0328343D01*
X0074200Y0325657D01*
X0074895Y0323063D01*
X0076238Y0320737D01*
X0078137Y0318838D01*
X0078400Y0318686D01*
X0078400Y0317200D01*
X0077775Y0317200D01*
X0072175Y0311600D01*
X0072000Y0311600D01*
X0072000Y0311425D01*
X0072000Y0311425D01*
X0072000Y0311600D01*
X0070095Y0311600D01*
X0067400Y0308905D01*
X0067400Y0307000D01*
X0070075Y0307000D01*
X0067400Y0307000D01*
X0067400Y0305095D01*
X0067785Y0304710D01*
X0066800Y0303725D01*
X0066800Y0295275D01*
X0072775Y0289300D01*
X0081225Y0289300D01*
X0087200Y0295275D01*
X0087200Y0297775D01*
X0091100Y0301675D01*
X0091100Y0297485D01*
X0091927Y0296658D01*
X0090307Y0295722D01*
X0088278Y0293693D01*
X0086843Y0291207D01*
X0086100Y0288435D01*
X0086100Y0285565D01*
X0086843Y0282793D01*
X0088278Y0280307D01*
X0089086Y0279499D01*
X0087218Y0278999D01*
X0084812Y0277610D01*
X0082847Y0275645D01*
X0081458Y0273239D01*
X0080739Y0270555D01*
X0080739Y0267776D01*
X0081458Y0265092D01*
X0082724Y0262900D01*
X0082442Y0262412D01*
X0081723Y0259728D01*
X0081723Y0258783D02*
X0077190Y0258783D01*
X0076770Y0256784D02*
X0081767Y0256784D01*
X0082303Y0254786D02*
X0077305Y0254786D01*
X0077400Y0252787D02*
X0083295Y0252787D01*
X0083213Y0250789D02*
X0077157Y0250789D01*
X0076542Y0248790D02*
X0082707Y0248790D01*
X0082707Y0246792D02*
X0075388Y0246792D01*
X0073438Y0244793D02*
X0083063Y0244793D01*
X0083798Y0242795D02*
X0074850Y0242795D01*
X0076204Y0240796D02*
X0085052Y0240796D01*
X0087248Y0238798D02*
X0077000Y0238798D01*
X0077400Y0236799D02*
X0122184Y0236799D01*
X0121466Y0234801D02*
X0077400Y0234801D01*
X0076927Y0232802D02*
X0121100Y0232802D01*
X0121100Y0230803D02*
X0094752Y0230803D01*
X0097220Y0228805D02*
X0121572Y0228805D01*
X0122412Y0226806D02*
X0098603Y0226806D01*
X0099407Y0224808D02*
X0110754Y0224808D01*
X0109871Y0222809D02*
X0099800Y0222809D01*
X0099800Y0220811D02*
X0109261Y0220811D01*
X0106787Y0218812D02*
X0099306Y0218812D01*
X0098599Y0216814D02*
X0105401Y0216814D01*
X0104595Y0214815D02*
X0099405Y0214815D01*
X0099800Y0212817D02*
X0104200Y0212817D01*
X0104200Y0210818D02*
X0100344Y0210818D01*
X0102342Y0208820D02*
X0104692Y0208820D01*
X0104341Y0206821D02*
X0105612Y0206821D01*
X0102000Y0197000D02*
X0137000Y0197000D01*
X0147900Y0196829D02*
X0166100Y0196829D01*
X0166205Y0198827D02*
X0147795Y0198827D01*
X0147259Y0200826D02*
X0166741Y0200826D01*
X0160761Y0202824D02*
X0146224Y0202824D01*
X0145238Y0204823D02*
X0158762Y0204823D01*
X0156764Y0206821D02*
X0147236Y0206821D01*
X0147900Y0208820D02*
X0156100Y0208820D01*
X0156100Y0210818D02*
X0147900Y0210818D01*
X0147900Y0212817D02*
X0156100Y0212817D01*
X0142000Y0222000D02*
X0132000Y0232000D01*
X0142534Y0234801D02*
X0167484Y0234801D01*
X0167467Y0234778D02*
X0167088Y0234034D01*
X0166830Y0233241D01*
X0166700Y0232417D01*
X0166700Y0232100D01*
X0171900Y0232100D01*
X0171900Y0231900D01*
X0166700Y0231900D01*
X0166700Y0231583D01*
X0166830Y0230759D01*
X0166882Y0230600D01*
X0145562Y0230600D01*
X0142900Y0233262D01*
X0142900Y0233435D01*
X0142157Y0236207D01*
X0140722Y0238693D01*
X0140615Y0238800D01*
X0140996Y0239020D01*
X0143320Y0237678D01*
X0146004Y0236959D01*
X0148783Y0236959D01*
X0151467Y0237678D01*
X0153873Y0239068D01*
X0155838Y0241032D01*
X0157227Y0243439D01*
X0157946Y0246123D01*
X0157946Y0248901D01*
X0157496Y0250582D01*
X0158916Y0248123D01*
X0163123Y0243916D01*
X0163123Y0243916D01*
X0170087Y0236951D01*
X0169966Y0236912D01*
X0169222Y0236533D01*
X0168547Y0236043D01*
X0167957Y0235453D01*
X0167467Y0234778D01*
X0166761Y0232802D02*
X0143360Y0232802D01*
X0145359Y0230803D02*
X0166823Y0230803D01*
X0169744Y0236799D02*
X0141816Y0236799D01*
X0141382Y0238798D02*
X0140617Y0238798D01*
X0153406Y0238798D02*
X0168241Y0238798D01*
X0166243Y0240796D02*
X0155602Y0240796D01*
X0156855Y0242795D02*
X0164244Y0242795D01*
X0162246Y0244793D02*
X0157590Y0244793D01*
X0157946Y0246792D02*
X0160247Y0246792D01*
X0158530Y0248790D02*
X0157946Y0248790D01*
X0154400Y0275114D02*
X0152889Y0276625D01*
X0150483Y0278015D01*
X0147799Y0278734D01*
X0145020Y0278734D01*
X0143830Y0278415D01*
X0145722Y0280307D01*
X0147157Y0282793D01*
X0147900Y0285565D01*
X0147900Y0288435D01*
X0147157Y0291207D01*
X0145722Y0293693D01*
X0143693Y0295722D01*
X0142073Y0296658D01*
X0142900Y0297485D01*
X0142900Y0306515D01*
X0142073Y0307342D01*
X0143693Y0308278D01*
X0145722Y0310307D01*
X0147157Y0312793D01*
X0147900Y0315565D01*
X0147900Y0318435D01*
X0147157Y0321207D01*
X0145722Y0323693D01*
X0143693Y0325722D01*
X0142073Y0326658D01*
X0142900Y0327485D01*
X0142900Y0336515D01*
X0142073Y0337342D01*
X0143693Y0338278D01*
X0145722Y0340307D01*
X0147157Y0342793D01*
X0147900Y0345565D01*
X0147900Y0348435D01*
X0147157Y0351207D01*
X0145723Y0353691D01*
X0291605Y0353691D01*
X0290987Y0353224D01*
X0290024Y0351986D01*
X0288916Y0350877D01*
X0288206Y0349647D01*
X0275048Y0332730D01*
X0274842Y0333500D01*
X0273028Y0336643D01*
X0270462Y0339209D01*
X0267319Y0341023D01*
X0263814Y0341962D01*
X0260186Y0341962D01*
X0256681Y0341023D01*
X0253538Y0339209D01*
X0250972Y0336643D01*
X0249158Y0333500D01*
X0248219Y0329995D01*
X0248219Y0326367D01*
X0249158Y0322862D01*
X0250972Y0319719D01*
X0253538Y0317153D01*
X0256681Y0315339D01*
X0260186Y0314400D01*
X0260791Y0314400D01*
X0255024Y0306986D01*
X0253916Y0305877D01*
X0253206Y0304647D01*
X0252334Y0303526D01*
X0251724Y0302081D01*
X0250940Y0300723D01*
X0250573Y0299352D01*
X0250021Y0298044D01*
X0249806Y0296490D01*
X0249400Y0294975D01*
X0249400Y0293556D01*
X0249205Y0292149D01*
X0249400Y0290593D01*
X0249400Y0255206D01*
X0250940Y0249458D01*
X0253745Y0244600D01*
X0226361Y0244600D01*
X0208334Y0262627D01*
X0210533Y0262038D01*
X0213467Y0262038D01*
X0216301Y0262797D01*
X0218842Y0264264D01*
X0220917Y0266339D01*
X0222384Y0268880D01*
X0223143Y0271714D01*
X0223143Y0274648D01*
X0222384Y0277482D01*
X0220917Y0280023D01*
X0220652Y0280288D01*
X0223060Y0284458D01*
X0224600Y0290206D01*
X0224600Y0296156D01*
X0223060Y0301904D01*
X0220084Y0307058D01*
X0216783Y0310359D01*
X0217137Y0311053D01*
X0217407Y0311883D01*
X0217543Y0312745D01*
X0217543Y0313030D01*
X0212822Y0313030D01*
X0212296Y0313333D01*
X0217543Y0313333D01*
X0217543Y0313617D01*
X0217407Y0314479D01*
X0217137Y0315309D01*
X0216741Y0316086D01*
X0216228Y0316792D01*
X0215611Y0317409D01*
X0214905Y0317922D01*
X0214128Y0318318D01*
X0213298Y0318588D01*
X0212436Y0318724D01*
X0212152Y0318724D01*
X0212152Y0313416D01*
X0211848Y0313591D01*
X0211848Y0318724D01*
X0211564Y0318724D01*
X0210702Y0318588D01*
X0209872Y0318318D01*
X0209095Y0317922D01*
X0208389Y0317409D01*
X0207772Y0316792D01*
X0207259Y0316086D01*
X0206863Y0315309D01*
X0206853Y0315278D01*
X0204975Y0315781D01*
X0199048Y0315781D01*
X0199149Y0315839D01*
X0201114Y0317804D01*
X0202503Y0320210D01*
X0203140Y0322589D01*
X0203901Y0322589D01*
X0206585Y0323308D01*
X0208991Y0324697D01*
X0210956Y0326662D01*
X0212345Y0329069D01*
X0213065Y0331752D01*
X0213065Y0334531D01*
X0212345Y0337215D01*
X0210956Y0339621D01*
X0208991Y0341586D01*
X0206585Y0342975D01*
X0203901Y0343694D01*
X0201123Y0343694D01*
X0198439Y0342975D01*
X0197951Y0342694D01*
X0195758Y0343960D01*
X0193074Y0344679D01*
X0190296Y0344679D01*
X0187612Y0343960D01*
X0185205Y0342570D01*
X0183811Y0341176D01*
X0183401Y0341586D01*
X0180994Y0342975D01*
X0178311Y0343694D01*
X0175532Y0343694D01*
X0172848Y0342975D01*
X0171508Y0342202D01*
X0170168Y0342975D01*
X0167484Y0343694D01*
X0164705Y0343694D01*
X0162021Y0342975D01*
X0159615Y0341586D01*
X0157650Y0339621D01*
X0156261Y0337215D01*
X0155542Y0334531D01*
X0155542Y0331752D01*
X0156261Y0329069D01*
X0157035Y0327728D01*
X0156261Y0326388D01*
X0155542Y0323704D01*
X0155542Y0320926D01*
X0156261Y0318242D01*
X0157650Y0315835D01*
X0159615Y0313871D01*
X0162021Y0312481D01*
X0164705Y0311762D01*
X0167484Y0311762D01*
X0170168Y0312481D01*
X0172574Y0313871D01*
X0172984Y0314281D01*
X0173394Y0313871D01*
X0173605Y0313749D01*
X0169304Y0311266D01*
X0165097Y0307058D01*
X0158916Y0300877D01*
X0155940Y0295723D01*
X0154400Y0289975D01*
X0154400Y0275114D01*
X0154400Y0276769D02*
X0152640Y0276769D01*
X0154400Y0278768D02*
X0144183Y0278768D01*
X0145987Y0280766D02*
X0154400Y0280766D01*
X0154400Y0282765D02*
X0147141Y0282765D01*
X0147685Y0284763D02*
X0154400Y0284763D01*
X0154400Y0286762D02*
X0147900Y0286762D01*
X0147813Y0288760D02*
X0154400Y0288760D01*
X0154610Y0290759D02*
X0147277Y0290759D01*
X0146262Y0292757D02*
X0155145Y0292757D01*
X0155681Y0294756D02*
X0144659Y0294756D01*
X0142169Y0296754D02*
X0156535Y0296754D01*
X0157689Y0298753D02*
X0142900Y0298753D01*
X0142900Y0300751D02*
X0158843Y0300751D01*
X0160789Y0302750D02*
X0142900Y0302750D01*
X0142900Y0304748D02*
X0162787Y0304748D01*
X0164786Y0306747D02*
X0142668Y0306747D01*
X0144160Y0308745D02*
X0166784Y0308745D01*
X0168783Y0310744D02*
X0145974Y0310744D01*
X0147128Y0312742D02*
X0161569Y0312742D01*
X0158745Y0314741D02*
X0147679Y0314741D01*
X0147900Y0316739D02*
X0157128Y0316739D01*
X0156128Y0318738D02*
X0147819Y0318738D01*
X0147283Y0320737D02*
X0155592Y0320737D01*
X0155542Y0322735D02*
X0146275Y0322735D01*
X0144681Y0324734D02*
X0155818Y0324734D01*
X0156459Y0326732D02*
X0142147Y0326732D01*
X0142900Y0328731D02*
X0156456Y0328731D01*
X0155816Y0330729D02*
X0142900Y0330729D01*
X0142900Y0332728D02*
X0155542Y0332728D01*
X0155594Y0334726D02*
X0142900Y0334726D01*
X0142690Y0336725D02*
X0156130Y0336725D01*
X0157132Y0338723D02*
X0144138Y0338723D01*
X0145961Y0340722D02*
X0158751Y0340722D01*
X0161579Y0342720D02*
X0147115Y0342720D01*
X0147673Y0344719D02*
X0284372Y0344719D01*
X0285927Y0346717D02*
X0147900Y0346717D01*
X0147825Y0348716D02*
X0287481Y0348716D01*
X0288822Y0350714D02*
X0147289Y0350714D01*
X0146288Y0352713D02*
X0290590Y0352713D01*
X0282818Y0342720D02*
X0207027Y0342720D01*
X0209856Y0340722D02*
X0256159Y0340722D01*
X0253053Y0338723D02*
X0211475Y0338723D01*
X0212477Y0336725D02*
X0251054Y0336725D01*
X0249866Y0334726D02*
X0213012Y0334726D01*
X0213065Y0332728D02*
X0248951Y0332728D01*
X0248415Y0330729D02*
X0212790Y0330729D01*
X0212150Y0328731D02*
X0248219Y0328731D01*
X0248219Y0326732D02*
X0210996Y0326732D01*
X0209027Y0324734D02*
X0248657Y0324734D01*
X0249231Y0322735D02*
X0204446Y0322735D01*
X0202644Y0320737D02*
X0250385Y0320737D01*
X0251954Y0318738D02*
X0201653Y0318738D01*
X0200049Y0316739D02*
X0207733Y0316739D01*
X0211848Y0316739D02*
X0212152Y0316739D01*
X0212152Y0314741D02*
X0211848Y0314741D01*
X0216267Y0316739D02*
X0254255Y0316739D01*
X0258913Y0314741D02*
X0217322Y0314741D01*
X0217543Y0312742D02*
X0259502Y0312742D01*
X0257948Y0310744D02*
X0216980Y0310744D01*
X0218397Y0308745D02*
X0256393Y0308745D01*
X0254786Y0306747D02*
X0220264Y0306747D01*
X0221418Y0304748D02*
X0253264Y0304748D01*
X0252006Y0302750D02*
X0222572Y0302750D01*
X0223369Y0300751D02*
X0250956Y0300751D01*
X0250320Y0298753D02*
X0223904Y0298753D01*
X0224440Y0296754D02*
X0249842Y0296754D01*
X0249400Y0294756D02*
X0224600Y0294756D01*
X0224600Y0292757D02*
X0249290Y0292757D01*
X0249379Y0290759D02*
X0224600Y0290759D01*
X0224213Y0288760D02*
X0249400Y0288760D01*
X0249400Y0286762D02*
X0223677Y0286762D01*
X0223142Y0284763D02*
X0249400Y0284763D01*
X0249400Y0282765D02*
X0222082Y0282765D01*
X0220929Y0280766D02*
X0249400Y0280766D01*
X0249400Y0278768D02*
X0221642Y0278768D01*
X0222575Y0276769D02*
X0249400Y0276769D01*
X0249400Y0274771D02*
X0223110Y0274771D01*
X0223143Y0272772D02*
X0249400Y0272772D01*
X0249400Y0270774D02*
X0222891Y0270774D01*
X0222323Y0268775D02*
X0249400Y0268775D01*
X0249400Y0266777D02*
X0221170Y0266777D01*
X0219356Y0264778D02*
X0249400Y0264778D01*
X0249400Y0262780D02*
X0216236Y0262780D01*
X0212179Y0258783D02*
X0249400Y0258783D01*
X0249400Y0260781D02*
X0210180Y0260781D01*
X0214177Y0256784D02*
X0249400Y0256784D01*
X0249513Y0254786D02*
X0216176Y0254786D01*
X0218174Y0252787D02*
X0250048Y0252787D01*
X0250584Y0250789D02*
X0220173Y0250789D01*
X0222171Y0248790D02*
X0251326Y0248790D01*
X0252480Y0246792D02*
X0224170Y0246792D01*
X0226168Y0244793D02*
X0253633Y0244793D01*
X0253870Y0199400D02*
X0221762Y0199400D01*
X0239291Y0181872D01*
X0240600Y0178711D01*
X0240600Y0175289D01*
X0240600Y0169247D01*
X0241477Y0169482D01*
X0244255Y0169482D01*
X0246939Y0168763D01*
X0249346Y0167373D01*
X0251310Y0165409D01*
X0252478Y0163387D01*
X0253916Y0165877D01*
X0262439Y0174400D01*
X0260186Y0174400D01*
X0256681Y0175339D01*
X0253538Y0177153D01*
X0250972Y0179719D01*
X0249158Y0182862D01*
X0248219Y0186367D01*
X0248219Y0189995D01*
X0249158Y0193500D01*
X0250972Y0196643D01*
X0253538Y0199209D01*
X0253870Y0199400D01*
X0253157Y0198827D02*
X0222335Y0198827D01*
X0224333Y0196829D02*
X0251158Y0196829D01*
X0249926Y0194830D02*
X0226332Y0194830D01*
X0228330Y0192832D02*
X0248979Y0192832D01*
X0248443Y0190833D02*
X0230329Y0190833D01*
X0232327Y0188835D02*
X0248219Y0188835D01*
X0248219Y0186836D02*
X0234326Y0186836D01*
X0236324Y0184838D02*
X0248629Y0184838D01*
X0249171Y0182839D02*
X0238323Y0182839D01*
X0239718Y0180841D02*
X0250325Y0180841D01*
X0251849Y0178842D02*
X0240545Y0178842D01*
X0240600Y0176844D02*
X0254075Y0176844D01*
X0258524Y0174845D02*
X0240600Y0174845D01*
X0240600Y0172847D02*
X0260885Y0172847D01*
X0258887Y0170848D02*
X0240600Y0170848D01*
X0246615Y0168850D02*
X0256888Y0168850D01*
X0254890Y0166851D02*
X0249868Y0166851D01*
X0251631Y0164853D02*
X0253324Y0164853D01*
X0249400Y0150539D02*
X0249400Y0115206D01*
X0250940Y0109458D01*
X0253916Y0104304D01*
X0258123Y0100097D01*
X0263277Y0097121D01*
X0269025Y0095581D01*
X0274975Y0095581D01*
X0280723Y0097121D01*
X0285877Y0100097D01*
X0290084Y0104304D01*
X0292177Y0107930D01*
X0293284Y0106823D01*
X0296521Y0104954D01*
X0300131Y0103987D01*
X0303869Y0103987D01*
X0307479Y0104954D01*
X0310716Y0106823D01*
X0313358Y0109465D01*
X0315227Y0112702D01*
X0316194Y0116312D01*
X0316194Y0120050D01*
X0315227Y0123660D01*
X0313358Y0126897D01*
X0310716Y0129540D01*
X0307479Y0131408D01*
X0303869Y0132376D01*
X0300131Y0132376D01*
X0296521Y0131408D01*
X0294600Y0130299D01*
X0294600Y0142639D01*
X0317149Y0165187D01*
X0338302Y0165187D01*
X0338123Y0165084D01*
X0333916Y0160877D01*
X0330940Y0155723D01*
X0329400Y0149975D01*
X0329400Y0104497D01*
X0330940Y0098749D01*
X0333916Y0093596D01*
X0334607Y0092904D01*
X0209930Y0094563D01*
X0198554Y0097407D01*
X0189600Y0106361D01*
X0189600Y0127639D01*
X0191907Y0129946D01*
X0201184Y0130494D01*
X0201616Y0128880D01*
X0203083Y0126339D01*
X0205158Y0124264D01*
X0207699Y0122797D01*
X0210533Y0122038D01*
X0213467Y0122038D01*
X0216301Y0122797D01*
X0218842Y0124264D01*
X0220917Y0126339D01*
X0222384Y0128880D01*
X0223143Y0131714D01*
X0223143Y0132162D01*
X0236872Y0145890D01*
X0239291Y0148310D01*
X0239534Y0148897D01*
X0241477Y0148376D01*
X0244255Y0148376D01*
X0246939Y0149096D01*
X0249346Y0150485D01*
X0249400Y0150539D01*
X0249400Y0148865D02*
X0246077Y0148865D01*
X0249400Y0146866D02*
X0237847Y0146866D01*
X0239521Y0148865D02*
X0239655Y0148865D01*
X0235849Y0144868D02*
X0249400Y0144868D01*
X0249400Y0142869D02*
X0233850Y0142869D01*
X0231852Y0140870D02*
X0249400Y0140870D01*
X0249400Y0138872D02*
X0229853Y0138872D01*
X0227855Y0136873D02*
X0249400Y0136873D01*
X0249400Y0134875D02*
X0225856Y0134875D01*
X0223858Y0132876D02*
X0249400Y0132876D01*
X0249400Y0130878D02*
X0222919Y0130878D01*
X0222384Y0128879D02*
X0249400Y0128879D01*
X0249400Y0126881D02*
X0221230Y0126881D01*
X0219460Y0124882D02*
X0249400Y0124882D01*
X0249400Y0122884D02*
X0216451Y0122884D01*
X0207549Y0122884D02*
X0189600Y0122884D01*
X0189600Y0124882D02*
X0204540Y0124882D01*
X0202770Y0126881D02*
X0189600Y0126881D01*
X0190841Y0128879D02*
X0201616Y0128879D01*
X0212000Y0133181D02*
X0232000Y0153181D01*
X0232000Y0177000D01*
X0187000Y0222000D01*
X0142000Y0222000D01*
X0130396Y0220811D02*
X0124739Y0220811D01*
X0124200Y0222000D02*
X0121689Y0222000D01*
X0124200Y0222000D01*
X0124129Y0222809D02*
X0126118Y0222809D01*
X0123777Y0224808D02*
X0123246Y0224808D01*
X0121689Y0222000D02*
X0121689Y0222000D01*
X0117000Y0222809D02*
X0117000Y0222809D01*
X0117000Y0224808D02*
X0117000Y0224808D01*
X0127213Y0218812D02*
X0128398Y0218812D01*
X0102000Y0197000D02*
X0087000Y0212000D01*
X0077152Y0204823D02*
X0051057Y0204823D01*
X0051057Y0206821D02*
X0075612Y0206821D01*
X0074692Y0208820D02*
X0051057Y0208820D01*
X0051057Y0210818D02*
X0074200Y0210818D01*
X0074200Y0212817D02*
X0051057Y0212817D01*
X0051057Y0214815D02*
X0074595Y0214815D01*
X0075401Y0216814D02*
X0051057Y0216814D01*
X0051057Y0218812D02*
X0074694Y0218812D01*
X0074200Y0220811D02*
X0051057Y0220811D01*
X0051057Y0222809D02*
X0074200Y0222809D01*
X0074593Y0224808D02*
X0070533Y0224808D01*
X0071985Y0226806D02*
X0075397Y0226806D01*
X0074576Y0228805D02*
X0076780Y0228805D01*
X0076045Y0230803D02*
X0079248Y0230803D01*
X0067000Y0225537D02*
X0067000Y0223263D01*
X0067000Y0225537D01*
X0067000Y0225537D01*
X0067000Y0224808D02*
X0067000Y0224808D01*
X0063467Y0224808D02*
X0051057Y0224808D01*
X0051057Y0226806D02*
X0062015Y0226806D01*
X0059424Y0228805D02*
X0051057Y0228805D01*
X0051057Y0230803D02*
X0057955Y0230803D01*
X0057073Y0232802D02*
X0051057Y0232802D01*
X0051057Y0234801D02*
X0056600Y0234801D01*
X0056600Y0236799D02*
X0051057Y0236799D01*
X0051057Y0238798D02*
X0057000Y0238798D01*
X0057796Y0240796D02*
X0051057Y0240796D01*
X0051057Y0242795D02*
X0059150Y0242795D01*
X0058136Y0244793D02*
X0060562Y0244793D01*
X0051106Y0262780D02*
X0051057Y0262780D01*
X0051057Y0264778D02*
X0053105Y0264778D01*
X0055103Y0266777D02*
X0051057Y0266777D01*
X0051057Y0268775D02*
X0057876Y0268775D01*
X0063529Y0270774D02*
X0051057Y0270774D01*
X0051057Y0272772D02*
X0081333Y0272772D01*
X0080797Y0270774D02*
X0070471Y0270774D01*
X0073870Y0268775D02*
X0080739Y0268775D01*
X0081006Y0266777D02*
X0075637Y0266777D01*
X0076738Y0264778D02*
X0081639Y0264778D01*
X0082654Y0262780D02*
X0077273Y0262780D01*
X0082342Y0274771D02*
X0051057Y0274771D01*
X0051057Y0276769D02*
X0083971Y0276769D01*
X0086818Y0278768D02*
X0051057Y0278768D01*
X0051057Y0280766D02*
X0088013Y0280766D01*
X0086859Y0282765D02*
X0051057Y0282765D01*
X0051057Y0284763D02*
X0086315Y0284763D01*
X0086100Y0286762D02*
X0051057Y0286762D01*
X0051057Y0288760D02*
X0086187Y0288760D01*
X0086723Y0290759D02*
X0082684Y0290759D01*
X0084682Y0292757D02*
X0087738Y0292757D01*
X0086681Y0294756D02*
X0089341Y0294756D01*
X0087200Y0296754D02*
X0091831Y0296754D01*
X0091100Y0298753D02*
X0088178Y0298753D01*
X0090176Y0300751D02*
X0091100Y0300751D01*
X0082000Y0307000D02*
X0087000Y0312000D01*
X0087000Y0327000D01*
X0078310Y0318738D02*
X0065690Y0318738D01*
X0067761Y0320737D02*
X0076239Y0320737D01*
X0075084Y0322735D02*
X0068916Y0322735D01*
X0069552Y0324734D02*
X0074447Y0324734D01*
X0074200Y0326732D02*
X0069800Y0326732D01*
X0069696Y0328731D02*
X0074304Y0328731D01*
X0074839Y0330729D02*
X0069161Y0330729D01*
X0068911Y0332728D02*
X0075929Y0332728D01*
X0077701Y0334726D02*
X0069551Y0334726D01*
X0069800Y0336725D02*
X0079800Y0336725D01*
X0080123Y0338723D02*
X0069698Y0338723D01*
X0069163Y0340722D02*
X0081696Y0340722D01*
X0087000Y0340722D02*
X0087000Y0340722D01*
X0087000Y0338723D02*
X0087000Y0338723D01*
X0092304Y0340722D02*
X0095307Y0340722D01*
X0093874Y0342720D02*
X0068075Y0342720D01*
X0066306Y0344719D02*
X0092214Y0344719D01*
X0091700Y0346717D02*
X0062745Y0346717D01*
X0051255Y0346717D02*
X0051057Y0346717D01*
X0051057Y0348716D02*
X0091985Y0348716D01*
X0093219Y0350714D02*
X0051057Y0350714D01*
X0051057Y0352713D02*
X0127712Y0352713D01*
X0126711Y0350714D02*
X0100781Y0350714D01*
X0101043Y0350453D02*
X0100453Y0351043D01*
X0099778Y0351533D01*
X0099034Y0351912D01*
X0098241Y0352169D01*
X0097417Y0352300D01*
X0097100Y0352300D01*
X0097100Y0347100D01*
X0102300Y0347100D01*
X0102300Y0347417D01*
X0102169Y0348241D01*
X0101912Y0349034D01*
X0101533Y0349778D01*
X0101043Y0350453D01*
X0102015Y0348716D02*
X0126175Y0348716D01*
X0126100Y0346717D02*
X0102300Y0346717D01*
X0101786Y0344719D02*
X0126327Y0344719D01*
X0126885Y0342720D02*
X0106695Y0342720D01*
X0108693Y0340722D02*
X0125307Y0340722D01*
X0123308Y0338723D02*
X0110692Y0338723D01*
X0112690Y0336725D02*
X0121310Y0336725D01*
X0121100Y0334726D02*
X0112900Y0334726D01*
X0112900Y0332728D02*
X0121100Y0332728D01*
X0121100Y0330729D02*
X0112900Y0330729D01*
X0112900Y0328731D02*
X0121100Y0328731D01*
X0121853Y0326732D02*
X0112147Y0326732D01*
X0110148Y0324734D02*
X0123852Y0324734D01*
X0125850Y0322735D02*
X0108150Y0322735D01*
X0107283Y0320737D02*
X0126717Y0320737D01*
X0126181Y0318738D02*
X0107819Y0318738D01*
X0107900Y0316739D02*
X0126100Y0316739D01*
X0126321Y0314741D02*
X0107679Y0314741D01*
X0107128Y0312742D02*
X0126872Y0312742D01*
X0125329Y0310744D02*
X0108671Y0310744D01*
X0110669Y0308745D02*
X0123331Y0308745D01*
X0121332Y0306747D02*
X0112668Y0306747D01*
X0112900Y0304748D02*
X0121100Y0304748D01*
X0121100Y0302750D02*
X0112900Y0302750D01*
X0112900Y0300751D02*
X0121100Y0300751D01*
X0121100Y0298753D02*
X0112900Y0298753D01*
X0112169Y0296754D02*
X0121831Y0296754D01*
X0123829Y0294756D02*
X0110171Y0294756D01*
X0108172Y0292757D02*
X0125828Y0292757D01*
X0126723Y0290759D02*
X0107277Y0290759D01*
X0107813Y0288760D02*
X0126187Y0288760D01*
X0126100Y0286762D02*
X0107900Y0286762D01*
X0107685Y0284763D02*
X0126315Y0284763D01*
X0126859Y0282765D02*
X0107141Y0282765D01*
X0105987Y0280766D02*
X0128013Y0280766D01*
X0129817Y0278768D02*
X0104183Y0278768D01*
X0130002Y0276769D02*
X0130073Y0276769D01*
X0170620Y0312742D02*
X0171862Y0312742D01*
X0172406Y0342720D02*
X0170610Y0342720D01*
X0181436Y0342720D02*
X0185465Y0342720D01*
X0197905Y0342720D02*
X0197997Y0342720D01*
X0267841Y0340722D02*
X0281264Y0340722D01*
X0279709Y0338723D02*
X0270947Y0338723D01*
X0272946Y0336725D02*
X0278155Y0336725D01*
X0276600Y0334726D02*
X0274134Y0334726D01*
X0183438Y0213400D02*
X0177900Y0213400D01*
X0177900Y0207900D01*
X0178435Y0207900D01*
X0181207Y0207157D01*
X0183693Y0205722D01*
X0185722Y0203693D01*
X0187157Y0201207D01*
X0187900Y0198435D01*
X0187900Y0195565D01*
X0187157Y0192793D01*
X0185722Y0190307D01*
X0183693Y0188278D01*
X0181207Y0186843D01*
X0178435Y0186100D01*
X0175565Y0186100D01*
X0172793Y0186843D01*
X0172271Y0187144D01*
X0172900Y0186515D01*
X0172900Y0177485D01*
X0166515Y0171100D01*
X0158460Y0171100D01*
X0160819Y0169738D01*
X0162848Y0167709D01*
X0163909Y0165871D01*
X0165548Y0167509D01*
X0167081Y0169235D01*
X0167646Y0169607D01*
X0168123Y0170084D01*
X0170122Y0171239D01*
X0172050Y0172509D01*
X0172692Y0172722D01*
X0173277Y0173060D01*
X0175507Y0173657D01*
X0177697Y0174385D01*
X0178372Y0174425D01*
X0179025Y0174600D01*
X0181333Y0174600D01*
X0203638Y0175917D01*
X0206846Y0175257D01*
X0206863Y0175309D01*
X0207259Y0176086D01*
X0207772Y0176792D01*
X0208389Y0177409D01*
X0209095Y0177922D01*
X0209872Y0178318D01*
X0210702Y0178588D01*
X0211564Y0178724D01*
X0211848Y0178724D01*
X0211848Y0173525D01*
X0212152Y0173373D01*
X0212152Y0178724D01*
X0212436Y0178724D01*
X0213298Y0178588D01*
X0214128Y0178318D01*
X0214905Y0177922D01*
X0215611Y0177409D01*
X0216228Y0176792D01*
X0216741Y0176086D01*
X0217137Y0175309D01*
X0217407Y0174479D01*
X0217543Y0173617D01*
X0217543Y0173333D01*
X0212232Y0173333D01*
X0212837Y0173030D01*
X0217543Y0173030D01*
X0217543Y0172745D01*
X0217407Y0171883D01*
X0217137Y0171053D01*
X0216755Y0170303D01*
X0219235Y0168100D01*
X0222509Y0163131D01*
X0223400Y0160449D01*
X0223400Y0173438D01*
X0183438Y0213400D01*
X0184021Y0212817D02*
X0177900Y0212817D01*
X0177900Y0210818D02*
X0186019Y0210818D01*
X0188018Y0208820D02*
X0177900Y0208820D01*
X0181789Y0206821D02*
X0190016Y0206821D01*
X0192015Y0204823D02*
X0184592Y0204823D01*
X0186224Y0202824D02*
X0194013Y0202824D01*
X0196012Y0200826D02*
X0187259Y0200826D01*
X0187795Y0198827D02*
X0198010Y0198827D01*
X0200009Y0196829D02*
X0187900Y0196829D01*
X0187703Y0194830D02*
X0202007Y0194830D01*
X0204006Y0192832D02*
X0187168Y0192832D01*
X0186026Y0190833D02*
X0206004Y0190833D01*
X0208003Y0188835D02*
X0184250Y0188835D01*
X0181183Y0186836D02*
X0210002Y0186836D01*
X0212000Y0184838D02*
X0172900Y0184838D01*
X0172900Y0182839D02*
X0213999Y0182839D01*
X0215997Y0180841D02*
X0172900Y0180841D01*
X0172900Y0178842D02*
X0217996Y0178842D01*
X0216177Y0176844D02*
X0219994Y0176844D01*
X0221993Y0174845D02*
X0217288Y0174845D01*
X0217543Y0172847D02*
X0223400Y0172847D01*
X0223400Y0170848D02*
X0217033Y0170848D01*
X0218391Y0168850D02*
X0223400Y0168850D01*
X0223400Y0166851D02*
X0220058Y0166851D01*
X0221374Y0164853D02*
X0223400Y0164853D01*
X0223400Y0162854D02*
X0222601Y0162854D01*
X0223265Y0160856D02*
X0223400Y0160856D01*
X0212152Y0174845D02*
X0211848Y0174845D01*
X0211848Y0176844D02*
X0212152Y0176844D01*
X0207823Y0176844D02*
X0172259Y0176844D01*
X0170260Y0174845D02*
X0185485Y0174845D01*
X0172908Y0172847D02*
X0168262Y0172847D01*
X0169446Y0170848D02*
X0158896Y0170848D01*
X0161707Y0168850D02*
X0166739Y0168850D01*
X0164890Y0166851D02*
X0163343Y0166851D01*
X0155738Y0172847D02*
X0138262Y0172847D01*
X0140260Y0174845D02*
X0153740Y0174845D01*
X0151741Y0176844D02*
X0142259Y0176844D01*
X0142900Y0178842D02*
X0151100Y0178842D01*
X0151100Y0180841D02*
X0142900Y0180841D01*
X0142900Y0182839D02*
X0151100Y0182839D01*
X0151100Y0184838D02*
X0142900Y0184838D01*
X0142579Y0186836D02*
X0151421Y0186836D01*
X0153420Y0188835D02*
X0144250Y0188835D01*
X0146026Y0190833D02*
X0155418Y0190833D01*
X0157417Y0192832D02*
X0147168Y0192832D01*
X0147703Y0194830D02*
X0166297Y0194830D01*
X0166583Y0192832D02*
X0166832Y0192832D01*
X0172579Y0186836D02*
X0172817Y0186836D01*
X0149356Y0170848D02*
X0118896Y0170848D01*
X0119772Y0172847D02*
X0125738Y0172847D01*
X0123740Y0174845D02*
X0121770Y0174845D01*
X0121707Y0168850D02*
X0146545Y0168850D01*
X0144909Y0166851D02*
X0123343Y0166851D01*
X0124382Y0164853D02*
X0143870Y0164853D01*
X0143334Y0162854D02*
X0124918Y0162854D01*
X0125026Y0160856D02*
X0143226Y0160856D01*
X0143420Y0158857D02*
X0124832Y0158857D01*
X0124297Y0156859D02*
X0143955Y0156859D01*
X0145094Y0154860D02*
X0123158Y0154860D01*
X0121387Y0152862D02*
X0146865Y0152862D01*
X0148908Y0150863D02*
X0118341Y0150863D01*
X0109911Y0150863D02*
X0051057Y0150863D01*
X0051057Y0148865D02*
X0147754Y0148865D01*
X0146600Y0146866D02*
X0051057Y0146866D01*
X0051057Y0144868D02*
X0145711Y0144868D01*
X0145175Y0142869D02*
X0051057Y0142869D01*
X0051057Y0140870D02*
X0144640Y0140870D01*
X0144400Y0138872D02*
X0051057Y0138872D01*
X0051057Y0136873D02*
X0144400Y0136873D01*
X0144400Y0134875D02*
X0051057Y0134875D01*
X0051057Y0132876D02*
X0144400Y0132876D01*
X0144400Y0130878D02*
X0051057Y0130878D01*
X0051057Y0128879D02*
X0144400Y0128879D01*
X0144400Y0126881D02*
X0051057Y0126881D01*
X0051057Y0124882D02*
X0144400Y0124882D01*
X0144400Y0122884D02*
X0051057Y0122884D01*
X0051057Y0120885D02*
X0144400Y0120885D01*
X0144400Y0118887D02*
X0051057Y0118887D01*
X0051057Y0116888D02*
X0144400Y0116888D01*
X0144400Y0114890D02*
X0051057Y0114890D01*
X0051057Y0112891D02*
X0144400Y0112891D01*
X0144400Y0110893D02*
X0051057Y0110893D01*
X0051057Y0108894D02*
X0144400Y0108894D01*
X0144400Y0106896D02*
X0051057Y0106896D01*
X0051057Y0104897D02*
X0144400Y0104897D01*
X0144400Y0102899D02*
X0051057Y0102899D01*
X0051057Y0100900D02*
X0144400Y0100900D01*
X0144400Y0098902D02*
X0051057Y0098902D01*
X0051057Y0096903D02*
X0144400Y0096903D01*
X0144400Y0094905D02*
X0051057Y0094905D01*
X0051057Y0092906D02*
X0144700Y0092906D01*
X0145235Y0090908D02*
X0051057Y0090908D01*
X0051057Y0088909D02*
X0145771Y0088909D01*
X0146729Y0086911D02*
X0051057Y0086911D01*
X0051057Y0084912D02*
X0147883Y0084912D01*
X0149125Y0082914D02*
X0051057Y0082914D01*
X0051057Y0080915D02*
X0151124Y0080915D01*
X0153122Y0078917D02*
X0051057Y0078917D01*
X0051057Y0076918D02*
X0155121Y0076918D01*
X0157119Y0074920D02*
X0051057Y0074920D01*
X0051057Y0072921D02*
X0159118Y0072921D01*
X0161116Y0070923D02*
X0051057Y0070923D01*
X0051057Y0068924D02*
X0163115Y0068924D01*
X0165113Y0066926D02*
X0051057Y0066926D01*
X0051057Y0064927D02*
X0167112Y0064927D01*
X0169087Y0062929D02*
X0051057Y0062929D01*
X0051057Y0060930D02*
X0171107Y0060930D01*
X0173107Y0058932D02*
X0051057Y0058932D01*
X0051057Y0056933D02*
X0176557Y0056933D01*
X0182030Y0054934D02*
X0051057Y0054934D01*
X0051057Y0052936D02*
X0190074Y0052936D01*
X0198068Y0050937D02*
X0051057Y0050937D01*
X0051057Y0048939D02*
X0241503Y0048939D01*
X0208563Y0094905D02*
X0333160Y0094905D01*
X0332006Y0096903D02*
X0279910Y0096903D01*
X0283807Y0098902D02*
X0330899Y0098902D01*
X0330364Y0100900D02*
X0286680Y0100900D01*
X0288679Y0102899D02*
X0329828Y0102899D01*
X0329400Y0104897D02*
X0307267Y0104897D01*
X0310789Y0106896D02*
X0329400Y0106896D01*
X0329400Y0108894D02*
X0312787Y0108894D01*
X0314182Y0110893D02*
X0329400Y0110893D01*
X0329400Y0112891D02*
X0315278Y0112891D01*
X0315813Y0114890D02*
X0329400Y0114890D01*
X0329400Y0116888D02*
X0316194Y0116888D01*
X0316194Y0118887D02*
X0329400Y0118887D01*
X0329400Y0120885D02*
X0315971Y0120885D01*
X0315435Y0122884D02*
X0329400Y0122884D01*
X0329400Y0124882D02*
X0314521Y0124882D01*
X0313368Y0126881D02*
X0329400Y0126881D01*
X0329400Y0128879D02*
X0311376Y0128879D01*
X0308397Y0130878D02*
X0329400Y0130878D01*
X0329400Y0132876D02*
X0294600Y0132876D01*
X0294600Y0130878D02*
X0295603Y0130878D01*
X0294600Y0134875D02*
X0329400Y0134875D01*
X0329400Y0136873D02*
X0294600Y0136873D01*
X0294600Y0138872D02*
X0329400Y0138872D01*
X0329400Y0140870D02*
X0294600Y0140870D01*
X0294830Y0142869D02*
X0329400Y0142869D01*
X0329400Y0144868D02*
X0296829Y0144868D01*
X0298827Y0146866D02*
X0329400Y0146866D01*
X0329400Y0148865D02*
X0300826Y0148865D01*
X0302824Y0150863D02*
X0329638Y0150863D01*
X0330173Y0152862D02*
X0304823Y0152862D01*
X0306821Y0154860D02*
X0330709Y0154860D01*
X0331596Y0156859D02*
X0308820Y0156859D01*
X0310818Y0158857D02*
X0332749Y0158857D01*
X0333903Y0160856D02*
X0312817Y0160856D01*
X0314815Y0162854D02*
X0335893Y0162854D01*
X0337891Y0164853D02*
X0316814Y0164853D01*
X0249400Y0120885D02*
X0189600Y0120885D01*
X0189600Y0118887D02*
X0249400Y0118887D01*
X0249400Y0116888D02*
X0189600Y0116888D01*
X0189600Y0114890D02*
X0249485Y0114890D01*
X0250020Y0112891D02*
X0189600Y0112891D01*
X0189600Y0110893D02*
X0250556Y0110893D01*
X0251266Y0108894D02*
X0189600Y0108894D01*
X0189600Y0106896D02*
X0252419Y0106896D01*
X0253573Y0104897D02*
X0191064Y0104897D01*
X0193062Y0102899D02*
X0255321Y0102899D01*
X0257320Y0100900D02*
X0195061Y0100900D01*
X0197059Y0098902D02*
X0260193Y0098902D01*
X0264090Y0096903D02*
X0200569Y0096903D01*
X0290427Y0104897D02*
X0296733Y0104897D01*
X0293211Y0106896D02*
X0291581Y0106896D01*
X0334459Y0092906D02*
X0334605Y0092906D01*
X0373467Y0062929D02*
X0373652Y0062929D01*
X0373652Y0060930D02*
X0372860Y0060930D01*
X0373652Y0058932D02*
X0371670Y0058932D01*
X0370481Y0056933D02*
X0373652Y0056933D01*
X0373652Y0054934D02*
X0368850Y0054934D01*
X0366798Y0052936D02*
X0373652Y0052936D01*
X0373652Y0050937D02*
X0364088Y0050937D01*
X0360518Y0048939D02*
X0373652Y0048939D01*
X0373652Y0046940D02*
X0051057Y0046940D01*
X0051057Y0152862D02*
X0106865Y0152862D01*
X0105094Y0154860D02*
X0051057Y0154860D01*
X0051057Y0156859D02*
X0103955Y0156859D01*
X0103420Y0158857D02*
X0051057Y0158857D01*
X0051057Y0160856D02*
X0103226Y0160856D01*
X0103334Y0162854D02*
X0051057Y0162854D01*
X0051057Y0164853D02*
X0103870Y0164853D01*
X0104909Y0166851D02*
X0051057Y0166851D01*
X0051057Y0168850D02*
X0106545Y0168850D01*
X0106227Y0170848D02*
X0051057Y0170848D01*
X0051057Y0172847D02*
X0104228Y0172847D01*
X0102230Y0174845D02*
X0051057Y0174845D01*
X0051057Y0176844D02*
X0101800Y0176844D01*
X0101800Y0178842D02*
X0051057Y0178842D01*
X0051057Y0180841D02*
X0101800Y0180841D01*
X0101800Y0182839D02*
X0051057Y0182839D01*
X0051057Y0184838D02*
X0102657Y0184838D01*
X0102400Y0186836D02*
X0051057Y0186836D01*
X0051057Y0188835D02*
X0099240Y0188835D01*
X0096004Y0190833D02*
X0051057Y0190833D01*
X0051057Y0192832D02*
X0094006Y0192832D01*
X0092007Y0194830D02*
X0051057Y0194830D01*
X0051057Y0196829D02*
X0090009Y0196829D01*
X0088010Y0198827D02*
X0051057Y0198827D01*
X0051057Y0200826D02*
X0086012Y0200826D01*
X0079893Y0202824D02*
X0051057Y0202824D01*
X0105075Y0187000D02*
X0105075Y0187000D01*
X0071316Y0290759D02*
X0051057Y0290759D01*
X0051057Y0292757D02*
X0069318Y0292757D01*
X0067319Y0294756D02*
X0051057Y0294756D01*
X0051057Y0296754D02*
X0066800Y0296754D01*
X0066800Y0298753D02*
X0051057Y0298753D01*
X0051057Y0300751D02*
X0066800Y0300751D01*
X0066800Y0302750D02*
X0051057Y0302750D01*
X0051057Y0304748D02*
X0067746Y0304748D01*
X0067400Y0306747D02*
X0051057Y0306747D01*
X0051057Y0308745D02*
X0067400Y0308745D01*
X0069239Y0310744D02*
X0051057Y0310744D01*
X0051057Y0312742D02*
X0073317Y0312742D01*
X0075316Y0314741D02*
X0051057Y0314741D01*
X0051057Y0316739D02*
X0077315Y0316739D01*
X0070075Y0307000D02*
X0070075Y0307000D01*
X0096900Y0348716D02*
X0097100Y0348716D01*
X0097100Y0350714D02*
X0096900Y0350714D01*
D23*
X0166094Y0333142D03*
X0176921Y0333142D03*
X0179874Y0322315D03*
X0192669Y0324283D03*
X0191685Y0334126D03*
X0202512Y0333142D03*
X0166094Y0322315D03*
X0177906Y0299677D03*
X0187748Y0301646D03*
X0188732Y0290819D03*
X0178890Y0288850D03*
X0168063Y0289835D03*
X0169047Y0279008D03*
X0177906Y0272118D03*
X0186764Y0267197D03*
X0179874Y0261291D03*
X0174953Y0251449D03*
X0185780Y0249480D03*
X0192669Y0257354D03*
X0196606Y0247512D03*
X0206449Y0245543D03*
X0201528Y0237669D03*
X0191685Y0238654D03*
X0197591Y0227827D03*
X0208417Y0227827D03*
X0213339Y0235701D03*
X0220228Y0231764D03*
X0218260Y0223890D03*
X0208417Y0217984D03*
X0219244Y0215031D03*
X0230071Y0213063D03*
X0231055Y0222906D03*
X0241882Y0221921D03*
X0241882Y0213063D03*
X0252709Y0213063D03*
X0251724Y0220937D03*
X0262551Y0222906D03*
X0271409Y0222906D03*
X0275346Y0225858D03*
X0282236Y0223890D03*
X0291094Y0223890D03*
X0289126Y0232748D03*
X0280268Y0232748D03*
X0270425Y0232748D03*
X0260583Y0232748D03*
X0249756Y0231764D03*
X0240898Y0231764D03*
X0231055Y0232748D03*
X0246803Y0248496D03*
X0237945Y0253417D03*
X0246803Y0259323D03*
X0237945Y0264244D03*
X0228102Y0263260D03*
X0228102Y0252433D03*
X0245819Y0272118D03*
X0246803Y0285898D03*
X0245819Y0298693D03*
X0246803Y0311488D03*
X0265504Y0296724D03*
X0270425Y0288850D03*
X0273378Y0279992D03*
X0263535Y0279992D03*
X0269441Y0271134D03*
X0279283Y0270150D03*
X0281252Y0287866D03*
X0286173Y0296724D03*
X0290110Y0305583D03*
X0281252Y0306567D03*
X0271409Y0306567D03*
X0276331Y0296724D03*
X0297984Y0312472D03*
X0289126Y0315425D03*
X0294047Y0324283D03*
X0285189Y0325268D03*
X0291094Y0333142D03*
X0299953Y0331173D03*
X0297000Y0340031D03*
X0305858Y0339047D03*
X0314717Y0336094D03*
X0317669Y0343969D03*
X0327512Y0345937D03*
X0325543Y0336094D03*
X0329480Y0327236D03*
X0319638Y0327236D03*
X0309795Y0328220D03*
X0303890Y0320346D03*
X0278299Y0316409D03*
X0279283Y0350858D03*
X0267472Y0350858D03*
X0256646Y0350858D03*
X0245819Y0350858D03*
X0305858Y0347906D03*
X0337354Y0336094D03*
X0339323Y0345937D03*
X0341291Y0326252D03*
X0317669Y0231764D03*
X0308811Y0232748D03*
X0298969Y0232748D03*
X0301921Y0223890D03*
X0312748Y0222906D03*
X0321606Y0219953D03*
X0327512Y0227827D03*
X0335386Y0222906D03*
X0337354Y0230780D03*
X0331449Y0215031D03*
X0343260Y0214047D03*
X0339323Y0196331D03*
X0329480Y0196331D03*
X0319638Y0188457D03*
X0313732Y0195346D03*
X0308811Y0185504D03*
X0302906Y0193378D03*
X0297984Y0181567D03*
X0297984Y0172709D03*
X0289126Y0169756D03*
X0281252Y0163850D03*
X0279283Y0172709D03*
X0288142Y0179598D03*
X0308811Y0175661D03*
X0321606Y0179598D03*
X0331449Y0178614D03*
X0329480Y0187472D03*
X0338339Y0187472D03*
X0341291Y0178614D03*
X0318654Y0154008D03*
X0307827Y0153024D03*
X0303890Y0140228D03*
X0313732Y0140228D03*
X0323575Y0140228D03*
X0323575Y0129402D03*
X0323575Y0118575D03*
X0323575Y0108732D03*
X0323575Y0097906D03*
X0327512Y0079205D03*
X0333417Y0072315D03*
X0341291Y0079205D03*
X0342276Y0060504D03*
X0332433Y0061488D03*
X0321606Y0067394D03*
X0314717Y0061488D03*
X0309795Y0070346D03*
X0317669Y0078220D03*
X0300937Y0077236D03*
X0293063Y0071331D03*
X0291094Y0062472D03*
X0302906Y0061488D03*
X0281252Y0077236D03*
X0279283Y0066409D03*
X0270425Y0071331D03*
X0267472Y0062472D03*
X0255661Y0067394D03*
X0245819Y0062472D03*
X0239913Y0069362D03*
X0246803Y0075268D03*
X0259598Y0076252D03*
X0248772Y0098890D03*
X0235976Y0099874D03*
X0223181Y0111685D03*
X0218260Y0100858D03*
X0206449Y0097906D03*
X0206449Y0109717D03*
X0198575Y0118575D03*
X0174953Y0108732D03*
X0165110Y0107748D03*
X0158220Y0119559D03*
X0158220Y0131370D03*
X0160189Y0143181D03*
X0171016Y0149087D03*
X0181843Y0146134D03*
X0191685Y0144165D03*
X0189717Y0154008D03*
X0179874Y0159913D03*
X0170031Y0120543D03*
X0172984Y0097906D03*
X0162157Y0095937D03*
X0172000Y0087079D03*
X0180858Y0076252D03*
X0190701Y0078220D03*
X0192669Y0068378D03*
X0202512Y0077236D03*
X0206449Y0065425D03*
X0220228Y0064441D03*
X0230071Y0064441D03*
X0230071Y0076252D03*
X0217276Y0078220D03*
X0184795Y0092000D03*
X0149362Y0073299D03*
X0138535Y0074283D03*
X0128693Y0075268D03*
X0118850Y0075268D03*
X0109008Y0075268D03*
X0098181Y0075268D03*
X0087354Y0075268D03*
X0078496Y0075268D03*
X0068654Y0075268D03*
X0058811Y0075268D03*
X0058811Y0085110D03*
X0068654Y0085110D03*
X0078496Y0085110D03*
X0086370Y0085110D03*
X0096213Y0086094D03*
X0106055Y0094953D03*
X0107039Y0086094D03*
X0116882Y0086094D03*
X0125740Y0086094D03*
X0125740Y0094953D03*
X0115898Y0094953D03*
X0113929Y0106764D03*
X0104087Y0106764D03*
X0094244Y0106764D03*
X0084402Y0106764D03*
X0074559Y0106764D03*
X0063732Y0106764D03*
X0054874Y0106764D03*
X0054874Y0095937D03*
X0064717Y0095937D03*
X0075543Y0095937D03*
X0084402Y0095937D03*
X0096213Y0095937D03*
X0093260Y0117591D03*
X0083417Y0117591D03*
X0074559Y0117591D03*
X0063732Y0118575D03*
X0063732Y0131370D03*
X0074559Y0131370D03*
X0083417Y0131370D03*
X0093260Y0131370D03*
X0103102Y0131370D03*
X0111961Y0131370D03*
X0121803Y0131370D03*
X0132630Y0131370D03*
X0135583Y0116606D03*
X0134598Y0105780D03*
X0123772Y0106764D03*
X0123772Y0116606D03*
X0113929Y0117591D03*
X0104087Y0117591D03*
X0135583Y0094953D03*
X0135583Y0086094D03*
X0140504Y0062472D03*
X0150346Y0062472D03*
X0149362Y0052630D03*
X0159205Y0052630D03*
X0138535Y0052630D03*
X0128693Y0052630D03*
X0119835Y0052630D03*
X0109992Y0052630D03*
X0109992Y0061488D03*
X0099165Y0061488D03*
X0090307Y0062472D03*
X0090307Y0052630D03*
X0080465Y0052630D03*
X0080465Y0062472D03*
X0070622Y0061488D03*
X0070622Y0052630D03*
X0059795Y0052630D03*
X0060780Y0061488D03*
X0100150Y0052630D03*
X0120819Y0062472D03*
X0130661Y0062472D03*
X0229087Y0126449D03*
X0241882Y0125465D03*
X0245819Y0115622D03*
X0234992Y0113654D03*
X0231055Y0137276D03*
X0241882Y0137276D03*
X0240898Y0149087D03*
X0242866Y0158929D03*
X0243850Y0167787D03*
X0241882Y0180583D03*
X0234992Y0194362D03*
X0263535Y0214047D03*
X0274362Y0214047D03*
X0286173Y0214047D03*
X0295031Y0214047D03*
X0304874Y0214047D03*
X0313732Y0213063D03*
X0270425Y0163850D03*
X0275346Y0154008D03*
X0269441Y0145150D03*
X0280268Y0144165D03*
X0286173Y0154008D03*
X0293063Y0161882D03*
X0263535Y0154992D03*
X0263535Y0135307D03*
X0279283Y0134323D03*
X0341291Y0137276D03*
X0341291Y0128417D03*
X0351134Y0127433D03*
X0360976Y0128417D03*
X0360976Y0137276D03*
X0351134Y0137276D03*
X0341291Y0119559D03*
X0361961Y0118575D03*
X0185780Y0279008D03*
X0169047Y0264244D03*
X0146409Y0268181D03*
X0146409Y0257354D03*
X0147394Y0247512D03*
X0134598Y0247512D03*
X0123772Y0247512D03*
X0112945Y0247512D03*
X0103102Y0247512D03*
X0093260Y0247512D03*
X0092276Y0258339D03*
X0102118Y0258339D03*
X0111961Y0258339D03*
X0124756Y0258339D03*
X0134598Y0258339D03*
X0134598Y0267197D03*
X0123772Y0268181D03*
X0111961Y0268181D03*
X0101134Y0268181D03*
X0091291Y0269165D03*
M02*
