%
M48
M72
T01C0.01378
T02C0.03150
T03C0.03200
T04C0.03937
T05C0.04400
T06C0.04606
T07C0.05512
T08C0.08110
T09C0.08622
%
T01
X166094Y129402
X167000Y137000
X174953Y137276
X52489Y252000
T02
X67000Y253063
X67000Y260937
X67000Y235937
X67000Y228063
T03
X87000Y222000
X87000Y212000
X117000Y212000
X117000Y222000
X137000Y212000
X167000Y212000
X162000Y182000
X132000Y182000
X117000Y187000
X112000Y179500
X107000Y187000
X102000Y302000
X82000Y307000
X77000Y299500
X72000Y307000
X57000Y327000
X57000Y337000
X87000Y337000
X87000Y327000
X102000Y332000
X132000Y332000
X132000Y302000
T04
X59795Y52630
X60780Y61488
X70622Y61488
X70622Y52630
X80465Y52630
X90307Y52630
X90307Y62472
X99165Y61488
X100150Y52630
X109992Y52630
X109992Y61488
X120819Y62472
X130661Y62472
X128693Y52630
X119835Y52630
X138535Y52630
X140504Y62472
X150346Y62472
X149362Y52630
X159205Y52630
X149362Y73299
X138535Y74283
X128693Y75268
X118850Y75268
X109008Y75268
X98181Y75268
X87354Y75268
X78496Y75268
X68654Y75268
X58811Y75268
X58811Y85110
X68654Y85110
X78496Y85110
X86370Y85110
X96213Y86094
X106055Y94953
X107039Y86094
X116882Y86094
X125740Y86094
X125740Y94953
X115898Y94953
X113929Y106764
X104087Y106764
X94244Y106764
X84402Y106764
X74559Y106764
X63732Y106764
X54874Y106764
X54874Y95937
X64717Y95937
X75543Y95937
X84402Y95937
X96213Y95937
X93260Y117591
X83417Y117591
X74559Y117591
X63732Y118575
X63732Y131370
X74559Y131370
X83417Y131370
X93260Y131370
X103102Y131370
X111961Y131370
X121803Y131370
X132630Y131370
X135583Y116606
X134598Y105780
X123772Y106764
X123772Y116606
X113929Y117591
X104087Y117591
X135583Y94953
X135583Y86094
X162157Y95937
X172984Y97906
X172000Y87079
X180858Y76252
X190701Y78220
X192669Y68378
X202512Y77236
X206449Y65425
X220228Y64441
X230071Y64441
X239913Y69362
X246803Y75268
X255661Y67394
X245819Y62472
X259598Y76252
X270425Y71331
X267472Y62472
X279283Y66409
X281252Y77236
X293063Y71331
X291094Y62472
X302906Y61488
X309795Y70346
X314717Y61488
X321606Y67394
X332433Y61488
X342276Y60504
X333417Y72315
X327512Y79205
X317669Y78220
X300937Y77236
X323575Y97906
X323575Y108732
X323575Y118575
X323575Y129402
X323575Y140228
X313732Y140228
X303890Y140228
X307827Y153024
X318654Y154008
X293063Y161882
X289126Y169756
X281252Y163850
X279283Y172709
X288142Y179598
X297984Y181567
X297984Y172709
X308811Y175661
X308811Y185504
X302906Y193378
X313732Y195346
X319638Y188457
X321606Y179598
X331449Y178614
X329480Y187472
X338339Y187472
X341291Y178614
X339323Y196331
X329480Y196331
X331449Y215031
X335386Y222906
X337354Y230780
X327512Y227827
X321606Y219953
X312748Y222906
X313732Y213063
X304874Y214047
X295031Y214047
X286173Y214047
X282236Y223890
X275346Y225858
X271409Y222906
X262551Y222906
X263535Y214047
X274362Y214047
X291094Y223890
X289126Y232748
X280268Y232748
X270425Y232748
X260583Y232748
X249756Y231764
X240898Y231764
X231055Y232748
X220228Y231764
X213339Y235701
X208417Y227827
X218260Y223890
X208417Y217984
X219244Y215031
X230071Y213063
X231055Y222906
X241882Y221921
X241882Y213063
X252709Y213063
X251724Y220937
X246803Y248496
X237945Y253417
X246803Y259323
X237945Y264244
X228102Y263260
X228102Y252433
X206449Y245543
X201528Y237669
X191685Y238654
X197591Y227827
X196606Y247512
X192669Y257354
X185780Y249480
X174953Y251449
X179874Y261291
X186764Y267197
X177906Y272118
X185780Y279008
X178890Y288850
X188732Y290819
X187748Y301646
X177906Y299677
X168063Y289835
X169047Y279008
X169047Y264244
X146409Y268181
X146409Y257354
X147394Y247512
X134598Y247512
X123772Y247512
X112945Y247512
X103102Y247512
X93260Y247512
X92276Y258339
X102118Y258339
X111961Y258339
X124756Y258339
X134598Y258339
X134598Y267197
X123772Y268181
X111961Y268181
X101134Y268181
X91291Y269165
X166094Y322315
X166094Y333142
X176921Y333142
X179874Y322315
X192669Y324283
X191685Y334126
X202512Y333142
X245819Y350858
X256646Y350858
X267472Y350858
X279283Y350858
X297000Y340031
X305858Y339047
X314717Y336094
X317669Y343969
X327512Y345937
X325543Y336094
X329480Y327236
X319638Y327236
X309795Y328220
X303890Y320346
X297984Y312472
X289126Y315425
X294047Y324283
X285189Y325268
X291094Y333142
X299953Y331173
X305858Y347906
X337354Y336094
X339323Y345937
X341291Y326252
X290110Y305583
X281252Y306567
X271409Y306567
X276331Y296724
X286173Y296724
X281252Y287866
X273378Y279992
X270425Y288850
X265504Y296724
X263535Y279992
X269441Y271134
X279283Y270150
X245819Y272118
X246803Y285898
X245819Y298693
X246803Y311488
X278299Y316409
X298969Y232748
X301921Y223890
X308811Y232748
X317669Y231764
X343260Y214047
X286173Y154008
X280268Y144165
X269441Y145150
X275346Y154008
X263535Y154992
X270425Y163850
X243850Y167787
X242866Y158929
X240898Y149087
X241882Y137276
X231055Y137276
X229087Y126449
X241882Y125465
X245819Y115622
X234992Y113654
X223181Y111685
X218260Y100858
X206449Y97906
X206449Y109717
X198575Y118575
X174953Y108732
X165110Y107748
X158220Y119559
X158220Y131370
X160189Y143181
X171016Y149087
X181843Y146134
X191685Y144165
X189717Y154008
X179874Y159913
X170031Y120543
X184795Y92000
X217276Y78220
X230071Y76252
X248772Y98890
X235976Y99874
X263535Y135307
X279283Y134323
X241882Y180583
X234992Y194362
X341291Y137276
X341291Y128417
X351134Y127433
X360976Y128417
X360976Y137276
X351134Y137276
X341291Y119559
X361961Y118575
X341291Y79205
X80465Y62472
T05
X114126Y161016
X154126Y161016
X137000Y197000
X177000Y197000
X172000Y232000
X132000Y232000
X137000Y287000
X137000Y317000
X137000Y347000
X97000Y347000
X97000Y317000
X97000Y287000
T06
X212000Y273181
X212000Y313181
X212000Y173181
X212000Y133181
T07
X352000Y150386
X352000Y187787
X352000Y225189
X352000Y262591
X352000Y299598
X352000Y337000
X352000Y107472
X352000Y70071
T08
X262000Y188181
X202000Y153181
X202000Y293181
X262000Y328181
T09
X272000Y258181
X302000Y258181
X302000Y118181
X272000Y118181
M30
