G75*
%MOIN*%
%OFA0B0*%
%FSLAX25Y25*%
%IPPOS*%
%LPD*%
%AMOC8*
5,1,8,0,0,1.08239X$1,22.5*
%
%ADD10C,0.00787*%
%ADD11C,0.00600*%
%ADD12C,0.00500*%
%ADD13R,0.02000X0.10000*%
%ADD14R,0.07500X0.03000*%
%ADD15C,0.00400*%
%ADD16R,0.01500X0.02000*%
D10*
X0043063Y0041803D02*
X0047000Y0037866D01*
X0377709Y0037866D01*
X0381646Y0041803D01*
X0381646Y0351843D01*
X0371803Y0361685D01*
X0044047Y0361685D01*
X0043063Y0360701D01*
X0043063Y0041803D01*
X0184992Y0112748D02*
X0261606Y0112748D01*
X0261606Y0097000D01*
X0312000Y0097000D01*
X0312000Y0219500D01*
X0242709Y0219500D01*
X0242709Y0211173D01*
X0184992Y0211173D01*
X0184992Y0112748D01*
X0261606Y0237000D02*
X0261606Y0252748D01*
X0184992Y0252748D01*
X0184992Y0351173D01*
X0242709Y0351173D01*
X0242709Y0359500D01*
X0312000Y0359500D01*
X0312000Y0237000D01*
X0261606Y0237000D01*
D11*
X0165000Y0202000D02*
X0165000Y0192000D01*
X0149000Y0192000D01*
X0149000Y0202000D01*
X0165000Y0202000D01*
X0161000Y0208000D02*
X0159500Y0208000D01*
X0159000Y0208500D01*
X0145000Y0208500D01*
X0144500Y0208000D01*
X0143000Y0208000D01*
X0142940Y0208002D01*
X0142879Y0208007D01*
X0142820Y0208016D01*
X0142761Y0208029D01*
X0142702Y0208045D01*
X0142645Y0208065D01*
X0142590Y0208088D01*
X0142535Y0208115D01*
X0142483Y0208144D01*
X0142432Y0208177D01*
X0142383Y0208213D01*
X0142337Y0208251D01*
X0142293Y0208293D01*
X0142251Y0208337D01*
X0142213Y0208383D01*
X0142177Y0208432D01*
X0142144Y0208483D01*
X0142115Y0208535D01*
X0142088Y0208590D01*
X0142065Y0208645D01*
X0142045Y0208702D01*
X0142029Y0208761D01*
X0142016Y0208820D01*
X0142007Y0208879D01*
X0142002Y0208940D01*
X0142000Y0209000D01*
X0142000Y0215000D01*
X0142002Y0215060D01*
X0142007Y0215121D01*
X0142016Y0215180D01*
X0142029Y0215239D01*
X0142045Y0215298D01*
X0142065Y0215355D01*
X0142088Y0215410D01*
X0142115Y0215465D01*
X0142144Y0215517D01*
X0142177Y0215568D01*
X0142213Y0215617D01*
X0142251Y0215663D01*
X0142293Y0215707D01*
X0142337Y0215749D01*
X0142383Y0215787D01*
X0142432Y0215823D01*
X0142483Y0215856D01*
X0142535Y0215885D01*
X0142590Y0215912D01*
X0142645Y0215935D01*
X0142702Y0215955D01*
X0142761Y0215971D01*
X0142820Y0215984D01*
X0142879Y0215993D01*
X0142940Y0215998D01*
X0143000Y0216000D01*
X0144500Y0216000D01*
X0145000Y0215500D01*
X0159000Y0215500D01*
X0159500Y0216000D01*
X0161000Y0216000D01*
X0161060Y0215998D01*
X0161121Y0215993D01*
X0161180Y0215984D01*
X0161239Y0215971D01*
X0161298Y0215955D01*
X0161355Y0215935D01*
X0161410Y0215912D01*
X0161465Y0215885D01*
X0161517Y0215856D01*
X0161568Y0215823D01*
X0161617Y0215787D01*
X0161663Y0215749D01*
X0161707Y0215707D01*
X0161749Y0215663D01*
X0161787Y0215617D01*
X0161823Y0215568D01*
X0161856Y0215517D01*
X0161885Y0215465D01*
X0161912Y0215410D01*
X0161935Y0215355D01*
X0161955Y0215298D01*
X0161971Y0215239D01*
X0161984Y0215180D01*
X0161993Y0215121D01*
X0161998Y0215060D01*
X0162000Y0215000D01*
X0162000Y0209000D01*
X0161998Y0208940D01*
X0161993Y0208879D01*
X0161984Y0208820D01*
X0161971Y0208761D01*
X0161955Y0208702D01*
X0161935Y0208645D01*
X0161912Y0208590D01*
X0161885Y0208535D01*
X0161856Y0208483D01*
X0161823Y0208432D01*
X0161787Y0208383D01*
X0161749Y0208337D01*
X0161707Y0208293D01*
X0161663Y0208251D01*
X0161617Y0208213D01*
X0161568Y0208177D01*
X0161517Y0208144D01*
X0161465Y0208115D01*
X0161410Y0208088D01*
X0161355Y0208065D01*
X0161298Y0208045D01*
X0161239Y0208029D01*
X0161180Y0208016D01*
X0161121Y0208007D01*
X0161060Y0208002D01*
X0161000Y0208000D01*
X0157000Y0199500D02*
X0157000Y0197000D01*
X0157000Y0194500D01*
X0157000Y0197000D02*
X0151000Y0197000D01*
X0153000Y0194500D02*
X0157000Y0197000D01*
X0153000Y0199500D01*
X0153000Y0194500D01*
X0157000Y0197000D02*
X0159500Y0197000D01*
X0156000Y0186000D02*
X0154500Y0186000D01*
X0154000Y0185500D01*
X0140000Y0185500D01*
X0139500Y0186000D01*
X0138000Y0186000D01*
X0137940Y0185998D01*
X0137879Y0185993D01*
X0137820Y0185984D01*
X0137761Y0185971D01*
X0137702Y0185955D01*
X0137645Y0185935D01*
X0137590Y0185912D01*
X0137535Y0185885D01*
X0137483Y0185856D01*
X0137432Y0185823D01*
X0137383Y0185787D01*
X0137337Y0185749D01*
X0137293Y0185707D01*
X0137251Y0185663D01*
X0137213Y0185617D01*
X0137177Y0185568D01*
X0137144Y0185517D01*
X0137115Y0185465D01*
X0137088Y0185410D01*
X0137065Y0185355D01*
X0137045Y0185298D01*
X0137029Y0185239D01*
X0137016Y0185180D01*
X0137007Y0185121D01*
X0137002Y0185060D01*
X0137000Y0185000D01*
X0137000Y0179000D01*
X0137002Y0178940D01*
X0137007Y0178879D01*
X0137016Y0178820D01*
X0137029Y0178761D01*
X0137045Y0178702D01*
X0137065Y0178645D01*
X0137088Y0178590D01*
X0137115Y0178535D01*
X0137144Y0178483D01*
X0137177Y0178432D01*
X0137213Y0178383D01*
X0137251Y0178337D01*
X0137293Y0178293D01*
X0137337Y0178251D01*
X0137383Y0178213D01*
X0137432Y0178177D01*
X0137483Y0178144D01*
X0137535Y0178115D01*
X0137590Y0178088D01*
X0137645Y0178065D01*
X0137702Y0178045D01*
X0137761Y0178029D01*
X0137820Y0178016D01*
X0137879Y0178007D01*
X0137940Y0178002D01*
X0138000Y0178000D01*
X0139500Y0178000D01*
X0140000Y0178500D01*
X0154000Y0178500D01*
X0154500Y0178000D01*
X0156000Y0178000D01*
X0156060Y0178002D01*
X0156121Y0178007D01*
X0156180Y0178016D01*
X0156239Y0178029D01*
X0156298Y0178045D01*
X0156355Y0178065D01*
X0156410Y0178088D01*
X0156465Y0178115D01*
X0156517Y0178144D01*
X0156568Y0178177D01*
X0156617Y0178213D01*
X0156663Y0178251D01*
X0156707Y0178293D01*
X0156749Y0178337D01*
X0156787Y0178383D01*
X0156823Y0178432D01*
X0156856Y0178483D01*
X0156885Y0178535D01*
X0156912Y0178590D01*
X0156935Y0178645D01*
X0156955Y0178702D01*
X0156971Y0178761D01*
X0156984Y0178820D01*
X0156993Y0178879D01*
X0156998Y0178940D01*
X0157000Y0179000D01*
X0157000Y0185000D01*
X0156998Y0185060D01*
X0156993Y0185121D01*
X0156984Y0185180D01*
X0156971Y0185239D01*
X0156955Y0185298D01*
X0156935Y0185355D01*
X0156912Y0185410D01*
X0156885Y0185465D01*
X0156856Y0185517D01*
X0156823Y0185568D01*
X0156787Y0185617D01*
X0156749Y0185663D01*
X0156707Y0185707D01*
X0156663Y0185749D01*
X0156617Y0185787D01*
X0156568Y0185823D01*
X0156517Y0185856D01*
X0156465Y0185885D01*
X0156410Y0185912D01*
X0156355Y0185935D01*
X0156298Y0185955D01*
X0156239Y0185971D01*
X0156180Y0185984D01*
X0156121Y0185993D01*
X0156060Y0185998D01*
X0156000Y0186000D01*
X0142126Y0166016D02*
X0142126Y0156016D01*
X0126126Y0156016D01*
X0126126Y0166016D01*
X0142126Y0166016D01*
X0136626Y0161016D02*
X0134126Y0161016D01*
X0134126Y0163516D01*
X0134126Y0161016D02*
X0134126Y0158516D01*
X0134126Y0161016D02*
X0128126Y0161016D01*
X0130126Y0163516D02*
X0134126Y0161016D01*
X0130126Y0158516D01*
X0130126Y0163516D01*
X0113500Y0207000D02*
X0106000Y0207000D01*
X0105998Y0207126D01*
X0105992Y0207251D01*
X0105982Y0207376D01*
X0105968Y0207501D01*
X0105951Y0207626D01*
X0105929Y0207750D01*
X0105904Y0207873D01*
X0105874Y0207995D01*
X0105841Y0208116D01*
X0105804Y0208236D01*
X0105764Y0208355D01*
X0105719Y0208472D01*
X0105671Y0208589D01*
X0105619Y0208703D01*
X0105564Y0208816D01*
X0105505Y0208927D01*
X0105443Y0209036D01*
X0105377Y0209143D01*
X0105308Y0209248D01*
X0105236Y0209351D01*
X0105161Y0209452D01*
X0105082Y0209550D01*
X0105000Y0209645D01*
X0104916Y0209738D01*
X0104828Y0209828D01*
X0104738Y0209916D01*
X0104645Y0210000D01*
X0104550Y0210082D01*
X0104452Y0210161D01*
X0104351Y0210236D01*
X0104248Y0210308D01*
X0104143Y0210377D01*
X0104036Y0210443D01*
X0103927Y0210505D01*
X0103816Y0210564D01*
X0103703Y0210619D01*
X0103589Y0210671D01*
X0103472Y0210719D01*
X0103355Y0210764D01*
X0103236Y0210804D01*
X0103116Y0210841D01*
X0102995Y0210874D01*
X0102873Y0210904D01*
X0102750Y0210929D01*
X0102626Y0210951D01*
X0102501Y0210968D01*
X0102376Y0210982D01*
X0102251Y0210992D01*
X0102126Y0210998D01*
X0102000Y0211000D01*
X0101874Y0210998D01*
X0101749Y0210992D01*
X0101624Y0210982D01*
X0101499Y0210968D01*
X0101374Y0210951D01*
X0101250Y0210929D01*
X0101127Y0210904D01*
X0101005Y0210874D01*
X0100884Y0210841D01*
X0100764Y0210804D01*
X0100645Y0210764D01*
X0100528Y0210719D01*
X0100411Y0210671D01*
X0100297Y0210619D01*
X0100184Y0210564D01*
X0100073Y0210505D01*
X0099964Y0210443D01*
X0099857Y0210377D01*
X0099752Y0210308D01*
X0099649Y0210236D01*
X0099548Y0210161D01*
X0099450Y0210082D01*
X0099355Y0210000D01*
X0099262Y0209916D01*
X0099172Y0209828D01*
X0099084Y0209738D01*
X0099000Y0209645D01*
X0098918Y0209550D01*
X0098839Y0209452D01*
X0098764Y0209351D01*
X0098692Y0209248D01*
X0098623Y0209143D01*
X0098557Y0209036D01*
X0098495Y0208927D01*
X0098436Y0208816D01*
X0098381Y0208703D01*
X0098329Y0208589D01*
X0098281Y0208472D01*
X0098236Y0208355D01*
X0098196Y0208236D01*
X0098159Y0208116D01*
X0098126Y0207995D01*
X0098096Y0207873D01*
X0098071Y0207750D01*
X0098049Y0207626D01*
X0098032Y0207501D01*
X0098018Y0207376D01*
X0098008Y0207251D01*
X0098002Y0207126D01*
X0098000Y0207000D01*
X0090500Y0207000D01*
X0090500Y0227000D01*
X0113500Y0227000D01*
X0113500Y0207000D01*
X0144000Y0227000D02*
X0144000Y0237000D01*
X0160000Y0237000D01*
X0160000Y0227000D01*
X0144000Y0227000D01*
X0149500Y0232000D02*
X0152000Y0232000D01*
X0152000Y0229500D01*
X0152000Y0232000D02*
X0152000Y0234500D01*
X0152000Y0232000D02*
X0156000Y0234500D01*
X0156000Y0229500D01*
X0152000Y0232000D01*
X0158000Y0232000D01*
X0125000Y0282000D02*
X0109000Y0282000D01*
X0109000Y0292000D01*
X0125000Y0292000D01*
X0125000Y0282000D01*
X0119500Y0287000D02*
X0117000Y0287000D01*
X0117000Y0289500D01*
X0117000Y0287000D02*
X0113000Y0284500D01*
X0113000Y0289500D01*
X0117000Y0287000D01*
X0117000Y0284500D01*
X0117000Y0287000D02*
X0111000Y0287000D01*
X0109500Y0298000D02*
X0108000Y0298000D01*
X0107940Y0298002D01*
X0107879Y0298007D01*
X0107820Y0298016D01*
X0107761Y0298029D01*
X0107702Y0298045D01*
X0107645Y0298065D01*
X0107590Y0298088D01*
X0107535Y0298115D01*
X0107483Y0298144D01*
X0107432Y0298177D01*
X0107383Y0298213D01*
X0107337Y0298251D01*
X0107293Y0298293D01*
X0107251Y0298337D01*
X0107213Y0298383D01*
X0107177Y0298432D01*
X0107144Y0298483D01*
X0107115Y0298535D01*
X0107088Y0298590D01*
X0107065Y0298645D01*
X0107045Y0298702D01*
X0107029Y0298761D01*
X0107016Y0298820D01*
X0107007Y0298879D01*
X0107002Y0298940D01*
X0107000Y0299000D01*
X0107000Y0305000D01*
X0107002Y0305060D01*
X0107007Y0305121D01*
X0107016Y0305180D01*
X0107029Y0305239D01*
X0107045Y0305298D01*
X0107065Y0305355D01*
X0107088Y0305410D01*
X0107115Y0305465D01*
X0107144Y0305517D01*
X0107177Y0305568D01*
X0107213Y0305617D01*
X0107251Y0305663D01*
X0107293Y0305707D01*
X0107337Y0305749D01*
X0107383Y0305787D01*
X0107432Y0305823D01*
X0107483Y0305856D01*
X0107535Y0305885D01*
X0107590Y0305912D01*
X0107645Y0305935D01*
X0107702Y0305955D01*
X0107761Y0305971D01*
X0107820Y0305984D01*
X0107879Y0305993D01*
X0107940Y0305998D01*
X0108000Y0306000D01*
X0109500Y0306000D01*
X0110000Y0305500D01*
X0124000Y0305500D01*
X0124500Y0306000D01*
X0126000Y0306000D01*
X0126060Y0305998D01*
X0126121Y0305993D01*
X0126180Y0305984D01*
X0126239Y0305971D01*
X0126298Y0305955D01*
X0126355Y0305935D01*
X0126410Y0305912D01*
X0126465Y0305885D01*
X0126517Y0305856D01*
X0126568Y0305823D01*
X0126617Y0305787D01*
X0126663Y0305749D01*
X0126707Y0305707D01*
X0126749Y0305663D01*
X0126787Y0305617D01*
X0126823Y0305568D01*
X0126856Y0305517D01*
X0126885Y0305465D01*
X0126912Y0305410D01*
X0126935Y0305355D01*
X0126955Y0305298D01*
X0126971Y0305239D01*
X0126984Y0305180D01*
X0126993Y0305121D01*
X0126998Y0305060D01*
X0127000Y0305000D01*
X0127000Y0299000D01*
X0126998Y0298940D01*
X0126993Y0298879D01*
X0126984Y0298820D01*
X0126971Y0298761D01*
X0126955Y0298702D01*
X0126935Y0298645D01*
X0126912Y0298590D01*
X0126885Y0298535D01*
X0126856Y0298483D01*
X0126823Y0298432D01*
X0126787Y0298383D01*
X0126749Y0298337D01*
X0126707Y0298293D01*
X0126663Y0298251D01*
X0126617Y0298213D01*
X0126568Y0298177D01*
X0126517Y0298144D01*
X0126465Y0298115D01*
X0126410Y0298088D01*
X0126355Y0298065D01*
X0126298Y0298045D01*
X0126239Y0298029D01*
X0126180Y0298016D01*
X0126121Y0298007D01*
X0126060Y0298002D01*
X0126000Y0298000D01*
X0124500Y0298000D01*
X0124000Y0298500D01*
X0110000Y0298500D01*
X0109500Y0298000D01*
X0109000Y0312000D02*
X0125000Y0312000D01*
X0125000Y0322000D01*
X0109000Y0322000D01*
X0109000Y0312000D01*
X0113000Y0314500D02*
X0117000Y0317000D01*
X0117000Y0319500D01*
X0117000Y0317000D02*
X0117000Y0314500D01*
X0117000Y0317000D02*
X0111000Y0317000D01*
X0113000Y0314500D02*
X0113000Y0319500D01*
X0117000Y0317000D01*
X0119500Y0317000D01*
X0124500Y0328000D02*
X0126000Y0328000D01*
X0126060Y0328002D01*
X0126121Y0328007D01*
X0126180Y0328016D01*
X0126239Y0328029D01*
X0126298Y0328045D01*
X0126355Y0328065D01*
X0126410Y0328088D01*
X0126465Y0328115D01*
X0126517Y0328144D01*
X0126568Y0328177D01*
X0126617Y0328213D01*
X0126663Y0328251D01*
X0126707Y0328293D01*
X0126749Y0328337D01*
X0126787Y0328383D01*
X0126823Y0328432D01*
X0126856Y0328483D01*
X0126885Y0328535D01*
X0126912Y0328590D01*
X0126935Y0328645D01*
X0126955Y0328702D01*
X0126971Y0328761D01*
X0126984Y0328820D01*
X0126993Y0328879D01*
X0126998Y0328940D01*
X0127000Y0329000D01*
X0127000Y0335000D01*
X0126998Y0335060D01*
X0126993Y0335121D01*
X0126984Y0335180D01*
X0126971Y0335239D01*
X0126955Y0335298D01*
X0126935Y0335355D01*
X0126912Y0335410D01*
X0126885Y0335465D01*
X0126856Y0335517D01*
X0126823Y0335568D01*
X0126787Y0335617D01*
X0126749Y0335663D01*
X0126707Y0335707D01*
X0126663Y0335749D01*
X0126617Y0335787D01*
X0126568Y0335823D01*
X0126517Y0335856D01*
X0126465Y0335885D01*
X0126410Y0335912D01*
X0126355Y0335935D01*
X0126298Y0335955D01*
X0126239Y0335971D01*
X0126180Y0335984D01*
X0126121Y0335993D01*
X0126060Y0335998D01*
X0126000Y0336000D01*
X0124500Y0336000D01*
X0124000Y0335500D01*
X0110000Y0335500D01*
X0109500Y0336000D01*
X0108000Y0336000D01*
X0107940Y0335998D01*
X0107879Y0335993D01*
X0107820Y0335984D01*
X0107761Y0335971D01*
X0107702Y0335955D01*
X0107645Y0335935D01*
X0107590Y0335912D01*
X0107535Y0335885D01*
X0107483Y0335856D01*
X0107432Y0335823D01*
X0107383Y0335787D01*
X0107337Y0335749D01*
X0107293Y0335707D01*
X0107251Y0335663D01*
X0107213Y0335617D01*
X0107177Y0335568D01*
X0107144Y0335517D01*
X0107115Y0335465D01*
X0107088Y0335410D01*
X0107065Y0335355D01*
X0107045Y0335298D01*
X0107029Y0335239D01*
X0107016Y0335180D01*
X0107007Y0335121D01*
X0107002Y0335060D01*
X0107000Y0335000D01*
X0107000Y0329000D01*
X0107002Y0328940D01*
X0107007Y0328879D01*
X0107016Y0328820D01*
X0107029Y0328761D01*
X0107045Y0328702D01*
X0107065Y0328645D01*
X0107088Y0328590D01*
X0107115Y0328535D01*
X0107144Y0328483D01*
X0107177Y0328432D01*
X0107213Y0328383D01*
X0107251Y0328337D01*
X0107293Y0328293D01*
X0107337Y0328251D01*
X0107383Y0328213D01*
X0107432Y0328177D01*
X0107483Y0328144D01*
X0107535Y0328115D01*
X0107590Y0328088D01*
X0107645Y0328065D01*
X0107702Y0328045D01*
X0107761Y0328029D01*
X0107820Y0328016D01*
X0107879Y0328007D01*
X0107940Y0328002D01*
X0108000Y0328000D01*
X0109500Y0328000D01*
X0110000Y0328500D01*
X0124000Y0328500D01*
X0124500Y0328000D01*
X0125000Y0342000D02*
X0109000Y0342000D01*
X0109000Y0352000D01*
X0125000Y0352000D01*
X0125000Y0342000D01*
X0119500Y0347000D02*
X0117000Y0347000D01*
X0117000Y0349500D01*
X0117000Y0347000D02*
X0113000Y0344500D01*
X0113000Y0349500D01*
X0117000Y0347000D01*
X0117000Y0344500D01*
X0117000Y0347000D02*
X0111000Y0347000D01*
X0083500Y0342000D02*
X0060500Y0342000D01*
X0060500Y0322000D01*
X0068000Y0322000D01*
X0068002Y0322126D01*
X0068008Y0322251D01*
X0068018Y0322376D01*
X0068032Y0322501D01*
X0068049Y0322626D01*
X0068071Y0322750D01*
X0068096Y0322873D01*
X0068126Y0322995D01*
X0068159Y0323116D01*
X0068196Y0323236D01*
X0068236Y0323355D01*
X0068281Y0323472D01*
X0068329Y0323589D01*
X0068381Y0323703D01*
X0068436Y0323816D01*
X0068495Y0323927D01*
X0068557Y0324036D01*
X0068623Y0324143D01*
X0068692Y0324248D01*
X0068764Y0324351D01*
X0068839Y0324452D01*
X0068918Y0324550D01*
X0069000Y0324645D01*
X0069084Y0324738D01*
X0069172Y0324828D01*
X0069262Y0324916D01*
X0069355Y0325000D01*
X0069450Y0325082D01*
X0069548Y0325161D01*
X0069649Y0325236D01*
X0069752Y0325308D01*
X0069857Y0325377D01*
X0069964Y0325443D01*
X0070073Y0325505D01*
X0070184Y0325564D01*
X0070297Y0325619D01*
X0070411Y0325671D01*
X0070528Y0325719D01*
X0070645Y0325764D01*
X0070764Y0325804D01*
X0070884Y0325841D01*
X0071005Y0325874D01*
X0071127Y0325904D01*
X0071250Y0325929D01*
X0071374Y0325951D01*
X0071499Y0325968D01*
X0071624Y0325982D01*
X0071749Y0325992D01*
X0071874Y0325998D01*
X0072000Y0326000D01*
X0072126Y0325998D01*
X0072251Y0325992D01*
X0072376Y0325982D01*
X0072501Y0325968D01*
X0072626Y0325951D01*
X0072750Y0325929D01*
X0072873Y0325904D01*
X0072995Y0325874D01*
X0073116Y0325841D01*
X0073236Y0325804D01*
X0073355Y0325764D01*
X0073472Y0325719D01*
X0073589Y0325671D01*
X0073703Y0325619D01*
X0073816Y0325564D01*
X0073927Y0325505D01*
X0074036Y0325443D01*
X0074143Y0325377D01*
X0074248Y0325308D01*
X0074351Y0325236D01*
X0074452Y0325161D01*
X0074550Y0325082D01*
X0074645Y0325000D01*
X0074738Y0324916D01*
X0074828Y0324828D01*
X0074916Y0324738D01*
X0075000Y0324645D01*
X0075082Y0324550D01*
X0075161Y0324452D01*
X0075236Y0324351D01*
X0075308Y0324248D01*
X0075377Y0324143D01*
X0075443Y0324036D01*
X0075505Y0323927D01*
X0075564Y0323816D01*
X0075619Y0323703D01*
X0075671Y0323589D01*
X0075719Y0323472D01*
X0075764Y0323355D01*
X0075804Y0323236D01*
X0075841Y0323116D01*
X0075874Y0322995D01*
X0075904Y0322873D01*
X0075929Y0322750D01*
X0075951Y0322626D01*
X0075968Y0322501D01*
X0075982Y0322376D01*
X0075992Y0322251D01*
X0075998Y0322126D01*
X0076000Y0322000D01*
X0083500Y0322000D01*
X0083500Y0342000D01*
D12*
X0081000Y0320250D02*
X0081000Y0315750D01*
X0079750Y0315750D02*
X0082250Y0315750D01*
X0085246Y0313500D02*
X0068754Y0313500D01*
X0071500Y0317000D02*
X0071500Y0319000D01*
X0071502Y0319069D01*
X0071508Y0319138D01*
X0071517Y0319206D01*
X0071530Y0319273D01*
X0071547Y0319340D01*
X0071568Y0319406D01*
X0071592Y0319470D01*
X0071620Y0319533D01*
X0071651Y0319595D01*
X0071685Y0319655D01*
X0071723Y0319712D01*
X0071764Y0319768D01*
X0071807Y0319821D01*
X0071854Y0319872D01*
X0071903Y0319920D01*
X0071955Y0319965D01*
X0072010Y0320007D01*
X0072066Y0320046D01*
X0072125Y0320083D01*
X0072186Y0320115D01*
X0072248Y0320145D01*
X0072312Y0320171D01*
X0072377Y0320193D01*
X0072443Y0320212D01*
X0072510Y0320227D01*
X0072578Y0320238D01*
X0072647Y0320246D01*
X0072716Y0320250D01*
X0072784Y0320250D01*
X0072853Y0320246D01*
X0072922Y0320238D01*
X0072990Y0320227D01*
X0073057Y0320212D01*
X0073123Y0320193D01*
X0073188Y0320171D01*
X0073252Y0320145D01*
X0073314Y0320115D01*
X0073375Y0320083D01*
X0073434Y0320046D01*
X0073490Y0320007D01*
X0073545Y0319965D01*
X0073597Y0319920D01*
X0073646Y0319872D01*
X0073693Y0319821D01*
X0073736Y0319768D01*
X0073777Y0319712D01*
X0073815Y0319655D01*
X0073849Y0319595D01*
X0073880Y0319533D01*
X0073908Y0319470D01*
X0073932Y0319406D01*
X0073953Y0319340D01*
X0073970Y0319273D01*
X0073983Y0319206D01*
X0073992Y0319138D01*
X0073998Y0319069D01*
X0074000Y0319000D01*
X0074000Y0317000D01*
X0073998Y0316931D01*
X0073992Y0316862D01*
X0073983Y0316794D01*
X0073970Y0316727D01*
X0073953Y0316660D01*
X0073932Y0316594D01*
X0073908Y0316530D01*
X0073880Y0316467D01*
X0073849Y0316405D01*
X0073815Y0316345D01*
X0073777Y0316288D01*
X0073736Y0316232D01*
X0073693Y0316179D01*
X0073646Y0316128D01*
X0073597Y0316080D01*
X0073545Y0316035D01*
X0073490Y0315993D01*
X0073434Y0315954D01*
X0073375Y0315917D01*
X0073314Y0315885D01*
X0073252Y0315855D01*
X0073188Y0315829D01*
X0073123Y0315807D01*
X0073057Y0315788D01*
X0072990Y0315773D01*
X0072922Y0315762D01*
X0072853Y0315754D01*
X0072784Y0315750D01*
X0072716Y0315750D01*
X0072647Y0315754D01*
X0072578Y0315762D01*
X0072510Y0315773D01*
X0072443Y0315788D01*
X0072377Y0315807D01*
X0072312Y0315829D01*
X0072248Y0315855D01*
X0072186Y0315885D01*
X0072125Y0315917D01*
X0072066Y0315954D01*
X0072010Y0315993D01*
X0071955Y0316035D01*
X0071903Y0316080D01*
X0071854Y0316128D01*
X0071807Y0316179D01*
X0071764Y0316232D01*
X0071723Y0316288D01*
X0071685Y0316345D01*
X0071651Y0316405D01*
X0071620Y0316467D01*
X0071592Y0316530D01*
X0071568Y0316594D01*
X0071547Y0316660D01*
X0071530Y0316727D01*
X0071517Y0316794D01*
X0071508Y0316862D01*
X0071502Y0316931D01*
X0071500Y0317000D01*
X0075985Y0316750D02*
X0075985Y0319250D01*
X0075987Y0319310D01*
X0075992Y0319371D01*
X0076001Y0319430D01*
X0076014Y0319489D01*
X0076030Y0319548D01*
X0076050Y0319605D01*
X0076073Y0319660D01*
X0076100Y0319715D01*
X0076129Y0319767D01*
X0076162Y0319818D01*
X0076198Y0319867D01*
X0076236Y0319913D01*
X0076278Y0319957D01*
X0076322Y0319999D01*
X0076368Y0320037D01*
X0076417Y0320073D01*
X0076468Y0320106D01*
X0076520Y0320135D01*
X0076575Y0320162D01*
X0076630Y0320185D01*
X0076687Y0320205D01*
X0076746Y0320221D01*
X0076805Y0320234D01*
X0076864Y0320243D01*
X0076925Y0320248D01*
X0076985Y0320250D01*
X0077985Y0320250D01*
X0079750Y0319250D02*
X0081000Y0320250D01*
X0076985Y0315750D02*
X0076925Y0315752D01*
X0076864Y0315757D01*
X0076805Y0315766D01*
X0076746Y0315779D01*
X0076687Y0315795D01*
X0076630Y0315815D01*
X0076575Y0315838D01*
X0076520Y0315865D01*
X0076468Y0315894D01*
X0076417Y0315927D01*
X0076368Y0315963D01*
X0076322Y0316001D01*
X0076278Y0316043D01*
X0076236Y0316087D01*
X0076198Y0316133D01*
X0076162Y0316182D01*
X0076129Y0316233D01*
X0076100Y0316285D01*
X0076073Y0316340D01*
X0076050Y0316395D01*
X0076030Y0316452D01*
X0076014Y0316511D01*
X0076001Y0316570D01*
X0075992Y0316629D01*
X0075987Y0316690D01*
X0075985Y0316750D01*
X0076985Y0315750D02*
X0077985Y0315750D01*
X0078127Y0308000D02*
X0075873Y0308000D01*
X0085246Y0313500D02*
X0085399Y0313301D01*
X0085547Y0313099D01*
X0085690Y0312894D01*
X0085828Y0312685D01*
X0085961Y0312473D01*
X0086089Y0312258D01*
X0086211Y0312040D01*
X0086329Y0311819D01*
X0086441Y0311595D01*
X0086548Y0311369D01*
X0086649Y0311140D01*
X0086745Y0310909D01*
X0086836Y0310675D01*
X0086921Y0310440D01*
X0087000Y0310202D01*
X0087073Y0309963D01*
X0087141Y0309722D01*
X0087203Y0309480D01*
X0087259Y0309236D01*
X0087310Y0308990D01*
X0087354Y0308744D01*
X0087393Y0308497D01*
X0087425Y0308249D01*
X0087452Y0308000D01*
X0085873Y0308000D01*
X0073904Y0296967D02*
X0073662Y0297045D01*
X0073422Y0297129D01*
X0073184Y0297218D01*
X0072948Y0297314D01*
X0072714Y0297415D01*
X0072483Y0297521D01*
X0072255Y0297634D01*
X0072029Y0297751D01*
X0071806Y0297874D01*
X0071587Y0298003D01*
X0071370Y0298137D01*
X0071157Y0298276D01*
X0070947Y0298420D01*
X0070741Y0298569D01*
X0070539Y0298723D01*
X0070340Y0298882D01*
X0070145Y0299046D01*
X0069954Y0299215D01*
X0069768Y0299388D01*
X0069585Y0299565D01*
X0069407Y0299747D01*
X0069234Y0299933D01*
X0069065Y0300124D01*
X0068901Y0300318D01*
X0068741Y0300516D01*
X0068586Y0300718D01*
X0068437Y0300924D01*
X0068292Y0301133D01*
X0068152Y0301346D01*
X0068018Y0301562D01*
X0067889Y0301782D01*
X0067765Y0302004D01*
X0067646Y0302229D01*
X0067534Y0302457D01*
X0067426Y0302688D01*
X0067325Y0302921D01*
X0067229Y0303157D01*
X0067138Y0303395D01*
X0067054Y0303635D01*
X0066975Y0303877D01*
X0066902Y0304121D01*
X0066836Y0304367D01*
X0066775Y0304614D01*
X0066720Y0304862D01*
X0066671Y0305112D01*
X0066628Y0305363D01*
X0066592Y0305615D01*
X0066561Y0305867D01*
X0066537Y0306121D01*
X0066519Y0306374D01*
X0066507Y0306629D01*
X0066501Y0306883D01*
X0066501Y0307138D01*
X0066507Y0307392D01*
X0066520Y0307646D01*
X0066539Y0307900D01*
X0066564Y0308153D01*
X0066595Y0308406D01*
X0066632Y0308658D01*
X0066675Y0308908D01*
X0066724Y0309158D01*
X0066779Y0309407D01*
X0066841Y0309654D01*
X0066908Y0309899D01*
X0066981Y0310143D01*
X0067060Y0310385D01*
X0067145Y0310624D01*
X0067236Y0310862D01*
X0067333Y0311098D01*
X0067435Y0311331D01*
X0067543Y0311561D01*
X0067656Y0311789D01*
X0067775Y0312014D01*
X0067899Y0312236D01*
X0068028Y0312455D01*
X0068163Y0312671D01*
X0068303Y0312884D01*
X0068449Y0313093D01*
X0068599Y0313298D01*
X0068754Y0313500D01*
X0068127Y0308000D02*
X0066548Y0308000D01*
X0063000Y0304250D02*
X0061750Y0303250D01*
X0063000Y0304250D02*
X0063000Y0299750D01*
X0061750Y0299750D02*
X0064250Y0299750D01*
X0058800Y0299750D02*
X0058800Y0304250D01*
X0057550Y0304250D02*
X0060050Y0304250D01*
X0080096Y0296967D02*
X0080340Y0297045D01*
X0080582Y0297130D01*
X0080821Y0297220D01*
X0081059Y0297316D01*
X0081294Y0297418D01*
X0081527Y0297526D01*
X0081757Y0297639D01*
X0081984Y0297758D01*
X0082208Y0297882D01*
X0082429Y0298012D01*
X0082646Y0298147D01*
X0082861Y0298288D01*
X0083072Y0298434D01*
X0083279Y0298584D01*
X0083482Y0298740D01*
X0083682Y0298901D01*
X0083878Y0299066D01*
X0084069Y0299236D01*
X0084257Y0299411D01*
X0084440Y0299591D01*
X0084618Y0299774D01*
X0084793Y0299963D01*
X0084962Y0300155D01*
X0085127Y0300351D01*
X0085287Y0300552D01*
X0085441Y0300756D01*
X0085591Y0300964D01*
X0085736Y0301175D01*
X0085876Y0301390D01*
X0086010Y0301608D01*
X0086139Y0301830D01*
X0086262Y0302054D01*
X0086380Y0302282D01*
X0086493Y0302512D01*
X0086599Y0302745D01*
X0086700Y0302981D01*
X0086796Y0303219D01*
X0086885Y0303459D01*
X0086968Y0303701D01*
X0087046Y0303946D01*
X0087117Y0304192D01*
X0087183Y0304440D01*
X0087242Y0304689D01*
X0087296Y0304939D01*
X0087343Y0305191D01*
X0087384Y0305444D01*
X0087419Y0305698D01*
X0087448Y0305953D01*
X0087470Y0306208D01*
X0087486Y0306464D01*
X0087496Y0306720D01*
X0087500Y0306976D01*
X0087497Y0307233D01*
X0087489Y0307489D01*
X0087474Y0307745D01*
X0087452Y0308000D01*
X0117600Y0305750D02*
X0118850Y0305750D01*
X0118918Y0305752D01*
X0118985Y0305757D01*
X0119052Y0305766D01*
X0119119Y0305779D01*
X0119184Y0305796D01*
X0119249Y0305815D01*
X0119313Y0305839D01*
X0119375Y0305866D01*
X0119436Y0305896D01*
X0119494Y0305929D01*
X0119551Y0305965D01*
X0119606Y0306005D01*
X0119659Y0306047D01*
X0119710Y0306093D01*
X0119757Y0306140D01*
X0119803Y0306191D01*
X0119845Y0306244D01*
X0119885Y0306299D01*
X0119921Y0306356D01*
X0119954Y0306414D01*
X0119984Y0306475D01*
X0120011Y0306537D01*
X0120035Y0306601D01*
X0120054Y0306666D01*
X0120071Y0306731D01*
X0120084Y0306798D01*
X0120093Y0306865D01*
X0120098Y0306932D01*
X0120100Y0307000D01*
X0120100Y0309000D01*
X0120098Y0309068D01*
X0120093Y0309135D01*
X0120084Y0309202D01*
X0120071Y0309269D01*
X0120054Y0309334D01*
X0120035Y0309399D01*
X0120011Y0309463D01*
X0119984Y0309525D01*
X0119954Y0309586D01*
X0119921Y0309644D01*
X0119885Y0309701D01*
X0119845Y0309756D01*
X0119803Y0309809D01*
X0119757Y0309860D01*
X0119710Y0309907D01*
X0119659Y0309953D01*
X0119606Y0309995D01*
X0119551Y0310035D01*
X0119494Y0310071D01*
X0119436Y0310104D01*
X0119375Y0310134D01*
X0119313Y0310161D01*
X0119249Y0310185D01*
X0119184Y0310204D01*
X0119119Y0310221D01*
X0119052Y0310234D01*
X0118985Y0310243D01*
X0118918Y0310248D01*
X0118850Y0310250D01*
X0117600Y0310250D01*
X0117600Y0305750D01*
X0122250Y0305750D02*
X0124750Y0305750D01*
X0123500Y0305750D02*
X0123500Y0310250D01*
X0122250Y0309250D01*
X0122325Y0296650D02*
X0121381Y0296650D01*
X0121381Y0293250D01*
X0121381Y0294761D02*
X0122325Y0294761D01*
X0122514Y0294761D02*
X0123269Y0293250D01*
X0124861Y0293250D02*
X0126750Y0293250D01*
X0125806Y0293250D02*
X0125806Y0296650D01*
X0124861Y0295894D01*
X0122325Y0296650D02*
X0122385Y0296648D01*
X0122446Y0296642D01*
X0122505Y0296633D01*
X0122564Y0296619D01*
X0122622Y0296602D01*
X0122679Y0296581D01*
X0122735Y0296557D01*
X0122788Y0296529D01*
X0122840Y0296497D01*
X0122890Y0296463D01*
X0122937Y0296425D01*
X0122982Y0296384D01*
X0123024Y0296341D01*
X0123063Y0296295D01*
X0123099Y0296246D01*
X0123132Y0296195D01*
X0123162Y0296143D01*
X0123188Y0296088D01*
X0123211Y0296032D01*
X0123230Y0295975D01*
X0123245Y0295916D01*
X0123257Y0295857D01*
X0123265Y0295797D01*
X0123269Y0295736D01*
X0123269Y0295676D01*
X0123265Y0295615D01*
X0123257Y0295555D01*
X0123245Y0295496D01*
X0123230Y0295437D01*
X0123211Y0295380D01*
X0123188Y0295324D01*
X0123162Y0295269D01*
X0123132Y0295217D01*
X0123099Y0295166D01*
X0123063Y0295117D01*
X0123024Y0295071D01*
X0122982Y0295028D01*
X0122937Y0294987D01*
X0122890Y0294949D01*
X0122840Y0294915D01*
X0122788Y0294883D01*
X0122735Y0294855D01*
X0122679Y0294831D01*
X0122622Y0294810D01*
X0122564Y0294793D01*
X0122505Y0294779D01*
X0122446Y0294770D01*
X0122385Y0294764D01*
X0122325Y0294762D01*
X0118850Y0280250D02*
X0117600Y0280250D01*
X0117600Y0275750D01*
X0118850Y0275750D01*
X0118918Y0275752D01*
X0118985Y0275757D01*
X0119052Y0275766D01*
X0119119Y0275779D01*
X0119184Y0275796D01*
X0119249Y0275815D01*
X0119313Y0275839D01*
X0119375Y0275866D01*
X0119436Y0275896D01*
X0119494Y0275929D01*
X0119551Y0275965D01*
X0119606Y0276005D01*
X0119659Y0276047D01*
X0119710Y0276093D01*
X0119757Y0276140D01*
X0119803Y0276191D01*
X0119845Y0276244D01*
X0119885Y0276299D01*
X0119921Y0276356D01*
X0119954Y0276414D01*
X0119984Y0276475D01*
X0120011Y0276537D01*
X0120035Y0276601D01*
X0120054Y0276666D01*
X0120071Y0276731D01*
X0120084Y0276798D01*
X0120093Y0276865D01*
X0120098Y0276932D01*
X0120100Y0277000D01*
X0120100Y0279000D01*
X0120098Y0279068D01*
X0120093Y0279135D01*
X0120084Y0279202D01*
X0120071Y0279269D01*
X0120054Y0279334D01*
X0120035Y0279399D01*
X0120011Y0279463D01*
X0119984Y0279525D01*
X0119954Y0279586D01*
X0119921Y0279644D01*
X0119885Y0279701D01*
X0119845Y0279756D01*
X0119803Y0279809D01*
X0119757Y0279860D01*
X0119710Y0279907D01*
X0119659Y0279953D01*
X0119606Y0279995D01*
X0119551Y0280035D01*
X0119494Y0280071D01*
X0119436Y0280104D01*
X0119375Y0280134D01*
X0119313Y0280161D01*
X0119249Y0280185D01*
X0119184Y0280204D01*
X0119119Y0280221D01*
X0119052Y0280234D01*
X0118985Y0280243D01*
X0118918Y0280248D01*
X0118850Y0280250D01*
X0124375Y0278250D02*
X0124421Y0278296D01*
X0124465Y0278345D01*
X0124505Y0278396D01*
X0124543Y0278449D01*
X0124578Y0278504D01*
X0124610Y0278561D01*
X0124639Y0278619D01*
X0124665Y0278679D01*
X0124687Y0278741D01*
X0124706Y0278803D01*
X0124722Y0278866D01*
X0124734Y0278930D01*
X0124743Y0278995D01*
X0124748Y0279060D01*
X0124750Y0279125D01*
X0124375Y0278250D02*
X0122250Y0275750D01*
X0124750Y0275750D01*
X0122250Y0279250D02*
X0122274Y0279319D01*
X0122302Y0279386D01*
X0122333Y0279452D01*
X0122367Y0279516D01*
X0122404Y0279578D01*
X0122445Y0279639D01*
X0122488Y0279697D01*
X0122534Y0279753D01*
X0122584Y0279807D01*
X0122635Y0279858D01*
X0122689Y0279906D01*
X0122746Y0279952D01*
X0122805Y0279995D01*
X0122866Y0280034D01*
X0122928Y0280071D01*
X0122993Y0280104D01*
X0123059Y0280135D01*
X0123127Y0280161D01*
X0123195Y0280185D01*
X0123265Y0280205D01*
X0123336Y0280221D01*
X0123408Y0280234D01*
X0123480Y0280243D01*
X0123552Y0280248D01*
X0123625Y0280250D01*
X0123690Y0280248D01*
X0123756Y0280242D01*
X0123820Y0280233D01*
X0123884Y0280220D01*
X0123948Y0280203D01*
X0124010Y0280182D01*
X0124071Y0280158D01*
X0124130Y0280130D01*
X0124188Y0280099D01*
X0124243Y0280065D01*
X0124297Y0280027D01*
X0124348Y0279987D01*
X0124397Y0279943D01*
X0124443Y0279897D01*
X0124487Y0279848D01*
X0124527Y0279797D01*
X0124565Y0279743D01*
X0124599Y0279688D01*
X0124630Y0279630D01*
X0124658Y0279571D01*
X0124682Y0279510D01*
X0124703Y0279448D01*
X0124720Y0279384D01*
X0124733Y0279320D01*
X0124742Y0279256D01*
X0124748Y0279190D01*
X0124750Y0279125D01*
X0144250Y0243250D02*
X0145500Y0243250D01*
X0145568Y0243248D01*
X0145635Y0243243D01*
X0145702Y0243234D01*
X0145769Y0243221D01*
X0145834Y0243204D01*
X0145899Y0243185D01*
X0145963Y0243161D01*
X0146025Y0243134D01*
X0146086Y0243104D01*
X0146144Y0243071D01*
X0146201Y0243035D01*
X0146256Y0242995D01*
X0146309Y0242953D01*
X0146360Y0242907D01*
X0146407Y0242860D01*
X0146453Y0242809D01*
X0146495Y0242756D01*
X0146535Y0242701D01*
X0146571Y0242644D01*
X0146604Y0242586D01*
X0146634Y0242525D01*
X0146661Y0242463D01*
X0146685Y0242399D01*
X0146704Y0242334D01*
X0146721Y0242269D01*
X0146734Y0242202D01*
X0146743Y0242135D01*
X0146748Y0242068D01*
X0146750Y0242000D01*
X0146750Y0240000D01*
X0146748Y0239932D01*
X0146743Y0239865D01*
X0146734Y0239798D01*
X0146721Y0239731D01*
X0146704Y0239666D01*
X0146685Y0239601D01*
X0146661Y0239537D01*
X0146634Y0239475D01*
X0146604Y0239414D01*
X0146571Y0239356D01*
X0146535Y0239299D01*
X0146495Y0239244D01*
X0146453Y0239191D01*
X0146407Y0239140D01*
X0146360Y0239093D01*
X0146309Y0239047D01*
X0146256Y0239005D01*
X0146201Y0238965D01*
X0146144Y0238929D01*
X0146086Y0238896D01*
X0146025Y0238866D01*
X0145963Y0238839D01*
X0145899Y0238815D01*
X0145834Y0238796D01*
X0145769Y0238779D01*
X0145702Y0238766D01*
X0145635Y0238757D01*
X0145568Y0238752D01*
X0145500Y0238750D01*
X0144250Y0238750D01*
X0144250Y0243250D01*
X0148900Y0241250D02*
X0148900Y0240000D01*
X0148900Y0241250D02*
X0150400Y0241250D01*
X0148900Y0241250D02*
X0148902Y0241337D01*
X0148908Y0241424D01*
X0148917Y0241511D01*
X0148930Y0241597D01*
X0148947Y0241683D01*
X0148968Y0241768D01*
X0148993Y0241851D01*
X0149021Y0241934D01*
X0149052Y0242015D01*
X0149087Y0242095D01*
X0149126Y0242173D01*
X0149168Y0242250D01*
X0149213Y0242325D01*
X0149262Y0242397D01*
X0149313Y0242468D01*
X0149368Y0242536D01*
X0149425Y0242601D01*
X0149486Y0242664D01*
X0149549Y0242725D01*
X0149614Y0242782D01*
X0149682Y0242837D01*
X0149753Y0242888D01*
X0149825Y0242937D01*
X0149900Y0242982D01*
X0149977Y0243024D01*
X0150055Y0243063D01*
X0150135Y0243098D01*
X0150216Y0243129D01*
X0150299Y0243157D01*
X0150382Y0243182D01*
X0150467Y0243203D01*
X0150553Y0243220D01*
X0150639Y0243233D01*
X0150726Y0243242D01*
X0150813Y0243248D01*
X0150900Y0243250D01*
X0150400Y0241250D02*
X0150460Y0241248D01*
X0150521Y0241243D01*
X0150580Y0241234D01*
X0150639Y0241221D01*
X0150698Y0241205D01*
X0150755Y0241185D01*
X0150810Y0241162D01*
X0150865Y0241135D01*
X0150917Y0241106D01*
X0150968Y0241073D01*
X0151017Y0241037D01*
X0151063Y0240999D01*
X0151107Y0240957D01*
X0151149Y0240913D01*
X0151187Y0240867D01*
X0151223Y0240818D01*
X0151256Y0240767D01*
X0151285Y0240715D01*
X0151312Y0240660D01*
X0151335Y0240605D01*
X0151355Y0240548D01*
X0151371Y0240489D01*
X0151384Y0240430D01*
X0151393Y0240371D01*
X0151398Y0240310D01*
X0151400Y0240250D01*
X0151400Y0240000D01*
X0151398Y0239931D01*
X0151392Y0239862D01*
X0151383Y0239794D01*
X0151370Y0239727D01*
X0151353Y0239660D01*
X0151332Y0239594D01*
X0151308Y0239530D01*
X0151280Y0239467D01*
X0151249Y0239405D01*
X0151215Y0239345D01*
X0151177Y0239288D01*
X0151136Y0239232D01*
X0151093Y0239179D01*
X0151046Y0239128D01*
X0150997Y0239080D01*
X0150945Y0239035D01*
X0150890Y0238993D01*
X0150834Y0238954D01*
X0150775Y0238917D01*
X0150714Y0238885D01*
X0150652Y0238855D01*
X0150588Y0238829D01*
X0150523Y0238807D01*
X0150457Y0238788D01*
X0150390Y0238773D01*
X0150322Y0238762D01*
X0150253Y0238754D01*
X0150184Y0238750D01*
X0150116Y0238750D01*
X0150047Y0238754D01*
X0149978Y0238762D01*
X0149910Y0238773D01*
X0149843Y0238788D01*
X0149777Y0238807D01*
X0149712Y0238829D01*
X0149648Y0238855D01*
X0149586Y0238885D01*
X0149525Y0238917D01*
X0149466Y0238954D01*
X0149410Y0238993D01*
X0149355Y0239035D01*
X0149303Y0239080D01*
X0149254Y0239128D01*
X0149207Y0239179D01*
X0149164Y0239232D01*
X0149123Y0239288D01*
X0149085Y0239345D01*
X0149051Y0239405D01*
X0149020Y0239467D01*
X0148992Y0239530D01*
X0148968Y0239594D01*
X0148947Y0239660D01*
X0148930Y0239727D01*
X0148917Y0239794D01*
X0148908Y0239862D01*
X0148902Y0239931D01*
X0148900Y0240000D01*
X0146864Y0220750D02*
X0145731Y0220750D01*
X0146864Y0220750D02*
X0146918Y0220748D01*
X0146972Y0220742D01*
X0147025Y0220733D01*
X0147077Y0220719D01*
X0147128Y0220702D01*
X0147178Y0220682D01*
X0147226Y0220658D01*
X0147273Y0220630D01*
X0147317Y0220599D01*
X0147359Y0220565D01*
X0147399Y0220529D01*
X0147435Y0220489D01*
X0147469Y0220447D01*
X0147500Y0220403D01*
X0147528Y0220356D01*
X0147552Y0220308D01*
X0147572Y0220258D01*
X0147589Y0220207D01*
X0147603Y0220155D01*
X0147612Y0220102D01*
X0147618Y0220048D01*
X0147620Y0219994D01*
X0147618Y0219940D01*
X0147612Y0219886D01*
X0147603Y0219833D01*
X0147589Y0219781D01*
X0147572Y0219730D01*
X0147552Y0219680D01*
X0147528Y0219632D01*
X0147500Y0219585D01*
X0147469Y0219541D01*
X0147435Y0219499D01*
X0147399Y0219459D01*
X0147359Y0219423D01*
X0147317Y0219389D01*
X0147273Y0219358D01*
X0147226Y0219330D01*
X0147178Y0219306D01*
X0147128Y0219286D01*
X0147077Y0219269D01*
X0147025Y0219255D01*
X0146972Y0219246D01*
X0146918Y0219240D01*
X0146864Y0219238D01*
X0146864Y0219239D02*
X0146108Y0219239D01*
X0146675Y0219238D02*
X0146735Y0219236D01*
X0146796Y0219230D01*
X0146855Y0219221D01*
X0146914Y0219207D01*
X0146972Y0219190D01*
X0147029Y0219169D01*
X0147085Y0219145D01*
X0147138Y0219117D01*
X0147190Y0219085D01*
X0147240Y0219051D01*
X0147287Y0219013D01*
X0147332Y0218972D01*
X0147374Y0218929D01*
X0147413Y0218883D01*
X0147449Y0218834D01*
X0147482Y0218783D01*
X0147512Y0218731D01*
X0147538Y0218676D01*
X0147561Y0218620D01*
X0147580Y0218563D01*
X0147595Y0218504D01*
X0147607Y0218445D01*
X0147615Y0218385D01*
X0147619Y0218324D01*
X0147619Y0218264D01*
X0147615Y0218203D01*
X0147607Y0218143D01*
X0147595Y0218084D01*
X0147580Y0218025D01*
X0147561Y0217968D01*
X0147538Y0217912D01*
X0147512Y0217857D01*
X0147482Y0217805D01*
X0147449Y0217754D01*
X0147413Y0217705D01*
X0147374Y0217659D01*
X0147332Y0217616D01*
X0147287Y0217575D01*
X0147240Y0217537D01*
X0147190Y0217503D01*
X0147138Y0217471D01*
X0147085Y0217443D01*
X0147029Y0217419D01*
X0146972Y0217398D01*
X0146914Y0217381D01*
X0146855Y0217367D01*
X0146796Y0217358D01*
X0146735Y0217352D01*
X0146675Y0217350D01*
X0145731Y0217350D01*
X0144139Y0217350D02*
X0143383Y0218861D01*
X0143194Y0218861D02*
X0142250Y0218861D01*
X0143194Y0218862D02*
X0143254Y0218864D01*
X0143315Y0218870D01*
X0143374Y0218879D01*
X0143433Y0218893D01*
X0143491Y0218910D01*
X0143548Y0218931D01*
X0143604Y0218955D01*
X0143657Y0218983D01*
X0143709Y0219015D01*
X0143759Y0219049D01*
X0143806Y0219087D01*
X0143851Y0219128D01*
X0143893Y0219171D01*
X0143932Y0219217D01*
X0143968Y0219266D01*
X0144001Y0219317D01*
X0144031Y0219369D01*
X0144057Y0219424D01*
X0144080Y0219480D01*
X0144099Y0219537D01*
X0144114Y0219596D01*
X0144126Y0219655D01*
X0144134Y0219715D01*
X0144138Y0219776D01*
X0144138Y0219836D01*
X0144134Y0219897D01*
X0144126Y0219957D01*
X0144114Y0220016D01*
X0144099Y0220075D01*
X0144080Y0220132D01*
X0144057Y0220188D01*
X0144031Y0220243D01*
X0144001Y0220295D01*
X0143968Y0220346D01*
X0143932Y0220395D01*
X0143893Y0220441D01*
X0143851Y0220484D01*
X0143806Y0220525D01*
X0143759Y0220563D01*
X0143709Y0220597D01*
X0143657Y0220629D01*
X0143604Y0220657D01*
X0143548Y0220681D01*
X0143491Y0220702D01*
X0143433Y0220719D01*
X0143374Y0220733D01*
X0143315Y0220742D01*
X0143254Y0220748D01*
X0143194Y0220750D01*
X0142250Y0220750D01*
X0142250Y0217350D01*
X0120246Y0193500D02*
X0103754Y0193500D01*
X0103127Y0188000D02*
X0101548Y0188000D01*
X0095050Y0184250D02*
X0092550Y0184250D01*
X0093800Y0184250D02*
X0093800Y0179750D01*
X0096750Y0179750D02*
X0099250Y0179750D01*
X0096750Y0179750D02*
X0098875Y0182250D01*
X0098125Y0184250D02*
X0098052Y0184248D01*
X0097980Y0184243D01*
X0097908Y0184234D01*
X0097836Y0184221D01*
X0097765Y0184205D01*
X0097695Y0184185D01*
X0097627Y0184161D01*
X0097559Y0184135D01*
X0097493Y0184104D01*
X0097428Y0184071D01*
X0097366Y0184034D01*
X0097305Y0183995D01*
X0097246Y0183952D01*
X0097189Y0183906D01*
X0097135Y0183858D01*
X0097084Y0183807D01*
X0097034Y0183753D01*
X0096988Y0183697D01*
X0096945Y0183639D01*
X0096904Y0183578D01*
X0096867Y0183516D01*
X0096833Y0183452D01*
X0096802Y0183386D01*
X0096774Y0183319D01*
X0096750Y0183250D01*
X0098875Y0182250D02*
X0098921Y0182296D01*
X0098965Y0182345D01*
X0099005Y0182396D01*
X0099043Y0182449D01*
X0099078Y0182504D01*
X0099110Y0182561D01*
X0099139Y0182619D01*
X0099165Y0182679D01*
X0099187Y0182741D01*
X0099206Y0182803D01*
X0099222Y0182866D01*
X0099234Y0182930D01*
X0099243Y0182995D01*
X0099248Y0183060D01*
X0099250Y0183125D01*
X0099248Y0183190D01*
X0099242Y0183256D01*
X0099233Y0183320D01*
X0099220Y0183384D01*
X0099203Y0183448D01*
X0099182Y0183510D01*
X0099158Y0183571D01*
X0099130Y0183630D01*
X0099099Y0183688D01*
X0099065Y0183743D01*
X0099027Y0183797D01*
X0098987Y0183848D01*
X0098943Y0183897D01*
X0098897Y0183943D01*
X0098848Y0183987D01*
X0098797Y0184027D01*
X0098743Y0184065D01*
X0098688Y0184099D01*
X0098630Y0184130D01*
X0098571Y0184158D01*
X0098510Y0184182D01*
X0098448Y0184203D01*
X0098384Y0184220D01*
X0098320Y0184233D01*
X0098256Y0184242D01*
X0098190Y0184248D01*
X0098125Y0184250D01*
X0110873Y0188000D02*
X0113127Y0188000D01*
X0120246Y0193500D02*
X0120399Y0193301D01*
X0120547Y0193099D01*
X0120690Y0192894D01*
X0120828Y0192685D01*
X0120961Y0192473D01*
X0121089Y0192258D01*
X0121211Y0192040D01*
X0121329Y0191819D01*
X0121441Y0191595D01*
X0121548Y0191369D01*
X0121649Y0191140D01*
X0121745Y0190909D01*
X0121836Y0190675D01*
X0121921Y0190440D01*
X0122000Y0190202D01*
X0122073Y0189963D01*
X0122141Y0189722D01*
X0122203Y0189480D01*
X0122259Y0189236D01*
X0122310Y0188990D01*
X0122354Y0188744D01*
X0122393Y0188497D01*
X0122425Y0188249D01*
X0122452Y0188000D01*
X0120873Y0188000D01*
X0108904Y0176967D02*
X0108662Y0177045D01*
X0108422Y0177129D01*
X0108184Y0177218D01*
X0107948Y0177314D01*
X0107714Y0177415D01*
X0107483Y0177521D01*
X0107255Y0177634D01*
X0107029Y0177751D01*
X0106806Y0177874D01*
X0106587Y0178003D01*
X0106370Y0178137D01*
X0106157Y0178276D01*
X0105947Y0178420D01*
X0105741Y0178569D01*
X0105539Y0178723D01*
X0105340Y0178882D01*
X0105145Y0179046D01*
X0104954Y0179215D01*
X0104768Y0179388D01*
X0104585Y0179565D01*
X0104407Y0179747D01*
X0104234Y0179933D01*
X0104065Y0180124D01*
X0103901Y0180318D01*
X0103741Y0180516D01*
X0103586Y0180718D01*
X0103437Y0180924D01*
X0103292Y0181133D01*
X0103152Y0181346D01*
X0103018Y0181562D01*
X0102889Y0181782D01*
X0102765Y0182004D01*
X0102646Y0182229D01*
X0102534Y0182457D01*
X0102426Y0182688D01*
X0102325Y0182921D01*
X0102229Y0183157D01*
X0102138Y0183395D01*
X0102054Y0183635D01*
X0101975Y0183877D01*
X0101902Y0184121D01*
X0101836Y0184367D01*
X0101775Y0184614D01*
X0101720Y0184862D01*
X0101671Y0185112D01*
X0101628Y0185363D01*
X0101592Y0185615D01*
X0101561Y0185867D01*
X0101537Y0186121D01*
X0101519Y0186374D01*
X0101507Y0186629D01*
X0101501Y0186883D01*
X0101501Y0187138D01*
X0101507Y0187392D01*
X0101520Y0187646D01*
X0101539Y0187900D01*
X0101564Y0188153D01*
X0101595Y0188406D01*
X0101632Y0188658D01*
X0101675Y0188908D01*
X0101724Y0189158D01*
X0101779Y0189407D01*
X0101841Y0189654D01*
X0101908Y0189899D01*
X0101981Y0190143D01*
X0102060Y0190385D01*
X0102145Y0190624D01*
X0102236Y0190862D01*
X0102333Y0191098D01*
X0102435Y0191331D01*
X0102543Y0191561D01*
X0102656Y0191789D01*
X0102775Y0192014D01*
X0102899Y0192236D01*
X0103028Y0192455D01*
X0103163Y0192671D01*
X0103303Y0192884D01*
X0103449Y0193093D01*
X0103599Y0193298D01*
X0103754Y0193500D01*
X0106985Y0200750D02*
X0107985Y0200750D01*
X0106985Y0200750D02*
X0106925Y0200752D01*
X0106864Y0200757D01*
X0106805Y0200766D01*
X0106746Y0200779D01*
X0106687Y0200795D01*
X0106630Y0200815D01*
X0106575Y0200838D01*
X0106520Y0200865D01*
X0106468Y0200894D01*
X0106417Y0200927D01*
X0106368Y0200963D01*
X0106322Y0201001D01*
X0106278Y0201043D01*
X0106236Y0201087D01*
X0106198Y0201133D01*
X0106162Y0201182D01*
X0106129Y0201233D01*
X0106100Y0201285D01*
X0106073Y0201340D01*
X0106050Y0201395D01*
X0106030Y0201452D01*
X0106014Y0201511D01*
X0106001Y0201570D01*
X0105992Y0201629D01*
X0105987Y0201690D01*
X0105985Y0201750D01*
X0105985Y0204250D01*
X0105987Y0204310D01*
X0105992Y0204371D01*
X0106001Y0204430D01*
X0106014Y0204489D01*
X0106030Y0204548D01*
X0106050Y0204605D01*
X0106073Y0204660D01*
X0106100Y0204715D01*
X0106129Y0204767D01*
X0106162Y0204818D01*
X0106198Y0204867D01*
X0106236Y0204913D01*
X0106278Y0204957D01*
X0106322Y0204999D01*
X0106368Y0205037D01*
X0106417Y0205073D01*
X0106468Y0205106D01*
X0106520Y0205135D01*
X0106575Y0205162D01*
X0106630Y0205185D01*
X0106687Y0205205D01*
X0106746Y0205221D01*
X0106805Y0205234D01*
X0106864Y0205243D01*
X0106925Y0205248D01*
X0106985Y0205250D01*
X0107985Y0205250D01*
X0111875Y0203250D02*
X0111921Y0203296D01*
X0111965Y0203345D01*
X0112005Y0203396D01*
X0112043Y0203449D01*
X0112078Y0203504D01*
X0112110Y0203561D01*
X0112139Y0203619D01*
X0112165Y0203679D01*
X0112187Y0203741D01*
X0112206Y0203803D01*
X0112222Y0203866D01*
X0112234Y0203930D01*
X0112243Y0203995D01*
X0112248Y0204060D01*
X0112250Y0204125D01*
X0111875Y0203250D02*
X0109750Y0200750D01*
X0112250Y0200750D01*
X0109750Y0204250D02*
X0109774Y0204319D01*
X0109802Y0204386D01*
X0109833Y0204452D01*
X0109867Y0204516D01*
X0109904Y0204578D01*
X0109945Y0204639D01*
X0109988Y0204697D01*
X0110034Y0204753D01*
X0110084Y0204807D01*
X0110135Y0204858D01*
X0110189Y0204906D01*
X0110246Y0204952D01*
X0110305Y0204995D01*
X0110366Y0205034D01*
X0110428Y0205071D01*
X0110493Y0205104D01*
X0110559Y0205135D01*
X0110627Y0205161D01*
X0110695Y0205185D01*
X0110765Y0205205D01*
X0110836Y0205221D01*
X0110908Y0205234D01*
X0110980Y0205243D01*
X0111052Y0205248D01*
X0111125Y0205250D01*
X0111190Y0205248D01*
X0111256Y0205242D01*
X0111320Y0205233D01*
X0111384Y0205220D01*
X0111448Y0205203D01*
X0111510Y0205182D01*
X0111571Y0205158D01*
X0111630Y0205130D01*
X0111688Y0205099D01*
X0111743Y0205065D01*
X0111797Y0205027D01*
X0111848Y0204987D01*
X0111897Y0204943D01*
X0111943Y0204897D01*
X0111987Y0204848D01*
X0112027Y0204797D01*
X0112065Y0204743D01*
X0112099Y0204688D01*
X0112130Y0204630D01*
X0112158Y0204571D01*
X0112182Y0204510D01*
X0112203Y0204448D01*
X0112220Y0204384D01*
X0112233Y0204320D01*
X0112242Y0204256D01*
X0112248Y0204190D01*
X0112250Y0204125D01*
X0104000Y0204000D02*
X0104000Y0202000D01*
X0103998Y0201931D01*
X0103992Y0201862D01*
X0103983Y0201794D01*
X0103970Y0201727D01*
X0103953Y0201660D01*
X0103932Y0201594D01*
X0103908Y0201530D01*
X0103880Y0201467D01*
X0103849Y0201405D01*
X0103815Y0201345D01*
X0103777Y0201288D01*
X0103736Y0201232D01*
X0103693Y0201179D01*
X0103646Y0201128D01*
X0103597Y0201080D01*
X0103545Y0201035D01*
X0103490Y0200993D01*
X0103434Y0200954D01*
X0103375Y0200917D01*
X0103314Y0200885D01*
X0103252Y0200855D01*
X0103188Y0200829D01*
X0103123Y0200807D01*
X0103057Y0200788D01*
X0102990Y0200773D01*
X0102922Y0200762D01*
X0102853Y0200754D01*
X0102784Y0200750D01*
X0102716Y0200750D01*
X0102647Y0200754D01*
X0102578Y0200762D01*
X0102510Y0200773D01*
X0102443Y0200788D01*
X0102377Y0200807D01*
X0102312Y0200829D01*
X0102248Y0200855D01*
X0102186Y0200885D01*
X0102125Y0200917D01*
X0102066Y0200954D01*
X0102010Y0200993D01*
X0101955Y0201035D01*
X0101903Y0201080D01*
X0101854Y0201128D01*
X0101807Y0201179D01*
X0101764Y0201232D01*
X0101723Y0201288D01*
X0101685Y0201345D01*
X0101651Y0201405D01*
X0101620Y0201467D01*
X0101592Y0201530D01*
X0101568Y0201594D01*
X0101547Y0201660D01*
X0101530Y0201727D01*
X0101517Y0201794D01*
X0101508Y0201862D01*
X0101502Y0201931D01*
X0101500Y0202000D01*
X0101500Y0204000D01*
X0101502Y0204069D01*
X0101508Y0204138D01*
X0101517Y0204206D01*
X0101530Y0204273D01*
X0101547Y0204340D01*
X0101568Y0204406D01*
X0101592Y0204470D01*
X0101620Y0204533D01*
X0101651Y0204595D01*
X0101685Y0204655D01*
X0101723Y0204712D01*
X0101764Y0204768D01*
X0101807Y0204821D01*
X0101854Y0204872D01*
X0101903Y0204920D01*
X0101955Y0204965D01*
X0102010Y0205007D01*
X0102066Y0205046D01*
X0102125Y0205083D01*
X0102186Y0205115D01*
X0102248Y0205145D01*
X0102312Y0205171D01*
X0102377Y0205193D01*
X0102443Y0205212D01*
X0102510Y0205227D01*
X0102578Y0205238D01*
X0102647Y0205246D01*
X0102716Y0205250D01*
X0102784Y0205250D01*
X0102853Y0205246D01*
X0102922Y0205238D01*
X0102990Y0205227D01*
X0103057Y0205212D01*
X0103123Y0205193D01*
X0103188Y0205171D01*
X0103252Y0205145D01*
X0103314Y0205115D01*
X0103375Y0205083D01*
X0103434Y0205046D01*
X0103490Y0205007D01*
X0103545Y0204965D01*
X0103597Y0204920D01*
X0103646Y0204872D01*
X0103693Y0204821D01*
X0103736Y0204768D01*
X0103777Y0204712D01*
X0103815Y0204655D01*
X0103849Y0204595D01*
X0103880Y0204533D01*
X0103908Y0204470D01*
X0103932Y0204406D01*
X0103953Y0204340D01*
X0103970Y0204273D01*
X0103983Y0204206D01*
X0103992Y0204138D01*
X0103998Y0204069D01*
X0104000Y0204000D01*
X0122452Y0188000D02*
X0122474Y0187745D01*
X0122489Y0187489D01*
X0122497Y0187233D01*
X0122500Y0186976D01*
X0122496Y0186720D01*
X0122486Y0186464D01*
X0122470Y0186208D01*
X0122448Y0185953D01*
X0122419Y0185698D01*
X0122384Y0185444D01*
X0122343Y0185191D01*
X0122296Y0184939D01*
X0122242Y0184689D01*
X0122183Y0184440D01*
X0122117Y0184192D01*
X0122046Y0183946D01*
X0121968Y0183701D01*
X0121885Y0183459D01*
X0121796Y0183219D01*
X0121700Y0182981D01*
X0121599Y0182745D01*
X0121493Y0182512D01*
X0121380Y0182282D01*
X0121262Y0182054D01*
X0121139Y0181830D01*
X0121010Y0181608D01*
X0120876Y0181390D01*
X0120736Y0181175D01*
X0120591Y0180964D01*
X0120441Y0180756D01*
X0120287Y0180552D01*
X0120127Y0180351D01*
X0119962Y0180155D01*
X0119793Y0179963D01*
X0119618Y0179774D01*
X0119440Y0179591D01*
X0119257Y0179411D01*
X0119069Y0179236D01*
X0118878Y0179066D01*
X0118682Y0178901D01*
X0118482Y0178740D01*
X0118279Y0178584D01*
X0118072Y0178434D01*
X0117861Y0178288D01*
X0117646Y0178147D01*
X0117429Y0178012D01*
X0117208Y0177882D01*
X0116984Y0177758D01*
X0116757Y0177639D01*
X0116527Y0177526D01*
X0116294Y0177418D01*
X0116059Y0177316D01*
X0115821Y0177220D01*
X0115582Y0177130D01*
X0115340Y0177045D01*
X0115096Y0176967D01*
X0134726Y0154266D02*
X0135976Y0154266D01*
X0134726Y0154266D02*
X0134726Y0149766D01*
X0135976Y0149766D01*
X0136044Y0149768D01*
X0136111Y0149773D01*
X0136178Y0149782D01*
X0136245Y0149795D01*
X0136310Y0149812D01*
X0136375Y0149831D01*
X0136439Y0149855D01*
X0136501Y0149882D01*
X0136562Y0149912D01*
X0136620Y0149945D01*
X0136677Y0149981D01*
X0136732Y0150021D01*
X0136785Y0150063D01*
X0136836Y0150109D01*
X0136883Y0150156D01*
X0136929Y0150207D01*
X0136971Y0150260D01*
X0137011Y0150315D01*
X0137047Y0150372D01*
X0137080Y0150430D01*
X0137110Y0150491D01*
X0137137Y0150553D01*
X0137161Y0150617D01*
X0137180Y0150682D01*
X0137197Y0150747D01*
X0137210Y0150814D01*
X0137219Y0150881D01*
X0137224Y0150948D01*
X0137226Y0151016D01*
X0137226Y0153016D01*
X0137224Y0153084D01*
X0137219Y0153151D01*
X0137210Y0153218D01*
X0137197Y0153285D01*
X0137180Y0153350D01*
X0137161Y0153415D01*
X0137137Y0153479D01*
X0137110Y0153541D01*
X0137080Y0153602D01*
X0137047Y0153660D01*
X0137011Y0153717D01*
X0136971Y0153772D01*
X0136929Y0153825D01*
X0136883Y0153876D01*
X0136836Y0153923D01*
X0136785Y0153969D01*
X0136732Y0154011D01*
X0136677Y0154051D01*
X0136620Y0154087D01*
X0136562Y0154120D01*
X0136501Y0154150D01*
X0136439Y0154177D01*
X0136375Y0154201D01*
X0136310Y0154220D01*
X0136245Y0154237D01*
X0136178Y0154250D01*
X0136111Y0154259D01*
X0136044Y0154264D01*
X0135976Y0154266D01*
X0140376Y0154266D02*
X0139376Y0150766D01*
X0141876Y0150766D01*
X0141126Y0151766D02*
X0141126Y0149766D01*
X0151381Y0173250D02*
X0151381Y0176650D01*
X0152325Y0176650D01*
X0152385Y0176648D01*
X0152446Y0176642D01*
X0152505Y0176633D01*
X0152564Y0176619D01*
X0152622Y0176602D01*
X0152679Y0176581D01*
X0152735Y0176557D01*
X0152788Y0176529D01*
X0152840Y0176497D01*
X0152890Y0176463D01*
X0152937Y0176425D01*
X0152982Y0176384D01*
X0153024Y0176341D01*
X0153063Y0176295D01*
X0153099Y0176246D01*
X0153132Y0176195D01*
X0153162Y0176143D01*
X0153188Y0176088D01*
X0153211Y0176032D01*
X0153230Y0175975D01*
X0153245Y0175916D01*
X0153257Y0175857D01*
X0153265Y0175797D01*
X0153269Y0175736D01*
X0153269Y0175676D01*
X0153265Y0175615D01*
X0153257Y0175555D01*
X0153245Y0175496D01*
X0153230Y0175437D01*
X0153211Y0175380D01*
X0153188Y0175324D01*
X0153162Y0175269D01*
X0153132Y0175217D01*
X0153099Y0175166D01*
X0153063Y0175117D01*
X0153024Y0175071D01*
X0152982Y0175028D01*
X0152937Y0174987D01*
X0152890Y0174949D01*
X0152840Y0174915D01*
X0152788Y0174883D01*
X0152735Y0174855D01*
X0152679Y0174831D01*
X0152622Y0174810D01*
X0152564Y0174793D01*
X0152505Y0174779D01*
X0152446Y0174770D01*
X0152385Y0174764D01*
X0152325Y0174762D01*
X0152325Y0174761D02*
X0151381Y0174761D01*
X0152514Y0174761D02*
X0153269Y0173250D01*
X0154861Y0174006D02*
X0156750Y0174006D01*
X0156183Y0174761D02*
X0156183Y0173250D01*
X0154861Y0174006D02*
X0155617Y0176650D01*
X0157600Y0185750D02*
X0158850Y0185750D01*
X0158918Y0185752D01*
X0158985Y0185757D01*
X0159052Y0185766D01*
X0159119Y0185779D01*
X0159184Y0185796D01*
X0159249Y0185815D01*
X0159313Y0185839D01*
X0159375Y0185866D01*
X0159436Y0185896D01*
X0159494Y0185929D01*
X0159551Y0185965D01*
X0159606Y0186005D01*
X0159659Y0186047D01*
X0159710Y0186093D01*
X0159757Y0186140D01*
X0159803Y0186191D01*
X0159845Y0186244D01*
X0159885Y0186299D01*
X0159921Y0186356D01*
X0159954Y0186414D01*
X0159984Y0186475D01*
X0160011Y0186537D01*
X0160035Y0186601D01*
X0160054Y0186666D01*
X0160071Y0186731D01*
X0160084Y0186798D01*
X0160093Y0186865D01*
X0160098Y0186932D01*
X0160100Y0187000D01*
X0160100Y0189000D01*
X0160098Y0189068D01*
X0160093Y0189135D01*
X0160084Y0189202D01*
X0160071Y0189269D01*
X0160054Y0189334D01*
X0160035Y0189399D01*
X0160011Y0189463D01*
X0159984Y0189525D01*
X0159954Y0189586D01*
X0159921Y0189644D01*
X0159885Y0189701D01*
X0159845Y0189756D01*
X0159803Y0189809D01*
X0159757Y0189860D01*
X0159710Y0189907D01*
X0159659Y0189953D01*
X0159606Y0189995D01*
X0159551Y0190035D01*
X0159494Y0190071D01*
X0159436Y0190104D01*
X0159375Y0190134D01*
X0159313Y0190161D01*
X0159249Y0190185D01*
X0159184Y0190204D01*
X0159119Y0190221D01*
X0159052Y0190234D01*
X0158985Y0190243D01*
X0158918Y0190248D01*
X0158850Y0190250D01*
X0157600Y0190250D01*
X0157600Y0185750D01*
X0162250Y0185750D02*
X0163500Y0185750D01*
X0163569Y0185752D01*
X0163638Y0185758D01*
X0163706Y0185767D01*
X0163773Y0185780D01*
X0163840Y0185797D01*
X0163906Y0185818D01*
X0163970Y0185842D01*
X0164033Y0185870D01*
X0164095Y0185901D01*
X0164155Y0185935D01*
X0164212Y0185973D01*
X0164268Y0186014D01*
X0164321Y0186057D01*
X0164372Y0186104D01*
X0164420Y0186153D01*
X0164465Y0186205D01*
X0164507Y0186260D01*
X0164546Y0186316D01*
X0164583Y0186375D01*
X0164615Y0186436D01*
X0164645Y0186498D01*
X0164671Y0186562D01*
X0164693Y0186627D01*
X0164712Y0186693D01*
X0164727Y0186760D01*
X0164738Y0186828D01*
X0164746Y0186897D01*
X0164750Y0186966D01*
X0164750Y0187034D01*
X0164746Y0187103D01*
X0164738Y0187172D01*
X0164727Y0187240D01*
X0164712Y0187307D01*
X0164693Y0187373D01*
X0164671Y0187438D01*
X0164645Y0187502D01*
X0164615Y0187564D01*
X0164583Y0187625D01*
X0164546Y0187684D01*
X0164507Y0187740D01*
X0164465Y0187795D01*
X0164420Y0187847D01*
X0164372Y0187896D01*
X0164321Y0187943D01*
X0164268Y0187986D01*
X0164212Y0188027D01*
X0164155Y0188065D01*
X0164095Y0188099D01*
X0164033Y0188130D01*
X0163970Y0188158D01*
X0163906Y0188182D01*
X0163840Y0188203D01*
X0163773Y0188220D01*
X0163706Y0188233D01*
X0163638Y0188242D01*
X0163569Y0188248D01*
X0163500Y0188250D01*
X0163750Y0188250D02*
X0162750Y0188250D01*
X0163750Y0188250D02*
X0163812Y0188252D01*
X0163873Y0188258D01*
X0163934Y0188267D01*
X0163994Y0188280D01*
X0164053Y0188297D01*
X0164111Y0188318D01*
X0164168Y0188342D01*
X0164223Y0188369D01*
X0164276Y0188400D01*
X0164328Y0188434D01*
X0164377Y0188471D01*
X0164424Y0188511D01*
X0164468Y0188554D01*
X0164509Y0188599D01*
X0164548Y0188647D01*
X0164584Y0188698D01*
X0164616Y0188750D01*
X0164645Y0188804D01*
X0164671Y0188860D01*
X0164693Y0188918D01*
X0164712Y0188976D01*
X0164727Y0189036D01*
X0164738Y0189097D01*
X0164746Y0189158D01*
X0164750Y0189219D01*
X0164750Y0189281D01*
X0164746Y0189342D01*
X0164738Y0189403D01*
X0164727Y0189464D01*
X0164712Y0189524D01*
X0164693Y0189582D01*
X0164671Y0189640D01*
X0164645Y0189696D01*
X0164616Y0189750D01*
X0164584Y0189802D01*
X0164548Y0189853D01*
X0164509Y0189901D01*
X0164468Y0189946D01*
X0164424Y0189989D01*
X0164377Y0190029D01*
X0164328Y0190066D01*
X0164276Y0190100D01*
X0164223Y0190131D01*
X0164168Y0190158D01*
X0164111Y0190182D01*
X0164053Y0190203D01*
X0163994Y0190220D01*
X0163934Y0190233D01*
X0163873Y0190242D01*
X0163812Y0190248D01*
X0163750Y0190250D01*
X0162250Y0190250D01*
X0078024Y0220189D02*
X0060307Y0220189D01*
X0060307Y0230031D01*
X0058339Y0230031D01*
X0058339Y0233969D01*
X0060307Y0233969D01*
X0060307Y0243811D01*
X0078024Y0243811D01*
X0078024Y0220189D01*
X0078024Y0245189D02*
X0060307Y0245189D01*
X0060307Y0255031D01*
X0058339Y0255031D01*
X0058339Y0258969D01*
X0060307Y0258969D01*
X0060307Y0268811D01*
X0078024Y0268811D01*
X0078024Y0245189D01*
X0107250Y0337350D02*
X0107250Y0340750D01*
X0108194Y0340750D01*
X0108254Y0340748D01*
X0108315Y0340742D01*
X0108374Y0340733D01*
X0108433Y0340719D01*
X0108491Y0340702D01*
X0108548Y0340681D01*
X0108604Y0340657D01*
X0108657Y0340629D01*
X0108709Y0340597D01*
X0108759Y0340563D01*
X0108806Y0340525D01*
X0108851Y0340484D01*
X0108893Y0340441D01*
X0108932Y0340395D01*
X0108968Y0340346D01*
X0109001Y0340295D01*
X0109031Y0340243D01*
X0109057Y0340188D01*
X0109080Y0340132D01*
X0109099Y0340075D01*
X0109114Y0340016D01*
X0109126Y0339957D01*
X0109134Y0339897D01*
X0109138Y0339836D01*
X0109138Y0339776D01*
X0109134Y0339715D01*
X0109126Y0339655D01*
X0109114Y0339596D01*
X0109099Y0339537D01*
X0109080Y0339480D01*
X0109057Y0339424D01*
X0109031Y0339369D01*
X0109001Y0339317D01*
X0108968Y0339266D01*
X0108932Y0339217D01*
X0108893Y0339171D01*
X0108851Y0339128D01*
X0108806Y0339087D01*
X0108759Y0339049D01*
X0108709Y0339015D01*
X0108657Y0338983D01*
X0108604Y0338955D01*
X0108548Y0338931D01*
X0108491Y0338910D01*
X0108433Y0338893D01*
X0108374Y0338879D01*
X0108315Y0338870D01*
X0108254Y0338864D01*
X0108194Y0338862D01*
X0108194Y0338861D02*
X0107250Y0338861D01*
X0108383Y0338861D02*
X0109139Y0337350D01*
X0110731Y0337350D02*
X0112619Y0337350D01*
X0110731Y0337350D02*
X0112336Y0339239D01*
X0111769Y0340750D02*
X0111704Y0340748D01*
X0111639Y0340742D01*
X0111574Y0340732D01*
X0111510Y0340719D01*
X0111447Y0340701D01*
X0111385Y0340680D01*
X0111325Y0340655D01*
X0111266Y0340627D01*
X0111209Y0340595D01*
X0111153Y0340560D01*
X0111101Y0340522D01*
X0111050Y0340480D01*
X0111002Y0340435D01*
X0110957Y0340388D01*
X0110915Y0340338D01*
X0110876Y0340286D01*
X0110840Y0340231D01*
X0110807Y0340175D01*
X0110778Y0340116D01*
X0110752Y0340056D01*
X0110730Y0339994D01*
X0112336Y0339239D02*
X0112376Y0339279D01*
X0112413Y0339322D01*
X0112448Y0339367D01*
X0112479Y0339415D01*
X0112508Y0339464D01*
X0112534Y0339514D01*
X0112556Y0339567D01*
X0112575Y0339620D01*
X0112591Y0339675D01*
X0112603Y0339730D01*
X0112612Y0339787D01*
X0112617Y0339843D01*
X0112619Y0339900D01*
X0112617Y0339956D01*
X0112612Y0340011D01*
X0112603Y0340066D01*
X0112590Y0340120D01*
X0112574Y0340173D01*
X0112554Y0340225D01*
X0112531Y0340276D01*
X0112505Y0340325D01*
X0112476Y0340372D01*
X0112443Y0340417D01*
X0112408Y0340460D01*
X0112370Y0340501D01*
X0112329Y0340539D01*
X0112286Y0340574D01*
X0112241Y0340607D01*
X0112194Y0340636D01*
X0112145Y0340662D01*
X0112094Y0340685D01*
X0112042Y0340705D01*
X0111989Y0340721D01*
X0111935Y0340734D01*
X0111880Y0340743D01*
X0111825Y0340748D01*
X0111769Y0340750D01*
X0117600Y0340250D02*
X0117600Y0335750D01*
X0118850Y0335750D01*
X0118918Y0335752D01*
X0118985Y0335757D01*
X0119052Y0335766D01*
X0119119Y0335779D01*
X0119184Y0335796D01*
X0119249Y0335815D01*
X0119313Y0335839D01*
X0119375Y0335866D01*
X0119436Y0335896D01*
X0119494Y0335929D01*
X0119551Y0335965D01*
X0119606Y0336005D01*
X0119659Y0336047D01*
X0119710Y0336093D01*
X0119757Y0336140D01*
X0119803Y0336191D01*
X0119845Y0336244D01*
X0119885Y0336299D01*
X0119921Y0336356D01*
X0119954Y0336414D01*
X0119984Y0336475D01*
X0120011Y0336537D01*
X0120035Y0336601D01*
X0120054Y0336666D01*
X0120071Y0336731D01*
X0120084Y0336798D01*
X0120093Y0336865D01*
X0120098Y0336932D01*
X0120100Y0337000D01*
X0120100Y0339000D01*
X0120098Y0339068D01*
X0120093Y0339135D01*
X0120084Y0339202D01*
X0120071Y0339269D01*
X0120054Y0339334D01*
X0120035Y0339399D01*
X0120011Y0339463D01*
X0119984Y0339525D01*
X0119954Y0339586D01*
X0119921Y0339644D01*
X0119885Y0339701D01*
X0119845Y0339756D01*
X0119803Y0339809D01*
X0119757Y0339860D01*
X0119710Y0339907D01*
X0119659Y0339953D01*
X0119606Y0339995D01*
X0119551Y0340035D01*
X0119494Y0340071D01*
X0119436Y0340104D01*
X0119375Y0340134D01*
X0119313Y0340161D01*
X0119249Y0340185D01*
X0119184Y0340204D01*
X0119119Y0340221D01*
X0119052Y0340234D01*
X0118985Y0340243D01*
X0118918Y0340248D01*
X0118850Y0340250D01*
X0117600Y0340250D01*
X0122250Y0340250D02*
X0122250Y0338250D01*
X0123750Y0338250D01*
X0123810Y0338248D01*
X0123871Y0338243D01*
X0123930Y0338234D01*
X0123989Y0338221D01*
X0124048Y0338205D01*
X0124105Y0338185D01*
X0124160Y0338162D01*
X0124215Y0338135D01*
X0124267Y0338106D01*
X0124318Y0338073D01*
X0124367Y0338037D01*
X0124413Y0337999D01*
X0124457Y0337957D01*
X0124499Y0337913D01*
X0124537Y0337867D01*
X0124573Y0337818D01*
X0124606Y0337767D01*
X0124635Y0337715D01*
X0124662Y0337660D01*
X0124685Y0337605D01*
X0124705Y0337548D01*
X0124721Y0337489D01*
X0124734Y0337430D01*
X0124743Y0337371D01*
X0124748Y0337310D01*
X0124750Y0337250D01*
X0124750Y0336750D01*
X0124748Y0336690D01*
X0124743Y0336629D01*
X0124734Y0336570D01*
X0124721Y0336511D01*
X0124705Y0336452D01*
X0124685Y0336395D01*
X0124662Y0336340D01*
X0124635Y0336285D01*
X0124606Y0336233D01*
X0124573Y0336182D01*
X0124537Y0336133D01*
X0124499Y0336087D01*
X0124457Y0336043D01*
X0124413Y0336001D01*
X0124367Y0335963D01*
X0124318Y0335927D01*
X0124267Y0335894D01*
X0124215Y0335865D01*
X0124160Y0335838D01*
X0124105Y0335815D01*
X0124048Y0335795D01*
X0123989Y0335779D01*
X0123930Y0335766D01*
X0123871Y0335757D01*
X0123810Y0335752D01*
X0123750Y0335750D01*
X0122250Y0335750D01*
X0122250Y0340250D02*
X0124750Y0340250D01*
X0328378Y0356685D02*
X0328378Y0041724D01*
X0375622Y0041724D01*
X0375622Y0356685D01*
X0328378Y0356685D01*
D13*
X0146500Y0232000D03*
X0162500Y0197000D03*
X0139626Y0161016D03*
X0122500Y0287000D03*
X0122500Y0317000D03*
X0122500Y0347000D03*
D14*
X0128750Y0347000D03*
X0105250Y0347000D03*
X0105250Y0317000D03*
X0128750Y0317000D03*
X0128750Y0287000D03*
X0105250Y0287000D03*
X0140250Y0232000D03*
X0163750Y0232000D03*
X0168750Y0197000D03*
X0145250Y0197000D03*
X0145876Y0161016D03*
X0122376Y0161016D03*
D15*
X0068011Y0216200D02*
X0068011Y0219267D01*
X0069544Y0217733D02*
X0066478Y0217733D01*
X0058020Y0233820D02*
X0053420Y0235353D01*
X0054443Y0237029D02*
X0056998Y0237029D01*
X0057060Y0237031D01*
X0057121Y0237036D01*
X0057182Y0237046D01*
X0057243Y0237059D01*
X0057302Y0237075D01*
X0057360Y0237095D01*
X0057417Y0237119D01*
X0057473Y0237146D01*
X0057527Y0237176D01*
X0057579Y0237210D01*
X0057628Y0237246D01*
X0057676Y0237286D01*
X0057721Y0237328D01*
X0057763Y0237373D01*
X0057803Y0237421D01*
X0057839Y0237470D01*
X0057873Y0237522D01*
X0057903Y0237576D01*
X0057930Y0237632D01*
X0057954Y0237689D01*
X0057974Y0237747D01*
X0057990Y0237806D01*
X0058003Y0237867D01*
X0058013Y0237928D01*
X0058018Y0237989D01*
X0058020Y0238051D01*
X0058020Y0239074D01*
X0056998Y0240779D02*
X0054443Y0240779D01*
X0054381Y0240781D01*
X0054320Y0240786D01*
X0054259Y0240796D01*
X0054198Y0240809D01*
X0054139Y0240825D01*
X0054081Y0240845D01*
X0054024Y0240869D01*
X0053968Y0240896D01*
X0053914Y0240926D01*
X0053862Y0240960D01*
X0053813Y0240996D01*
X0053765Y0241036D01*
X0053720Y0241078D01*
X0053678Y0241123D01*
X0053639Y0241171D01*
X0053602Y0241220D01*
X0053568Y0241272D01*
X0053538Y0241326D01*
X0053511Y0241382D01*
X0053487Y0241439D01*
X0053467Y0241497D01*
X0053451Y0241556D01*
X0053438Y0241617D01*
X0053428Y0241678D01*
X0053423Y0241739D01*
X0053421Y0241801D01*
X0053420Y0241801D02*
X0053420Y0242824D01*
X0055337Y0245357D02*
X0056104Y0246763D01*
X0058020Y0246251D02*
X0058018Y0246161D01*
X0058013Y0246072D01*
X0058003Y0245983D01*
X0057990Y0245894D01*
X0057974Y0245806D01*
X0057953Y0245718D01*
X0057929Y0245632D01*
X0057902Y0245546D01*
X0057871Y0245462D01*
X0057836Y0245379D01*
X0057798Y0245298D01*
X0057757Y0245218D01*
X0057713Y0245141D01*
X0057665Y0245065D01*
X0057614Y0244991D01*
X0057560Y0244919D01*
X0057503Y0244850D01*
X0057444Y0244782D01*
X0057381Y0244718D01*
X0056104Y0246762D02*
X0056138Y0246816D01*
X0056175Y0246867D01*
X0056215Y0246916D01*
X0056258Y0246963D01*
X0056304Y0247006D01*
X0056352Y0247047D01*
X0056403Y0247085D01*
X0056456Y0247120D01*
X0056511Y0247152D01*
X0056568Y0247180D01*
X0056626Y0247204D01*
X0056686Y0247225D01*
X0056747Y0247242D01*
X0056809Y0247256D01*
X0056872Y0247265D01*
X0056935Y0247271D01*
X0056998Y0247273D01*
X0057060Y0247271D01*
X0057121Y0247266D01*
X0057182Y0247256D01*
X0057243Y0247243D01*
X0057302Y0247227D01*
X0057360Y0247207D01*
X0057417Y0247183D01*
X0057473Y0247156D01*
X0057527Y0247126D01*
X0057579Y0247092D01*
X0057628Y0247056D01*
X0057676Y0247016D01*
X0057721Y0246974D01*
X0057763Y0246929D01*
X0057803Y0246881D01*
X0057839Y0246832D01*
X0057873Y0246780D01*
X0057903Y0246726D01*
X0057930Y0246670D01*
X0057954Y0246613D01*
X0057974Y0246555D01*
X0057990Y0246496D01*
X0058003Y0246435D01*
X0058013Y0246374D01*
X0058018Y0246313D01*
X0058020Y0246251D01*
X0053803Y0247018D02*
X0053755Y0246951D01*
X0053710Y0246883D01*
X0053668Y0246812D01*
X0053630Y0246739D01*
X0053594Y0246665D01*
X0053561Y0246590D01*
X0053532Y0246513D01*
X0053506Y0246435D01*
X0053483Y0246356D01*
X0053464Y0246276D01*
X0053448Y0246195D01*
X0053436Y0246114D01*
X0053427Y0246032D01*
X0053422Y0245950D01*
X0053420Y0245868D01*
X0053421Y0245868D02*
X0053423Y0245806D01*
X0053428Y0245745D01*
X0053438Y0245684D01*
X0053451Y0245623D01*
X0053467Y0245564D01*
X0053487Y0245506D01*
X0053511Y0245449D01*
X0053538Y0245393D01*
X0053568Y0245339D01*
X0053602Y0245287D01*
X0053638Y0245238D01*
X0053678Y0245190D01*
X0053720Y0245145D01*
X0053765Y0245103D01*
X0053813Y0245063D01*
X0053862Y0245027D01*
X0053914Y0244993D01*
X0053968Y0244963D01*
X0054024Y0244936D01*
X0054081Y0244912D01*
X0054139Y0244892D01*
X0054198Y0244876D01*
X0054259Y0244863D01*
X0054320Y0244853D01*
X0054381Y0244848D01*
X0054443Y0244846D01*
X0054506Y0244848D01*
X0054569Y0244854D01*
X0054632Y0244863D01*
X0054694Y0244877D01*
X0054755Y0244894D01*
X0054815Y0244915D01*
X0054873Y0244939D01*
X0054930Y0244967D01*
X0054985Y0244999D01*
X0055038Y0245034D01*
X0055089Y0245072D01*
X0055137Y0245113D01*
X0055183Y0245156D01*
X0055226Y0245203D01*
X0055266Y0245252D01*
X0055303Y0245303D01*
X0055337Y0245357D01*
X0058020Y0242824D02*
X0058020Y0241801D01*
X0058018Y0241739D01*
X0058013Y0241678D01*
X0058003Y0241617D01*
X0057990Y0241556D01*
X0057974Y0241497D01*
X0057954Y0241439D01*
X0057930Y0241382D01*
X0057903Y0241326D01*
X0057873Y0241272D01*
X0057839Y0241220D01*
X0057803Y0241171D01*
X0057763Y0241123D01*
X0057721Y0241078D01*
X0057676Y0241036D01*
X0057628Y0240996D01*
X0057579Y0240960D01*
X0057527Y0240926D01*
X0057473Y0240896D01*
X0057417Y0240869D01*
X0057360Y0240845D01*
X0057302Y0240825D01*
X0057243Y0240809D01*
X0057182Y0240796D01*
X0057121Y0240786D01*
X0057060Y0240781D01*
X0056998Y0240779D01*
X0053421Y0238051D02*
X0053423Y0237989D01*
X0053428Y0237928D01*
X0053438Y0237867D01*
X0053451Y0237806D01*
X0053467Y0237747D01*
X0053487Y0237689D01*
X0053511Y0237632D01*
X0053538Y0237576D01*
X0053568Y0237522D01*
X0053602Y0237470D01*
X0053639Y0237421D01*
X0053678Y0237373D01*
X0053720Y0237328D01*
X0053765Y0237286D01*
X0053813Y0237246D01*
X0053862Y0237210D01*
X0053914Y0237176D01*
X0053968Y0237146D01*
X0054024Y0237119D01*
X0054081Y0237095D01*
X0054139Y0237075D01*
X0054198Y0237059D01*
X0054259Y0237046D01*
X0054320Y0237036D01*
X0054381Y0237031D01*
X0054443Y0237029D01*
X0053420Y0238051D02*
X0053420Y0239074D01*
X0053420Y0232287D02*
X0058020Y0233820D01*
X0066478Y0242733D02*
X0069544Y0242733D01*
X0068011Y0241200D02*
X0068011Y0244267D01*
X0068011Y0245200D02*
X0068011Y0248267D01*
X0058020Y0249924D02*
X0054954Y0250946D01*
X0058020Y0251968D01*
X0053420Y0252990D01*
X0053420Y0254635D02*
X0053420Y0255657D01*
X0053420Y0255146D02*
X0058020Y0255146D01*
X0058020Y0254635D02*
X0058020Y0255657D01*
X0058020Y0258446D02*
X0053420Y0258446D01*
X0053420Y0257168D02*
X0053420Y0259724D01*
X0054443Y0261355D02*
X0056998Y0261355D01*
X0057060Y0261357D01*
X0057121Y0261362D01*
X0057182Y0261372D01*
X0057243Y0261385D01*
X0057302Y0261401D01*
X0057360Y0261421D01*
X0057417Y0261445D01*
X0057473Y0261472D01*
X0057527Y0261502D01*
X0057579Y0261536D01*
X0057628Y0261572D01*
X0057676Y0261612D01*
X0057721Y0261654D01*
X0057763Y0261699D01*
X0057803Y0261747D01*
X0057839Y0261796D01*
X0057873Y0261848D01*
X0057903Y0261902D01*
X0057930Y0261958D01*
X0057954Y0262015D01*
X0057974Y0262073D01*
X0057990Y0262132D01*
X0058003Y0262193D01*
X0058013Y0262254D01*
X0058018Y0262315D01*
X0058020Y0262377D01*
X0058020Y0263399D01*
X0058020Y0265268D02*
X0053420Y0265268D01*
X0053420Y0263399D02*
X0053420Y0262377D01*
X0053421Y0262377D02*
X0053423Y0262315D01*
X0053428Y0262254D01*
X0053438Y0262193D01*
X0053451Y0262132D01*
X0053467Y0262073D01*
X0053487Y0262015D01*
X0053511Y0261958D01*
X0053538Y0261902D01*
X0053568Y0261848D01*
X0053602Y0261796D01*
X0053639Y0261747D01*
X0053678Y0261699D01*
X0053720Y0261654D01*
X0053765Y0261612D01*
X0053813Y0261572D01*
X0053862Y0261536D01*
X0053914Y0261502D01*
X0053968Y0261472D01*
X0054024Y0261445D01*
X0054081Y0261421D01*
X0054139Y0261401D01*
X0054198Y0261385D01*
X0054259Y0261372D01*
X0054320Y0261362D01*
X0054381Y0261357D01*
X0054443Y0261355D01*
X0055465Y0265268D02*
X0055465Y0267824D01*
X0053420Y0267824D02*
X0058020Y0267824D01*
X0068011Y0270200D02*
X0068011Y0273267D01*
X0058020Y0249924D02*
X0053420Y0248901D01*
X0246424Y0295498D02*
X0251024Y0295498D01*
X0249236Y0295498D02*
X0246424Y0298053D01*
X0247447Y0299781D02*
X0246424Y0301059D01*
X0251024Y0301059D01*
X0251024Y0299781D02*
X0251024Y0302337D01*
X0251024Y0298053D02*
X0248213Y0296520D01*
X0308893Y0294980D02*
X0308893Y0292935D01*
X0313493Y0292935D01*
X0313493Y0291049D02*
X0310682Y0289515D01*
X0311704Y0288493D02*
X0308893Y0291049D01*
X0308893Y0288493D02*
X0313493Y0288493D01*
X0310937Y0292935D02*
X0310937Y0294980D01*
X0314004Y0296482D02*
X0314004Y0298527D01*
X0312471Y0300277D02*
X0308893Y0301299D01*
X0311448Y0302065D02*
X0313493Y0302065D01*
X0312471Y0302832D02*
X0312471Y0300277D01*
X0313493Y0304777D02*
X0313493Y0306310D01*
X0313491Y0306372D01*
X0313486Y0306433D01*
X0313476Y0306494D01*
X0313463Y0306555D01*
X0313447Y0306614D01*
X0313427Y0306672D01*
X0313403Y0306729D01*
X0313376Y0306785D01*
X0313346Y0306839D01*
X0313312Y0306891D01*
X0313276Y0306940D01*
X0313236Y0306988D01*
X0313194Y0307033D01*
X0313149Y0307075D01*
X0313101Y0307115D01*
X0313052Y0307151D01*
X0313000Y0307185D01*
X0312946Y0307215D01*
X0312890Y0307242D01*
X0312833Y0307266D01*
X0312775Y0307286D01*
X0312716Y0307302D01*
X0312655Y0307315D01*
X0312594Y0307325D01*
X0312533Y0307330D01*
X0312471Y0307332D01*
X0311960Y0307332D01*
X0311898Y0307330D01*
X0311837Y0307325D01*
X0311776Y0307315D01*
X0311715Y0307302D01*
X0311656Y0307286D01*
X0311598Y0307266D01*
X0311541Y0307242D01*
X0311485Y0307215D01*
X0311431Y0307185D01*
X0311379Y0307151D01*
X0311330Y0307115D01*
X0311282Y0307075D01*
X0311237Y0307033D01*
X0311195Y0306988D01*
X0311155Y0306940D01*
X0311119Y0306891D01*
X0311085Y0306839D01*
X0311055Y0306785D01*
X0311028Y0306729D01*
X0311004Y0306672D01*
X0310984Y0306614D01*
X0310968Y0306555D01*
X0310955Y0306494D01*
X0310945Y0306433D01*
X0310940Y0306372D01*
X0310938Y0306310D01*
X0310937Y0306310D02*
X0310937Y0304777D01*
X0308893Y0304777D01*
X0308893Y0307332D01*
X0314004Y0309082D02*
X0314004Y0311127D01*
X0312215Y0312876D02*
X0312285Y0312878D01*
X0312356Y0312884D01*
X0312425Y0312893D01*
X0312494Y0312907D01*
X0312563Y0312924D01*
X0312630Y0312945D01*
X0312696Y0312970D01*
X0312760Y0312998D01*
X0312823Y0313030D01*
X0312884Y0313065D01*
X0312943Y0313104D01*
X0313000Y0313145D01*
X0313054Y0313190D01*
X0313106Y0313238D01*
X0313155Y0313288D01*
X0313202Y0313342D01*
X0313245Y0313397D01*
X0313285Y0313455D01*
X0313322Y0313515D01*
X0313355Y0313577D01*
X0313385Y0313641D01*
X0313412Y0313706D01*
X0313435Y0313772D01*
X0313454Y0313840D01*
X0313469Y0313909D01*
X0313481Y0313978D01*
X0313489Y0314048D01*
X0313493Y0314119D01*
X0313493Y0314189D01*
X0313489Y0314260D01*
X0313481Y0314330D01*
X0313469Y0314399D01*
X0313454Y0314468D01*
X0313435Y0314536D01*
X0313412Y0314602D01*
X0313385Y0314667D01*
X0313355Y0314731D01*
X0313322Y0314793D01*
X0313285Y0314853D01*
X0313245Y0314911D01*
X0313202Y0314966D01*
X0313155Y0315020D01*
X0313106Y0315070D01*
X0313054Y0315118D01*
X0313000Y0315163D01*
X0312943Y0315204D01*
X0312884Y0315243D01*
X0312823Y0315278D01*
X0312760Y0315310D01*
X0312696Y0315338D01*
X0312630Y0315363D01*
X0312563Y0315384D01*
X0312494Y0315401D01*
X0312425Y0315415D01*
X0312356Y0315424D01*
X0312285Y0315430D01*
X0312215Y0315432D01*
X0312145Y0315430D01*
X0312074Y0315424D01*
X0312005Y0315415D01*
X0311936Y0315401D01*
X0311867Y0315384D01*
X0311800Y0315363D01*
X0311734Y0315338D01*
X0311670Y0315310D01*
X0311607Y0315278D01*
X0311546Y0315243D01*
X0311487Y0315204D01*
X0311430Y0315163D01*
X0311376Y0315118D01*
X0311324Y0315070D01*
X0311275Y0315020D01*
X0311228Y0314966D01*
X0311185Y0314911D01*
X0311145Y0314853D01*
X0311108Y0314793D01*
X0311075Y0314731D01*
X0311045Y0314667D01*
X0311018Y0314602D01*
X0310995Y0314536D01*
X0310976Y0314468D01*
X0310961Y0314399D01*
X0310949Y0314330D01*
X0310941Y0314260D01*
X0310937Y0314189D01*
X0310937Y0314119D01*
X0310941Y0314048D01*
X0310949Y0313978D01*
X0310961Y0313909D01*
X0310976Y0313840D01*
X0310995Y0313772D01*
X0311018Y0313706D01*
X0311045Y0313641D01*
X0311075Y0313577D01*
X0311108Y0313515D01*
X0311145Y0313455D01*
X0311185Y0313397D01*
X0311228Y0313342D01*
X0311275Y0313288D01*
X0311324Y0313238D01*
X0311376Y0313190D01*
X0311430Y0313145D01*
X0311487Y0313104D01*
X0311546Y0313065D01*
X0311607Y0313030D01*
X0311670Y0312998D01*
X0311734Y0312970D01*
X0311800Y0312945D01*
X0311867Y0312924D01*
X0311936Y0312907D01*
X0312005Y0312893D01*
X0312074Y0312884D01*
X0312145Y0312878D01*
X0312215Y0312876D01*
X0309915Y0313132D02*
X0309978Y0313134D01*
X0310041Y0313140D01*
X0310103Y0313149D01*
X0310164Y0313163D01*
X0310225Y0313180D01*
X0310284Y0313201D01*
X0310342Y0313226D01*
X0310399Y0313254D01*
X0310453Y0313285D01*
X0310505Y0313320D01*
X0310556Y0313358D01*
X0310604Y0313399D01*
X0310649Y0313443D01*
X0310691Y0313489D01*
X0310731Y0313538D01*
X0310767Y0313589D01*
X0310800Y0313643D01*
X0310830Y0313698D01*
X0310856Y0313756D01*
X0310879Y0313814D01*
X0310898Y0313874D01*
X0310913Y0313935D01*
X0310925Y0313997D01*
X0310933Y0314060D01*
X0310937Y0314123D01*
X0310937Y0314185D01*
X0310933Y0314248D01*
X0310925Y0314311D01*
X0310913Y0314373D01*
X0310898Y0314434D01*
X0310879Y0314494D01*
X0310856Y0314552D01*
X0310830Y0314610D01*
X0310800Y0314665D01*
X0310767Y0314719D01*
X0310731Y0314770D01*
X0310691Y0314819D01*
X0310649Y0314865D01*
X0310604Y0314909D01*
X0310556Y0314950D01*
X0310505Y0314988D01*
X0310453Y0315023D01*
X0310399Y0315054D01*
X0310342Y0315082D01*
X0310284Y0315107D01*
X0310225Y0315128D01*
X0310164Y0315145D01*
X0310103Y0315159D01*
X0310041Y0315168D01*
X0309978Y0315174D01*
X0309915Y0315176D01*
X0309852Y0315174D01*
X0309789Y0315168D01*
X0309727Y0315159D01*
X0309666Y0315145D01*
X0309605Y0315128D01*
X0309546Y0315107D01*
X0309488Y0315082D01*
X0309431Y0315054D01*
X0309377Y0315023D01*
X0309325Y0314988D01*
X0309274Y0314950D01*
X0309226Y0314909D01*
X0309181Y0314865D01*
X0309139Y0314819D01*
X0309099Y0314770D01*
X0309063Y0314719D01*
X0309030Y0314665D01*
X0309000Y0314610D01*
X0308974Y0314552D01*
X0308951Y0314494D01*
X0308932Y0314434D01*
X0308917Y0314373D01*
X0308905Y0314311D01*
X0308897Y0314248D01*
X0308893Y0314185D01*
X0308893Y0314123D01*
X0308897Y0314060D01*
X0308905Y0313997D01*
X0308917Y0313935D01*
X0308932Y0313874D01*
X0308951Y0313814D01*
X0308974Y0313756D01*
X0309000Y0313698D01*
X0309030Y0313643D01*
X0309063Y0313589D01*
X0309099Y0313538D01*
X0309139Y0313489D01*
X0309181Y0313443D01*
X0309226Y0313399D01*
X0309274Y0313358D01*
X0309325Y0313320D01*
X0309377Y0313285D01*
X0309431Y0313254D01*
X0309488Y0313226D01*
X0309546Y0313201D01*
X0309605Y0313180D01*
X0309666Y0313163D01*
X0309727Y0313149D01*
X0309789Y0313140D01*
X0309852Y0313134D01*
X0309915Y0313132D01*
X0308893Y0317593D02*
X0308893Y0318871D01*
X0308895Y0318941D01*
X0308901Y0319012D01*
X0308910Y0319081D01*
X0308924Y0319150D01*
X0308941Y0319219D01*
X0308962Y0319286D01*
X0308987Y0319352D01*
X0309015Y0319416D01*
X0309047Y0319479D01*
X0309082Y0319540D01*
X0309121Y0319599D01*
X0309162Y0319656D01*
X0309207Y0319710D01*
X0309255Y0319762D01*
X0309305Y0319811D01*
X0309359Y0319858D01*
X0309414Y0319901D01*
X0309472Y0319941D01*
X0309532Y0319978D01*
X0309594Y0320011D01*
X0309658Y0320041D01*
X0309723Y0320068D01*
X0309789Y0320091D01*
X0309857Y0320110D01*
X0309926Y0320125D01*
X0309995Y0320137D01*
X0310065Y0320145D01*
X0310136Y0320149D01*
X0310206Y0320149D01*
X0310277Y0320145D01*
X0310347Y0320137D01*
X0310416Y0320125D01*
X0310485Y0320110D01*
X0310553Y0320091D01*
X0310619Y0320068D01*
X0310684Y0320041D01*
X0310748Y0320011D01*
X0310810Y0319978D01*
X0310870Y0319941D01*
X0310928Y0319901D01*
X0310983Y0319858D01*
X0311037Y0319811D01*
X0311087Y0319762D01*
X0311135Y0319710D01*
X0311180Y0319656D01*
X0311221Y0319599D01*
X0311260Y0319540D01*
X0311295Y0319479D01*
X0311327Y0319416D01*
X0311355Y0319352D01*
X0311380Y0319286D01*
X0311401Y0319219D01*
X0311418Y0319150D01*
X0311432Y0319081D01*
X0311441Y0319012D01*
X0311447Y0318941D01*
X0311449Y0318871D01*
X0311448Y0318871D02*
X0311448Y0317593D01*
X0313493Y0317593D02*
X0308893Y0317593D01*
X0308893Y0321743D02*
X0308893Y0322765D01*
X0308893Y0322254D02*
X0313493Y0322254D01*
X0313493Y0321743D02*
X0313493Y0322765D01*
X0313493Y0324727D02*
X0308893Y0324727D01*
X0313493Y0327282D01*
X0308893Y0327282D01*
X0314004Y0329182D02*
X0314004Y0331227D01*
X0312471Y0332963D02*
X0309915Y0332963D01*
X0309915Y0332964D02*
X0309853Y0332966D01*
X0309792Y0332971D01*
X0309731Y0332981D01*
X0309670Y0332994D01*
X0309611Y0333010D01*
X0309553Y0333030D01*
X0309496Y0333054D01*
X0309440Y0333081D01*
X0309386Y0333111D01*
X0309334Y0333145D01*
X0309285Y0333181D01*
X0309237Y0333221D01*
X0309192Y0333263D01*
X0309150Y0333308D01*
X0309111Y0333356D01*
X0309074Y0333405D01*
X0309040Y0333457D01*
X0309010Y0333511D01*
X0308983Y0333567D01*
X0308959Y0333624D01*
X0308939Y0333682D01*
X0308923Y0333741D01*
X0308910Y0333802D01*
X0308900Y0333863D01*
X0308895Y0333924D01*
X0308893Y0333986D01*
X0308893Y0335008D01*
X0310171Y0336727D02*
X0312215Y0336727D01*
X0312215Y0336726D02*
X0312285Y0336728D01*
X0312356Y0336734D01*
X0312425Y0336743D01*
X0312494Y0336757D01*
X0312563Y0336774D01*
X0312630Y0336795D01*
X0312696Y0336820D01*
X0312760Y0336848D01*
X0312823Y0336880D01*
X0312884Y0336915D01*
X0312943Y0336954D01*
X0313000Y0336995D01*
X0313054Y0337040D01*
X0313106Y0337088D01*
X0313155Y0337138D01*
X0313202Y0337192D01*
X0313245Y0337247D01*
X0313285Y0337305D01*
X0313322Y0337365D01*
X0313355Y0337427D01*
X0313385Y0337491D01*
X0313412Y0337556D01*
X0313435Y0337622D01*
X0313454Y0337690D01*
X0313469Y0337759D01*
X0313481Y0337828D01*
X0313489Y0337898D01*
X0313493Y0337969D01*
X0313493Y0338039D01*
X0313489Y0338110D01*
X0313481Y0338180D01*
X0313469Y0338249D01*
X0313454Y0338318D01*
X0313435Y0338386D01*
X0313412Y0338452D01*
X0313385Y0338517D01*
X0313355Y0338581D01*
X0313322Y0338643D01*
X0313285Y0338703D01*
X0313245Y0338761D01*
X0313202Y0338816D01*
X0313155Y0338870D01*
X0313106Y0338920D01*
X0313054Y0338968D01*
X0313000Y0339013D01*
X0312943Y0339054D01*
X0312884Y0339093D01*
X0312823Y0339128D01*
X0312760Y0339160D01*
X0312696Y0339188D01*
X0312630Y0339213D01*
X0312563Y0339234D01*
X0312494Y0339251D01*
X0312425Y0339265D01*
X0312356Y0339274D01*
X0312285Y0339280D01*
X0312215Y0339282D01*
X0310171Y0339282D01*
X0310101Y0339280D01*
X0310030Y0339274D01*
X0309961Y0339265D01*
X0309892Y0339251D01*
X0309823Y0339234D01*
X0309756Y0339213D01*
X0309690Y0339188D01*
X0309626Y0339160D01*
X0309563Y0339128D01*
X0309502Y0339093D01*
X0309443Y0339054D01*
X0309386Y0339013D01*
X0309332Y0338968D01*
X0309280Y0338920D01*
X0309231Y0338870D01*
X0309184Y0338816D01*
X0309141Y0338761D01*
X0309101Y0338703D01*
X0309064Y0338643D01*
X0309031Y0338581D01*
X0309001Y0338517D01*
X0308974Y0338452D01*
X0308951Y0338386D01*
X0308932Y0338318D01*
X0308917Y0338249D01*
X0308905Y0338180D01*
X0308897Y0338110D01*
X0308893Y0338039D01*
X0308893Y0337969D01*
X0308897Y0337898D01*
X0308905Y0337828D01*
X0308917Y0337759D01*
X0308932Y0337690D01*
X0308951Y0337622D01*
X0308974Y0337556D01*
X0309001Y0337491D01*
X0309031Y0337427D01*
X0309064Y0337365D01*
X0309101Y0337305D01*
X0309141Y0337247D01*
X0309184Y0337192D01*
X0309231Y0337138D01*
X0309280Y0337088D01*
X0309332Y0337040D01*
X0309386Y0336995D01*
X0309443Y0336954D01*
X0309502Y0336915D01*
X0309563Y0336880D01*
X0309626Y0336848D01*
X0309690Y0336820D01*
X0309756Y0336795D01*
X0309823Y0336774D01*
X0309892Y0336757D01*
X0309961Y0336743D01*
X0310030Y0336734D01*
X0310101Y0336728D01*
X0310171Y0336726D01*
X0313493Y0333986D02*
X0313491Y0333924D01*
X0313486Y0333863D01*
X0313476Y0333802D01*
X0313463Y0333741D01*
X0313447Y0333682D01*
X0313427Y0333624D01*
X0313403Y0333567D01*
X0313376Y0333511D01*
X0313346Y0333457D01*
X0313312Y0333405D01*
X0313276Y0333356D01*
X0313236Y0333308D01*
X0313194Y0333263D01*
X0313149Y0333221D01*
X0313101Y0333181D01*
X0313052Y0333145D01*
X0313000Y0333111D01*
X0312946Y0333081D01*
X0312890Y0333054D01*
X0312833Y0333030D01*
X0312775Y0333010D01*
X0312716Y0332994D01*
X0312655Y0332981D01*
X0312594Y0332971D01*
X0312533Y0332966D01*
X0312471Y0332964D01*
X0313493Y0333986D02*
X0313493Y0335008D01*
X0313493Y0341405D02*
X0308893Y0341405D01*
X0308893Y0342683D01*
X0308895Y0342753D01*
X0308901Y0342824D01*
X0308910Y0342893D01*
X0308924Y0342962D01*
X0308941Y0343031D01*
X0308962Y0343098D01*
X0308987Y0343164D01*
X0309015Y0343228D01*
X0309047Y0343291D01*
X0309082Y0343352D01*
X0309121Y0343411D01*
X0309162Y0343468D01*
X0309207Y0343522D01*
X0309255Y0343574D01*
X0309305Y0343623D01*
X0309359Y0343670D01*
X0309414Y0343713D01*
X0309472Y0343753D01*
X0309532Y0343790D01*
X0309594Y0343823D01*
X0309658Y0343853D01*
X0309723Y0343880D01*
X0309789Y0343903D01*
X0309857Y0343922D01*
X0309926Y0343937D01*
X0309995Y0343949D01*
X0310065Y0343957D01*
X0310136Y0343961D01*
X0310206Y0343961D01*
X0310277Y0343957D01*
X0310347Y0343949D01*
X0310416Y0343937D01*
X0310485Y0343922D01*
X0310553Y0343903D01*
X0310619Y0343880D01*
X0310684Y0343853D01*
X0310748Y0343823D01*
X0310810Y0343790D01*
X0310870Y0343753D01*
X0310928Y0343713D01*
X0310983Y0343670D01*
X0311037Y0343623D01*
X0311087Y0343574D01*
X0311135Y0343522D01*
X0311180Y0343468D01*
X0311221Y0343411D01*
X0311260Y0343352D01*
X0311295Y0343291D01*
X0311327Y0343228D01*
X0311355Y0343164D01*
X0311380Y0343098D01*
X0311401Y0343031D01*
X0311418Y0342962D01*
X0311432Y0342893D01*
X0311441Y0342824D01*
X0311447Y0342753D01*
X0311449Y0342683D01*
X0311448Y0342683D02*
X0311448Y0341405D01*
X0311448Y0342939D02*
X0313493Y0343961D01*
X0313493Y0346055D02*
X0308893Y0346055D01*
X0308893Y0347333D01*
X0308895Y0347403D01*
X0308901Y0347474D01*
X0308910Y0347543D01*
X0308924Y0347612D01*
X0308941Y0347681D01*
X0308962Y0347748D01*
X0308987Y0347814D01*
X0309015Y0347878D01*
X0309047Y0347941D01*
X0309082Y0348002D01*
X0309121Y0348061D01*
X0309162Y0348118D01*
X0309207Y0348172D01*
X0309255Y0348224D01*
X0309305Y0348273D01*
X0309359Y0348320D01*
X0309414Y0348363D01*
X0309472Y0348403D01*
X0309532Y0348440D01*
X0309594Y0348473D01*
X0309658Y0348503D01*
X0309723Y0348530D01*
X0309789Y0348553D01*
X0309857Y0348572D01*
X0309926Y0348587D01*
X0309995Y0348599D01*
X0310065Y0348607D01*
X0310136Y0348611D01*
X0310206Y0348611D01*
X0310277Y0348607D01*
X0310347Y0348599D01*
X0310416Y0348587D01*
X0310485Y0348572D01*
X0310553Y0348553D01*
X0310619Y0348530D01*
X0310684Y0348503D01*
X0310748Y0348473D01*
X0310810Y0348440D01*
X0310870Y0348403D01*
X0310928Y0348363D01*
X0310983Y0348320D01*
X0311037Y0348273D01*
X0311087Y0348224D01*
X0311135Y0348172D01*
X0311180Y0348118D01*
X0311221Y0348061D01*
X0311260Y0348002D01*
X0311295Y0347941D01*
X0311327Y0347878D01*
X0311355Y0347814D01*
X0311380Y0347748D01*
X0311401Y0347681D01*
X0311418Y0347612D01*
X0311432Y0347543D01*
X0311441Y0347474D01*
X0311447Y0347403D01*
X0311449Y0347333D01*
X0311448Y0347333D02*
X0311448Y0346055D01*
X0311448Y0347589D02*
X0313493Y0348611D01*
X0320704Y0347333D02*
X0321726Y0346055D01*
X0320704Y0347333D02*
X0325304Y0347333D01*
X0325304Y0346055D02*
X0325304Y0348611D01*
X0323387Y0343772D02*
X0323004Y0343133D01*
X0322621Y0342494D01*
X0324537Y0342111D02*
X0324580Y0342186D01*
X0324619Y0342262D01*
X0324656Y0342340D01*
X0324688Y0342419D01*
X0324718Y0342500D01*
X0324744Y0342582D01*
X0324766Y0342665D01*
X0324785Y0342749D01*
X0324801Y0342833D01*
X0324812Y0342918D01*
X0324820Y0343004D01*
X0324825Y0343089D01*
X0324826Y0343175D01*
X0324823Y0343261D01*
X0324817Y0343347D01*
X0324807Y0343432D01*
X0324793Y0343517D01*
X0325304Y0343133D02*
X0320704Y0343133D01*
X0321215Y0342750D02*
X0321227Y0342697D01*
X0321242Y0342645D01*
X0321262Y0342594D01*
X0321284Y0342545D01*
X0321310Y0342497D01*
X0321340Y0342451D01*
X0321372Y0342408D01*
X0321408Y0342367D01*
X0321446Y0342328D01*
X0321487Y0342293D01*
X0321531Y0342260D01*
X0321576Y0342231D01*
X0321624Y0342205D01*
X0321674Y0342182D01*
X0321724Y0342163D01*
X0321776Y0342148D01*
X0321830Y0342136D01*
X0321883Y0342128D01*
X0321937Y0342125D01*
X0321992Y0342124D01*
X0322046Y0342128D01*
X0322100Y0342136D01*
X0322153Y0342147D01*
X0322205Y0342162D01*
X0322256Y0342181D01*
X0322305Y0342204D01*
X0322353Y0342229D01*
X0322399Y0342259D01*
X0322442Y0342291D01*
X0322484Y0342326D01*
X0322522Y0342365D01*
X0322558Y0342406D01*
X0322591Y0342449D01*
X0322620Y0342494D01*
X0321215Y0342750D02*
X0321201Y0342835D01*
X0321191Y0342920D01*
X0321185Y0343006D01*
X0321182Y0343092D01*
X0321183Y0343178D01*
X0321188Y0343263D01*
X0321196Y0343349D01*
X0321207Y0343434D01*
X0321223Y0343518D01*
X0321242Y0343602D01*
X0321264Y0343685D01*
X0321290Y0343767D01*
X0321320Y0343848D01*
X0321352Y0343927D01*
X0321389Y0344005D01*
X0321428Y0344081D01*
X0321471Y0344156D01*
X0323388Y0343772D02*
X0323417Y0343817D01*
X0323450Y0343860D01*
X0323486Y0343901D01*
X0323524Y0343940D01*
X0323566Y0343975D01*
X0323609Y0344007D01*
X0323655Y0344037D01*
X0323703Y0344062D01*
X0323752Y0344085D01*
X0323803Y0344104D01*
X0323855Y0344119D01*
X0323908Y0344130D01*
X0323962Y0344138D01*
X0324016Y0344142D01*
X0324071Y0344141D01*
X0324125Y0344137D01*
X0324178Y0344130D01*
X0324232Y0344118D01*
X0324284Y0344103D01*
X0324335Y0344084D01*
X0324384Y0344061D01*
X0324432Y0344035D01*
X0324477Y0344006D01*
X0324521Y0343973D01*
X0324562Y0343938D01*
X0324600Y0343899D01*
X0324636Y0343858D01*
X0324668Y0343815D01*
X0324698Y0343769D01*
X0324724Y0343721D01*
X0324746Y0343672D01*
X0324766Y0343621D01*
X0324781Y0343569D01*
X0324793Y0343516D01*
X0324026Y0340061D02*
X0320704Y0340061D01*
X0320704Y0337505D02*
X0324026Y0337505D01*
X0324096Y0337507D01*
X0324167Y0337513D01*
X0324236Y0337522D01*
X0324305Y0337536D01*
X0324374Y0337553D01*
X0324441Y0337574D01*
X0324507Y0337599D01*
X0324571Y0337627D01*
X0324634Y0337659D01*
X0324695Y0337694D01*
X0324754Y0337733D01*
X0324811Y0337774D01*
X0324865Y0337819D01*
X0324917Y0337867D01*
X0324966Y0337917D01*
X0325013Y0337971D01*
X0325056Y0338026D01*
X0325096Y0338084D01*
X0325133Y0338144D01*
X0325166Y0338206D01*
X0325196Y0338270D01*
X0325223Y0338335D01*
X0325246Y0338401D01*
X0325265Y0338469D01*
X0325280Y0338538D01*
X0325292Y0338607D01*
X0325300Y0338677D01*
X0325304Y0338748D01*
X0325304Y0338818D01*
X0325300Y0338889D01*
X0325292Y0338959D01*
X0325280Y0339028D01*
X0325265Y0339097D01*
X0325246Y0339165D01*
X0325223Y0339231D01*
X0325196Y0339296D01*
X0325166Y0339360D01*
X0325133Y0339422D01*
X0325096Y0339482D01*
X0325056Y0339540D01*
X0325013Y0339595D01*
X0324966Y0339649D01*
X0324917Y0339699D01*
X0324865Y0339747D01*
X0324811Y0339792D01*
X0324754Y0339833D01*
X0324695Y0339872D01*
X0324634Y0339907D01*
X0324571Y0339939D01*
X0324507Y0339967D01*
X0324441Y0339992D01*
X0324374Y0340013D01*
X0324305Y0340030D01*
X0324236Y0340044D01*
X0324167Y0340053D01*
X0324096Y0340059D01*
X0324026Y0340061D01*
X0251024Y0162337D02*
X0251024Y0159781D01*
X0248469Y0161953D01*
X0246425Y0161187D02*
X0246427Y0161113D01*
X0246432Y0161039D01*
X0246442Y0160965D01*
X0246455Y0160892D01*
X0246471Y0160819D01*
X0246492Y0160748D01*
X0246516Y0160678D01*
X0246543Y0160609D01*
X0246574Y0160541D01*
X0246608Y0160475D01*
X0246645Y0160411D01*
X0246686Y0160349D01*
X0246730Y0160288D01*
X0246776Y0160231D01*
X0246826Y0160175D01*
X0246878Y0160122D01*
X0246933Y0160072D01*
X0246990Y0160025D01*
X0247050Y0159981D01*
X0247112Y0159939D01*
X0247175Y0159901D01*
X0247241Y0159866D01*
X0247308Y0159835D01*
X0247377Y0159807D01*
X0247447Y0159782D01*
X0248468Y0161954D02*
X0248421Y0162001D01*
X0248371Y0162045D01*
X0248319Y0162087D01*
X0248265Y0162126D01*
X0248209Y0162161D01*
X0248151Y0162194D01*
X0248091Y0162224D01*
X0248030Y0162250D01*
X0247967Y0162273D01*
X0247903Y0162292D01*
X0247839Y0162308D01*
X0247773Y0162321D01*
X0247707Y0162330D01*
X0247641Y0162335D01*
X0247574Y0162337D01*
X0247507Y0162335D01*
X0247440Y0162329D01*
X0247374Y0162320D01*
X0247309Y0162306D01*
X0247244Y0162289D01*
X0247181Y0162268D01*
X0247119Y0162243D01*
X0247058Y0162215D01*
X0246999Y0162183D01*
X0246942Y0162148D01*
X0246887Y0162109D01*
X0246835Y0162068D01*
X0246785Y0162023D01*
X0246738Y0161976D01*
X0246693Y0161926D01*
X0246652Y0161874D01*
X0246613Y0161819D01*
X0246578Y0161762D01*
X0246546Y0161703D01*
X0246518Y0161642D01*
X0246493Y0161580D01*
X0246472Y0161517D01*
X0246455Y0161452D01*
X0246441Y0161387D01*
X0246432Y0161321D01*
X0246426Y0161254D01*
X0246424Y0161187D01*
X0246424Y0158053D02*
X0249236Y0155498D01*
X0248213Y0156520D02*
X0251024Y0158053D01*
X0251024Y0155498D02*
X0246424Y0155498D01*
D16*
X0162750Y0212000D03*
X0141250Y0212000D03*
X0136250Y0182000D03*
X0157750Y0182000D03*
X0127750Y0302000D03*
X0106250Y0302000D03*
X0106250Y0332000D03*
X0127750Y0332000D03*
M02*
